<svg width="24" height="24" viewBox="0 0 24 24" fill="none" xmlns="http://www.w3.org/2000/svg">
<path fill-rule="evenodd" clip-rule="evenodd" d="M20 1.33333H4C2.52724 1.33333 1.33333 2.52724 1.33333 4V20C1.33333 21.4728 2.52724 22.6667 4 22.6667H20C21.4728 22.6667 22.6667 21.4728 22.6667 20V4C22.6667 2.52724 21.4728 1.33333 20 1.33333ZM4 0C1.79086 0 0 1.79086 0 4V20C0 22.2091 1.79086 24 4 24H20C22.2091 24 24 22.2091 24 20V4C24 1.79086 22.2091 0 20 0H4Z" fill="url(#paint0_linear_5077_1513)"/>
<path d="M12 5.33333C8.32405 5.33333 5.33333 8.32405 5.33333 12C5.33333 15.676 8.32405 18.6667 12 18.6667C13.1723 18.6667 14.325 18.3582 15.3341 17.7743L14.5 16.3315C13.744 16.7689 12.8793 17 12 17C9.24285 17 6.99999 14.7572 6.99999 12C6.99999 9.24285 9.24285 6.99999 12 6.99999C14.7572 6.99999 17 9.24285 17 12V12.7259C17 13.2712 16.6497 13.6667 16.1667 13.6667C15.7073 13.6667 15.3333 13.2927 15.3333 12.8333V9.5H14.1814C13.5951 8.98785 12.8377 8.66665 12 8.66665C10.162 8.66665 8.66665 10.162 8.66665 12C8.66665 13.838 10.162 15.3333 12 15.3333C12.8752 15.3333 13.6666 14.9872 14.262 14.4335C14.7209 14.9789 15.3997 15.3333 16.1667 15.3333C17.5684 15.3333 18.6667 14.1879 18.6667 12.7259V12C18.6667 8.32405 15.676 5.33333 12 5.33333ZM12 13.6667C11.0808 13.6667 10.3333 12.9192 10.3333 12C10.3333 11.0808 11.0808 10.3333 12 10.3333C12.9192 10.3333 13.6667 11.0808 13.6667 12C13.6667 12.9192 12.9192 13.6667 12 13.6667Z" fill="url(#paint1_linear_5077_1513)"/>
<defs>
<linearGradient id="paint0_linear_5077_1513" x1="19.443" y1="-16.2162" x2="1.64621" y2="-10.9429" gradientUnits="userSpaceOnUse">
<stop stop-color="#0B96B4"/>
<stop offset="1" stop-color="#551DB0"/>
</linearGradient>
<linearGradient id="paint1_linear_5077_1513" x1="19.443" y1="-16.2162" x2="1.64621" y2="-10.9429" gradientUnits="userSpaceOnUse">
<stop stop-color="#0B96B4"/>
<stop offset="1" stop-color="#551DB0"/>
</linearGradient>
</defs>
</svg>
