<svg width="36" height="36" viewBox="0 0 36 36" fill="none" xmlns="http://www.w3.org/2000/svg">
<g id="Social/FB">
<path id="Union" fill-rule="evenodd" clip-rule="evenodd" d="M5.45455 2.18182H30.5455C32.3529 2.18182 33.8182 3.64707 33.8182 5.45455V30.5455C33.8182 32.3529 32.3529 33.8182 30.5455 33.8182H23.0264V20.7273H26.955L27.4742 15.8118H23.0265V13.3542C23.0265 12.9853 23.0435 12.6995 23.078 12.4976C23.1123 12.2955 23.1905 12.0966 23.3119 11.9004C23.4331 11.7042 23.6293 11.5688 23.9003 11.4937C24.1716 11.4185 24.5322 11.3811 24.9824 11.3811H27.4399V6.46595H23.5111C21.2378 6.46595 19.6051 7.0053 18.6128 8.08398C17.6205 9.1629 17.1245 10.7521 17.1245 12.8523V15.8118H14.1818V20.7273H17.1243V33.8182H5.45454C3.64707 33.8182 2.18182 32.3529 2.18182 30.5455V5.45454C2.18182 3.64707 3.64707 2.18182 5.45455 2.18182ZM0 5.45454C0 2.44208 2.44208 0 5.45455 0H30.5455C33.5579 0 36 2.44208 36 5.45455V30.5455C36 33.5579 33.5579 36 30.5455 36H5.45454C2.44208 36 0 33.5579 0 30.5455V5.45454Z" fill="#222222"/>
</g>
</svg>
