<svg width="24" height="24" viewBox="0 0 24 24" fill="none" xmlns="http://www.w3.org/2000/svg">
<path fill-rule="evenodd" clip-rule="evenodd" d="M3.63636 1.45455H20.3636C21.5686 1.45455 22.5455 2.43138 22.5455 3.63636V20.3636C22.5455 21.5686 21.5686 22.5455 20.3636 22.5455H15.351V13.8182H17.97L18.3162 10.5412H15.351V8.90281C15.351 8.65685 15.3623 8.46634 15.3853 8.33176C15.4082 8.19698 15.4604 8.06443 15.5413 7.93357C15.622 7.80279 15.7529 7.7125 15.9335 7.66247C16.1144 7.61236 16.3548 7.58738 16.6549 7.58738H18.2932V4.31064H15.6741C14.1585 4.31064 13.0701 4.6702 12.4085 5.38932C11.747 6.1086 11.4163 7.16809 11.4163 8.56818V10.5412H9.45455V13.8182H11.4162V22.5455H3.63636C2.43138 22.5455 1.45455 21.5686 1.45455 20.3636V3.63636C1.45455 2.43138 2.43138 1.45455 3.63636 1.45455ZM0 3.63636C0 1.62805 1.62806 0 3.63636 0H20.3636C22.3719 0 24 1.62806 24 3.63636V20.3636C24 22.3719 22.3719 24 20.3636 24H3.63636C1.62805 24 0 22.3719 0 20.3636V3.63636Z" fill="url(#paint0_linear_5077_1508)"/>
<defs>
<linearGradient id="paint0_linear_5077_1508" x1="19.443" y1="-16.2162" x2="1.64621" y2="-10.9429" gradientUnits="userSpaceOnUse">
<stop stop-color="#0B96B4"/>
<stop offset="1" stop-color="#551DB0"/>
</linearGradient>
</defs>
</svg>
