<svg width="24" height="24" viewBox="0 0 24 24" fill="none" xmlns="http://www.w3.org/2000/svg">
<path fill-rule="evenodd" clip-rule="evenodd" d="M3.63636 1.45455H20.3636C21.5686 1.45455 22.5455 2.43138 22.5455 3.63636V20.3636C22.5455 21.5686 21.5686 22.5455 20.3636 22.5455H3.63636C2.43138 22.5455 1.45455 21.5686 1.45455 20.3636V3.63636C1.45455 2.43138 2.43138 1.45455 3.63636 1.45455ZM0 3.63636C0 1.62805 1.62806 0 3.63636 0H20.3636C22.3719 0 24 1.62806 24 3.63636V20.3636C24 22.3719 22.3719 24 20.3636 24H3.63636C1.62805 24 0 22.3719 0 20.3636V3.63636ZM5.09091 6.78275C5.09106 5.84943 5.84822 5.09091 6.78366 5.09091C7.71682 5.09091 8.47519 5.84928 8.47519 6.78275C8.47519 7.71698 7.71698 8.47535 6.78381 8.47535C5.84807 8.47535 5.09091 7.71698 5.09091 6.78275ZM5.32368 9.49113H8.24259V18.8824H5.32368V9.49113ZM15.4078 9.25783C13.9879 9.25783 13.0359 10.0363 12.6461 10.7746H12.6071V9.49135H9.8076L9.80745 18.8825H12.7238V14.2366C12.7238 13.0118 12.957 11.8255 14.4756 11.8255C15.9723 11.8255 15.9923 13.2263 15.9923 14.3152V18.8824H18.9091V13.7313C18.9091 11.2029 18.3635 9.25783 15.4078 9.25783Z" fill="url(#paint0_linear_5077_1511)"/>
<defs>
<linearGradient id="paint0_linear_5077_1511" x1="19.443" y1="-16.2162" x2="1.64621" y2="-10.9429" gradientUnits="userSpaceOnUse">
<stop stop-color="#0B96B4"/>
<stop offset="1" stop-color="#551DB0"/>
</linearGradient>
</defs>
</svg>
