<svg width="24" height="24" viewBox="0 0 24 24" fill="none" xmlns="http://www.w3.org/2000/svg">
<path fill-rule="evenodd" clip-rule="evenodd" d="M3.63636 1.45455H20.3636C21.5686 1.45455 22.5455 2.43138 22.5455 3.63636V20.3636C22.5455 21.5686 21.5686 22.5455 20.3636 22.5455H3.63636C2.43138 22.5455 1.45455 21.5686 1.45455 20.3636V3.63636C1.45455 2.43138 2.43138 1.45455 3.63636 1.45455ZM0 3.63636C0 1.62805 1.62806 0 3.63636 0H20.3636C22.3719 0 24 1.62806 24 3.63636V20.3636C24 22.3719 22.3719 24 20.3636 24H3.63636C1.62805 24 0 22.3719 0 20.3636V3.63636ZM7.61127 12.5284L4.59486 11.4026C4.28849 11.2878 4.28583 10.8553 4.59133 10.7375L16.9707 5.96187C17.2332 5.86037 17.504 6.09029 17.4468 6.3659L15.2252 17.0521C15.1729 17.3044 14.8771 17.4188 14.6683 17.267L11.6356 15.0652C11.4514 14.9315 11.2004 14.9387 11.0242 15.0823L9.34276 16.453C9.14757 16.6126 8.85351 16.5237 8.7788 16.2832L7.61127 12.5284ZM14.4858 8.29829L8.59064 11.9291C8.36469 12.0686 8.25831 12.3415 8.33131 12.5969L8.96871 14.8365C9.01396 14.9953 9.24432 14.979 9.26626 14.815L9.432 13.5868C9.46324 13.3556 9.57355 13.1425 9.74456 12.9834L14.6098 8.46088C14.7008 8.37649 14.5918 8.23323 14.4858 8.29829Z" fill="url(#paint0_linear_5077_1504)"/>
<defs>
<linearGradient id="paint0_linear_5077_1504" x1="19.443" y1="-16.2162" x2="1.64621" y2="-10.9429" gradientUnits="userSpaceOnUse">
<stop stop-color="#0B96B4"/>
<stop offset="1" stop-color="#551DB0"/>
</linearGradient>
</defs>
</svg>
