<svg width="24" height="24" viewBox="0 0 24 24" fill="none" xmlns="http://www.w3.org/2000/svg">
<path fill-rule="evenodd" clip-rule="evenodd" d="M3.63636 1.45455H20.3636C21.5686 1.45455 22.5455 2.43138 22.5455 3.63636V20.3636C22.5455 21.5686 21.5686 22.5455 20.3636 22.5455H3.63636C2.43138 22.5455 1.45455 21.5686 1.45455 20.3636V3.63636C1.45455 2.43138 2.43138 1.45455 3.63636 1.45455ZM0 3.63636C0 1.62805 1.62806 0 3.63636 0H20.3636C22.3719 0 24 1.62806 24 3.63636V20.3636C24 22.3719 22.3719 24 20.3636 24H3.63636C1.62805 24 0 22.3719 0 20.3636V3.63636ZM18.9539 15.1221C18.9594 15.1321 18.9635 15.1396 18.9664 15.1446C19.4788 15.9945 18.3979 16.0612 18.3979 16.0612L16.3319 16.0902C16.3319 16.0902 15.8881 16.1782 15.3041 15.7769C14.9988 15.5671 14.7002 15.2248 14.4157 14.8987C13.9806 14.3997 13.5783 13.9386 13.2351 14.0473C12.6589 14.23 12.6773 15.4705 12.6773 15.4705C12.6773 15.4705 12.6821 15.7354 12.5506 15.8765C12.4085 16.0302 12.1291 16.0612 12.1291 16.0612H11.2048C11.2048 16.0612 9.16484 16.184 7.36753 14.3132C5.40876 12.2722 3.67815 8.22416 3.67815 8.22416C3.67815 8.22416 3.57857 7.95925 3.68685 7.83066C3.80867 7.68661 4.14029 7.67694 4.14029 7.67694L6.35044 7.6634C6.35044 7.6634 6.55927 7.69821 6.70816 7.80746C6.83094 7.89737 6.89959 8.0656 6.89959 8.0656C6.89959 8.0656 7.25731 8.96957 7.73008 9.78653C8.65339 11.3827 9.08363 11.7318 9.39784 11.5606C9.85515 11.3112 9.71786 9.30506 9.71786 9.30506C9.71786 9.30506 9.72656 8.57608 9.48776 8.2522C9.30309 8.00082 8.95504 7.92734 8.80132 7.90704C8.6766 7.89061 8.8806 7.60153 9.1455 7.47197C9.54287 7.27764 10.2457 7.26604 11.0753 7.27474C11.7221 7.28151 11.9077 7.32212 12.161 7.38303C12.7477 7.5245 12.7295 7.9785 12.6901 8.95835C12.6784 9.25078 12.6647 9.59005 12.6647 9.98183C12.6647 10.0702 12.6621 10.1645 12.6595 10.2615C12.6457 10.7628 12.6299 11.337 12.9596 11.55C13.1288 11.6593 13.5436 11.5664 14.579 9.8078C15.0702 8.97441 15.4385 7.99405 15.4385 7.99405C15.4385 7.99405 15.5188 7.82003 15.6435 7.74462C15.7721 7.66824 15.9442 7.69144 15.9442 7.69144L18.2684 7.67791C18.2684 7.67791 18.9674 7.59476 19.0805 7.90994C19.1994 8.24059 18.8195 9.01405 17.8691 10.2806C16.9666 11.4834 16.5279 11.9252 16.569 12.3166C16.5989 12.6019 16.8839 12.8605 17.4302 13.3676C18.5789 14.4338 18.8829 14.9918 18.9539 15.1221Z" fill="url(#paint0_linear_5077_1506)"/>
<defs>
<linearGradient id="paint0_linear_5077_1506" x1="19.443" y1="-16.2162" x2="1.64621" y2="-10.9429" gradientUnits="userSpaceOnUse">
<stop stop-color="#0B96B4"/>
<stop offset="1" stop-color="#551DB0"/>
</linearGradient>
</defs>
</svg>
