<svg width="182" height="31" viewBox="0 0 182 31" fill="none" xmlns="http://www.w3.org/2000/svg">
<path d="M4.30998 3.83956V25.8028H0V3.83956H4.30998Z" fill="white"/>
<path d="M26.9472 25.8028H22.6372L12.8782 10.7306V25.8028H8.56824V3.80809H12.8782L22.6372 18.9118V3.80809H26.9472V25.8028Z" fill="white"/>
<path d="M30.1597 14.7897C30.1597 12.6291 30.6318 10.6991 31.5759 8.99998C32.5405 7.27984 33.8437 5.94778 35.4856 5.0038C37.1481 4.03884 39.0055 3.55636 41.0578 3.55636C43.4591 3.55636 45.5628 4.18569 47.3689 5.44433C49.175 6.70297 50.4372 8.44409 51.1555 10.6677H46.199C45.7064 9.61882 45.0086 8.83217 44.1056 8.30773C43.2231 7.7833 42.1969 7.52108 41.027 7.52108C39.7751 7.52108 38.6566 7.82525 37.6714 8.43359C36.7068 9.02096 35.9474 9.86005 35.3933 10.9509C34.8597 12.0417 34.5929 13.3213 34.5929 14.7897C34.5929 16.2372 34.8597 17.5168 35.3933 18.6286C35.9474 19.7194 36.7068 20.569 37.6714 21.1773C38.6566 21.7647 39.7751 22.0584 41.027 22.0584C42.1969 22.0584 43.2231 21.7962 44.1056 21.2717C45.0086 20.7263 45.7064 19.9292 46.199 18.8803H51.1555C50.4372 21.1249 49.175 22.8765 47.3689 24.1351C45.5833 25.3728 43.4796 25.9916 41.0578 25.9916C39.0055 25.9916 37.1481 25.5196 35.4856 24.5757C33.8437 23.6107 32.5405 22.2786 31.5759 20.5795C30.6318 18.8803 30.1597 16.9504 30.1597 14.7897Z" fill="white"/>
<path d="M65.6172 1.94497C65.4733 2.07801 65.3276 2.20923 65.1856 2.3444C64.1424 3.337 63.403 4.53544 62.9157 5.90331C62.5648 6.88816 62.3518 7.89958 62.298 8.95194C62.1991 10.8836 62.6176 12.6849 63.5303 14.3672C64.3748 15.9236 65.5596 17.1493 67.0346 18.0716C68.2061 18.8042 69.4745 19.2908 70.8388 19.4625C71.4801 19.5432 72.1317 19.5802 72.7776 19.5696C74.0152 19.5492 75.2061 19.263 76.3469 18.7682C77.7104 18.1768 78.8931 17.3179 79.891 16.1936C81.1045 14.8264 81.8848 13.2305 82.26 11.4207C82.4021 10.7353 82.4652 10.0412 82.4594 9.34382C82.4495 8.15773 82.237 7.0062 81.8297 5.89454C81.816 5.85714 81.8086 5.81729 81.832 5.75516C82.0473 6.00937 82.2701 6.25735 82.4768 6.51883C83.5674 7.8988 84.395 9.42907 84.9321 11.1216C85.2788 12.2141 85.5087 13.3307 85.5953 14.4796C85.8001 17.1974 85.2944 19.7688 84.0986 22.1946C83.5548 23.2978 82.8756 24.3096 82.0703 25.2332C80.7972 26.6932 79.314 27.8628 77.5987 28.7188C76.2207 29.4065 74.775 29.8624 73.257 30.0876C72.2948 30.2303 71.3289 30.2683 70.3632 30.2169C68.5579 30.1209 66.8263 29.6922 65.1705 28.933C63.8219 28.3148 62.595 27.5046 61.4891 26.5057C60.3051 25.4363 59.3196 24.1931 58.5348 22.7845C57.7292 21.3387 57.1846 19.7921 56.9033 18.1544C56.791 17.5005 56.7426 16.8318 56.708 16.1674C56.613 14.34 56.8956 12.5645 57.4948 10.8462C57.7231 10.1915 58.0146 9.56021 58.2773 8.91823C58.2963 8.92358 58.3152 8.92893 58.3342 8.93428C58.3228 9.09573 58.3148 9.25751 58.2996 9.41858C58.2141 10.3268 58.298 11.223 58.4832 12.111C58.7028 13.1648 59.0661 14.1617 59.6564 15.0569C59.8534 15.3557 60.1041 15.6169 60.3432 15.9058C60.3624 15.9251 60.3686 15.934 60.3748 15.943C60.3709 15.9258 60.3669 15.9085 60.3629 15.8913C60.2489 15.5287 60.1292 15.1678 60.0217 14.8031C59.6708 13.6123 59.5489 12.3903 59.6239 11.1539C59.743 9.19212 60.3136 7.37436 61.3603 5.72367C62.3846 4.10817 63.7245 2.85267 65.4089 1.99484C65.4614 1.96807 65.5168 1.94706 65.5889 1.92769C65.607 1.93201 65.6172 1.94497 65.6172 1.94497Z" fill="url(#paint0_linear_426_3892)" fill-opacity="0.57"/>
<path d="M65.6195 1.94167C65.4771 2.07661 64.6256 2.88093 64.4852 3.01797C63.5103 4.0395 62.7757 5.40083 62.3044 6.77508C61.965 7.7645 61.8891 8.77825 61.8476 9.83125C61.7712 11.7641 62.2107 13.5597 63.1429 15.2297C64.0055 16.7749 65.2045 17.9847 66.6901 18.8874C67.8702 19.6044 69.1441 20.0742 70.5103 20.2277C71.1525 20.2999 71.8044 20.3282 72.4501 20.3091C73.6874 20.2723 74.8749 19.9703 76.0098 19.4604C77.3663 18.8509 78.5719 18.024 79.5566 16.8866C80.7974 15.5367 81.7381 13.9411 82.0922 12.1265C82.2263 11.4392 82.4437 10.6173 82.4297 9.92007C82.406 8.7342 82.3377 7.23393 81.9175 6.12776C81.9034 6.09054 81.7582 5.76317 81.8291 5.7449C82.0474 5.99623 82.5048 6.56154 82.7145 6.82026C83.8212 8.18567 84.459 9.69226 85.0158 11.3775C85.3752 12.4654 85.5817 13.857 85.6167 15.0057C85.8532 17.7206 85.1361 20.2389 83.8949 22.6463C83.3639 23.7567 82.6026 24.9148 81.8081 25.849C80.5522 27.3258 79.0827 28.5149 77.3775 29.3937C76.0077 30.0997 74.5674 30.5746 73.0522 30.82C72.0917 30.9755 71.1264 31.0262 70.1601 30.9877C68.3538 30.9156 66.6174 30.5099 64.9528 29.7728C63.5972 29.1724 62.361 28.3786 61.2435 27.3945C60.0471 26.3408 59.0472 25.1108 58.246 23.7127C57.4236 22.2778 56.8611 20.7385 56.5607 19.1046C56.4407 18.4522 56.3845 17.7842 56.3422 17.1204C56.226 15.2944 56.4878 13.5152 57.0669 11.7891C57.2875 11.1314 57.6 10.5116 57.8552 9.8662C57.8742 9.87129 57.8649 9.86108 57.8839 9.86618C57.8745 10.0278 57.8683 10.1896 57.855 10.3509C57.7801 11.2602 57.8744 12.1552 58.0699 13.0407C58.3019 14.0915 58.6767 15.0835 59.2774 15.9708C59.4779 16.2669 59.7316 16.5249 59.9741 16.8105C59.9935 16.8296 59.9998 16.8384 60.0061 16.8473C60.0019 16.8301 59.9978 16.813 59.9936 16.7958C59.8753 16.4347 59.7514 16.0754 59.6397 15.7122C59.275 14.5261 59.1388 13.3058 59.1994 12.0685C59.2956 10.1053 59.842 8.23964 60.8693 6.57518C61.7382 4.91553 62.8194 3.72985 63.9537 2.89058C64.0246 2.83585 64.45 2.48922 65.1942 2.10597C65.6196 1.8505 65.6195 1.94167 65.6195 1.94167Z" fill="url(#paint1_linear_426_3892)"/>
<path d="M66.6203 3.89481C66.2192 4.83242 65.9604 5.79147 65.9513 6.81103C65.9285 9.37564 66.9127 11.4342 68.9054 12.9692C70.0354 13.8397 71.3262 14.2954 72.7294 14.4001C73.3824 14.4487 74.0319 14.3987 74.6798 14.2695C75.7031 14.0655 76.649 13.6746 77.5002 13.0659C79.1162 11.9101 80.1454 10.3353 80.5595 8.35185C80.7337 7.51729 80.7608 6.67006 80.656 5.81797C80.7855 6.29798 80.9513 6.77122 81.0371 7.25936C81.2351 8.3867 81.2119 9.53107 80.9693 10.6388C80.5344 12.6248 79.4262 14.2122 77.9155 15.5298C77.1793 16.1719 76.435 16.6289 75.5414 16.9885C74.4104 17.4435 73.2176 17.5334 71.9979 17.499C70.4288 17.4547 69.0109 16.9543 67.6749 16.1133C66.1803 15.1724 65.2327 14.0079 64.5212 12.3572C63.516 10.0256 63.4563 7.84767 64.4149 5.50153C65.0792 3.87532 66.0533 2.56657 67.4709 1.57599C68.1213 1.1215 68.8172 0.753282 69.5685 0.503951C69.5963 0.494719 69.6248 0.487697 69.6612 0.489724C68.3173 1.30867 67.3 2.4339 66.6203 3.89481Z" fill="url(#paint2_linear_426_3892)"/>
<path d="M69.0277 1.94134C68.2973 2.63755 67.6894 3.41168 67.2872 4.3435C66.2756 6.68741 66.3834 8.97891 67.6189 11.2027C68.3196 12.4637 69.3279 13.41 70.575 14.0801C71.1554 14.392 71.7707 14.6118 72.4151 14.7583C73.4328 14.9898 74.4518 15.0181 75.468 14.8077C77.3973 14.4084 78.9501 13.3844 80.0962 11.7339C80.5785 11.0394 80.9306 10.2731 81.1636 9.44834C81.097 9.94176 81.0664 10.4439 80.9565 10.9268C80.7026 12.0423 80.2465 13.0727 79.5888 14C78.4225 15.6444 76.8885 16.7567 74.9933 17.3477C74.0697 17.6357 73.1257 17.7585 72.1668 17.7228C70.9533 17.6776 69.7876 17.4013 68.6817 16.8706C67.259 16.188 66.0914 15.1891 65.1904 13.8708C64.1825 12.3961 63.6497 10.7499 63.6344 8.94416C63.6128 6.39345 64.5183 4.23264 66.3041 2.47201C67.542 1.25165 69.0205 0.490608 70.7039 0.161633C71.4762 0.0106927 72.257 -0.0424742 73.0427 0.0361157C73.0718 0.039026 73.1007 0.0442474 73.1333 0.0610188C71.5838 0.262615 70.2157 0.878913 69.0277 1.94134Z" fill="url(#paint3_linear_426_3892)"/>
<path d="M68.4192 8.84109C68.564 8.91721 68.7124 8.98702 68.8532 9.07049C69.6955 9.56998 70.5959 9.90846 71.5588 10.0351C72.8633 10.2067 74.1343 10.0465 75.3459 9.50381C77.141 8.69978 78.4937 7.39758 79.3381 5.58136C79.4496 5.34153 79.521 5.18385 79.6165 4.93609C79.7121 4.68832 79.792 4.44086 79.8469 4.40733C79.9076 4.73745 79.9532 5.08195 79.9532 5.75658C79.8469 7.47051 79.5988 8.60097 78.4472 10.0414C77.4165 11.1716 76.2481 11.9168 74.7803 12.1459C74.3523 12.2127 73.9093 12.2571 73.4801 12.2223C72.176 12.1167 70.9882 11.675 69.9626 10.813C69.3184 10.2716 68.7998 9.62892 68.4203 8.85379C68.4195 8.84073 68.4192 8.84109 68.4192 8.84109Z" fill="#AA68D2"/>
<path d="M69.2111 9.31153C69.3694 9.3499 69.5297 9.38127 69.6858 9.42777C70.6195 9.70608 71.5724 9.81378 72.5369 9.70041C73.8435 9.54684 75.0406 9.0793 76.0915 8.25482C77.6484 7.03335 78.6582 5.44673 79.0594 3.46561C79.1121 3.20534 79.1304 2.93773 79.1658 2.67367C79.1709 2.6355 79.1819 2.59818 79.2274 2.55215C79.3629 2.85784 79.5291 3.15333 79.6287 3.47094C80.1229 5.04667 80.0224 6.58304 79.278 8.05958C78.5896 9.4253 77.5269 10.3767 76.1546 10.9595C75.7544 11.1295 75.3346 11.2813 74.9097 11.3529C73.6187 11.5704 72.3628 11.4331 71.167 10.8477C70.416 10.4801 69.7633 9.98319 69.2151 9.3236C69.2113 9.3111 69.2111 9.31153 69.2111 9.31153Z" fill="url(#paint4_linear_426_3892)"/>
<path d="M98.6765 26.0231C97.1783 26.0231 95.8237 25.7609 94.6128 25.2364C93.4224 24.712 92.4783 23.9568 91.7805 22.9709C91.0827 21.985 90.7236 20.8207 90.703 19.4782H95.3209C95.3824 20.3802 95.6903 21.0934 96.2444 21.6179C96.8191 22.1423 97.599 22.4045 98.5841 22.4045C99.5898 22.4045 100.38 22.1633 100.955 21.6808C101.529 21.1773 101.817 20.527 101.817 19.7299C101.817 19.0796 101.622 18.5447 101.232 18.1251C100.842 17.7056 100.349 17.3804 99.754 17.1497C99.1793 16.898 98.3789 16.6252 97.3527 16.3316C95.9571 15.912 94.818 15.503 93.9355 15.1044C93.0735 14.6848 92.3244 14.066 91.6882 13.2479C91.0725 12.4088 90.7646 11.297 90.7646 9.9125C90.7646 8.6119 91.0827 7.47913 91.719 6.51417C92.3552 5.54921 93.248 4.815 94.3973 4.31155C95.5466 3.78712 96.8602 3.5249 98.3379 3.5249C100.554 3.5249 102.35 4.0808 103.725 5.1926C105.121 6.28342 105.891 7.81476 106.034 9.78663H101.293C101.252 9.03145 100.934 8.41262 100.339 7.93014C99.7643 7.42668 98.9946 7.17496 98.03 7.17496C97.1885 7.17496 96.5112 7.39522 95.9982 7.83574C95.5056 8.27627 95.2593 8.91607 95.2593 9.75517C95.2593 10.3425 95.444 10.8355 95.8134 11.2341C96.2034 11.6117 96.6754 11.9263 97.2296 12.1781C97.8042 12.4088 98.6047 12.6815 99.6308 12.9962C101.026 13.4157 102.166 13.8353 103.048 14.2548C103.931 14.6744 104.69 15.3037 105.326 16.1428C105.962 16.9819 106.281 18.0832 106.281 19.4467C106.281 20.6214 105.983 21.7123 105.388 22.7192C104.793 23.7261 103.92 24.5337 102.771 25.142C101.622 25.7294 100.257 26.0231 98.6765 26.0231Z" fill="white"/>
<path d="M125.687 10.6362C125.687 11.8109 125.41 12.9123 124.856 13.9401C124.322 14.968 123.47 15.7966 122.301 16.426C121.151 17.0553 119.694 17.3699 117.929 17.3699H114.327V25.8028H110.017V3.83956H117.929C119.591 3.83956 121.008 4.13324 122.177 4.72061C123.347 5.30797 124.22 6.1156 124.794 7.14349C125.389 8.17138 125.687 9.33562 125.687 10.6362ZM117.744 13.8143C118.935 13.8143 119.817 13.5416 120.392 12.9962C120.967 12.4298 121.254 11.6431 121.254 10.6362C121.254 8.49653 120.084 7.42668 117.744 7.42668H114.327V13.8143H117.744Z" fill="white"/>
<path d="M133.057 22.3101H140.138V25.8028H128.747V3.83956H133.057V22.3101Z" fill="white"/>
<path d="M156.053 21.6179H147.495L146.079 25.8028H141.553L149.281 3.80809H154.299L162.026 25.8028H157.469L156.053 21.6179ZM154.883 18.0937L151.774 8.90559L148.665 18.0937H154.883Z" fill="white"/>
<path d="M182 3.83956L174.735 18.1566V25.8028H170.425V18.1566L163.128 3.83956H167.993L172.61 13.8772L177.197 3.83956H182Z" fill="white"/>
<defs>
<linearGradient id="paint0_linear_426_3892" x1="39.0962" y1="0.678811" x2="40.9153" y2="33.7545" gradientUnits="userSpaceOnUse">
<stop offset="0.366762" stop-color="#FE9063"/>
<stop offset="1" stop-color="#3508F7"/>
</linearGradient>
<linearGradient id="paint1_linear_426_3892" x1="10.8418" y1="2.95746" x2="13.9513" y2="37.8635" gradientUnits="userSpaceOnUse">
<stop offset="0.458333" stop-color="#704FFE"/>
<stop offset="1" stop-color="#AA68D2"/>
</linearGradient>
<linearGradient id="paint2_linear_426_3892" x1="91" y1="0" x2="91" y2="31" gradientUnits="userSpaceOnUse">
<stop offset="0.682292" stop-color="#AA68D2" stop-opacity="0.49"/>
<stop offset="1" stop-color="#704FFE" stop-opacity="0.57"/>
</linearGradient>
<linearGradient id="paint3_linear_426_3892" x1="91" y1="0" x2="91" y2="31" gradientUnits="userSpaceOnUse">
<stop stop-color="#AA68D2"/>
<stop offset="1" stop-color="#704FFE"/>
</linearGradient>
<linearGradient id="paint4_linear_426_3892" x1="91" y1="0" x2="91" y2="31" gradientUnits="userSpaceOnUse">
<stop stop-color="#704FFE"/>
<stop offset="1" stop-color="#704FFE" stop-opacity="0"/>
</linearGradient>
</defs>
</svg>
