<svg width="242" height="74" viewBox="0 0 242 74" fill="none" xmlns="http://www.w3.org/2000/svg">
<path d="M0.585938 52H6.7793V22.4072H0.585938V52ZM11.7012 52H17.874V32.6201H20.4785L15.29 28.7031L31.4092 52H36.7822V22.4072H30.6094V41.6436H28.0254L33.2139 45.5605L17.1152 22.4072H11.7012V52ZM54.8906 52.5127C57.2832 52.5127 59.416 52.0547 61.2891 51.1387C63.1621 50.209 64.666 48.9307 65.8008 47.3037C66.9492 45.6768 67.6191 43.8174 67.8105 41.7256L67.8311 41.5H61.8018L61.7607 41.7051C61.501 42.8809 61.0566 43.8857 60.4277 44.7197C59.7988 45.54 59.0127 46.1689 58.0693 46.6064C57.1396 47.0439 56.0801 47.2627 54.8906 47.2627C53.3184 47.2627 51.9443 46.8594 50.7686 46.0527C49.6064 45.2324 48.7041 44.0703 48.0615 42.5664C47.4326 41.0488 47.1182 39.251 47.1182 37.1729V37.1523C47.1182 35.0879 47.4326 33.3105 48.0615 31.8203C48.7041 30.3164 49.6064 29.1611 50.7686 28.3545C51.9307 27.5479 53.3047 27.1445 54.8906 27.1445C56.1211 27.1445 57.2012 27.3701 58.1309 27.8213C59.0742 28.2588 59.8467 28.8809 60.4482 29.6875C61.0498 30.4941 61.4668 31.4443 61.6992 32.5381L61.7812 32.8867H67.8105L67.79 32.7021C67.5986 30.5967 66.9355 28.7373 65.8008 27.124C64.666 25.4971 63.1621 24.2188 61.2891 23.2891C59.416 22.3594 57.2832 21.8945 54.8906 21.8945C52.0059 21.8945 49.5107 22.5098 47.4053 23.7402C45.2998 24.957 43.6729 26.707 42.5244 28.9902C41.376 31.2598 40.8018 33.9873 40.8018 37.1729V37.1934C40.8018 40.3652 41.3691 43.0996 42.5039 45.3965C43.6523 47.6797 45.2793 49.4365 47.3848 50.667C49.5039 51.8975 52.0059 52.5127 54.8906 52.5127Z" fill="#1C1C1C"/>
<path d="M85.1657 21.2993C84.9826 21.4649 84.7975 21.6281 84.6168 21.7963C83.2903 23.0312 82.3501 24.5222 81.7303 26.2241C81.2841 27.4494 81.0133 28.7077 80.9448 30.017C80.8191 32.4203 81.3512 34.6614 82.5119 36.7543C83.5857 38.6907 85.0924 40.2156 86.9681 41.3631C88.4579 42.2746 90.0708 42.88 91.8057 43.0936C92.6212 43.194 93.4498 43.24 94.2711 43.2268C95.8449 43.2015 97.3593 42.8454 98.81 42.2298C100.544 41.494 102.048 40.4254 103.317 39.0267C104.86 37.3256 105.852 35.3401 106.329 33.0885C106.51 32.2357 106.59 31.3721 106.583 30.5045C106.57 29.0289 106.3 27.5962 105.782 26.2132C105.765 26.1666 105.755 26.117 105.785 26.0397C106.059 26.356 106.342 26.6645 106.605 26.9899C107.992 28.7067 109.044 30.6106 109.727 32.7164C110.168 34.0756 110.461 35.4648 110.571 36.8942C110.831 40.2755 110.188 43.4746 108.667 46.4927C107.976 47.8653 107.112 49.1241 106.088 50.2731C104.469 52.0897 102.583 53.5447 100.402 54.6098C98.6495 55.4654 96.8111 56.0325 94.8808 56.3127C93.6572 56.4903 92.4289 56.5375 91.2008 56.4736C88.9052 56.3541 86.7032 55.8208 84.5976 54.8763C82.8827 54.1071 81.3226 53.0991 79.9162 51.8563C78.4106 50.5258 77.1574 48.9791 76.1594 47.2266C75.135 45.4279 74.4425 43.5037 74.0847 41.4662C73.9419 40.6526 73.8803 39.8206 73.8364 38.9941C73.7156 36.7205 74.075 34.5115 74.8369 32.3738C75.1272 31.5592 75.4979 30.7738 75.832 29.9751C75.8561 29.9817 75.8802 29.9884 75.9043 29.995C75.8899 30.1959 75.8796 30.3972 75.8603 30.5976C75.7516 31.7275 75.8583 32.8425 76.0937 33.9474C76.3731 35.2583 76.8351 36.4987 77.5857 37.6124C77.8362 37.9841 78.155 38.3092 78.459 38.6685C78.4834 38.6926 78.4913 38.7037 78.4992 38.7148C78.4942 38.6934 78.4892 38.672 78.4841 38.6505C78.3391 38.1994 78.1869 37.7504 78.0502 37.2967C77.6041 35.8152 77.449 34.2948 77.5444 32.7565C77.6958 30.3158 78.4214 28.0543 79.7524 26.0006C81.055 23.9907 82.7589 22.4286 84.9008 21.3614C84.9676 21.3281 85.038 21.3019 85.1297 21.2778C85.1527 21.2832 85.1657 21.2993 85.1657 21.2993Z" fill="url(#paint0_linear_903_464)" fill-opacity="0.57"/>
<path d="M85.1688 21.295C84.9877 21.4629 83.9049 22.4636 83.7263 22.6341C82.4866 23.905 81.5525 25.5987 80.9531 27.3084C80.5215 28.5394 80.4251 29.8007 80.3722 31.1108C80.2751 33.5155 80.834 35.7495 82.0195 37.8272C83.1163 39.7496 84.6411 41.2548 86.5302 42.3779C88.0308 43.2699 89.6508 43.8544 91.3881 44.0454C92.2047 44.1353 93.0338 44.1705 93.8549 44.1466C95.4282 44.1009 96.9383 43.7252 98.3815 43.0908C100.106 42.3325 101.64 41.3037 102.892 39.8886C104.47 38.2092 105.666 36.224 106.116 33.9663C106.287 33.1113 106.563 32.0887 106.545 31.2213C106.515 29.7459 106.428 27.8793 105.894 26.5031C105.876 26.4568 105.691 26.0495 105.782 26.0268C106.059 26.3394 106.641 27.0428 106.907 27.3647C108.315 29.0634 109.126 30.9378 109.834 33.0346C110.291 34.388 110.554 36.1194 110.598 37.5485C110.899 40.9262 109.987 44.0594 108.408 47.0545C107.733 48.4359 106.765 49.8768 105.755 51.039C104.158 52.8765 102.289 54.3559 100.121 55.4492C98.3788 56.3275 96.5473 56.9184 94.6205 57.2237C93.3991 57.4171 92.1715 57.4803 90.9428 57.4323C88.6459 57.3426 86.4378 56.838 84.321 55.9208C82.5971 55.1739 81.0251 54.1863 79.604 52.9619C78.0827 51.651 76.8112 50.1206 75.7923 48.3812C74.7466 46.5959 74.0312 44.6809 73.6492 42.6481C73.4967 41.8365 73.4252 41.0054 73.3714 40.1794C73.2236 37.9076 73.5565 35.6941 74.2929 33.5466C74.5735 32.7284 74.9708 31.9572 75.2954 31.1542C75.3195 31.1606 75.3077 31.1479 75.3319 31.1542C75.3198 31.3552 75.312 31.5566 75.2951 31.7573C75.1999 32.8885 75.3198 34.0021 75.5684 35.1038C75.8634 36.4111 76.3401 37.6453 77.1039 38.7492C77.3588 39.1177 77.6815 39.4385 77.9898 39.7939C78.0145 39.8177 78.0225 39.8287 78.0305 39.8397C78.0252 39.8183 78.02 39.797 78.0147 39.7756C77.8642 39.3264 77.7067 38.8794 77.5647 38.4275C77.1009 36.9518 76.9277 35.4336 77.0047 33.8942C77.127 31.4517 77.8219 29.1306 79.1283 27.0597C80.2331 24.9949 81.6081 23.5197 83.0505 22.4756C83.1406 22.4075 83.6815 21.9762 84.628 21.4994C85.1688 21.1816 85.1688 21.295 85.1688 21.295Z" fill="url(#paint1_linear_903_464)"/>
<path d="M86.4414 23.7246C85.9313 24.8911 85.6022 26.0843 85.5907 27.3528C85.5617 30.5435 86.8132 33.1046 89.3472 35.0144C90.7842 36.0974 92.4256 36.6644 94.2099 36.7946C95.0404 36.8552 95.8664 36.7929 96.6902 36.6322C97.9914 36.3784 99.1943 35.8921 100.277 35.1347C102.332 33.6967 103.641 31.7374 104.167 29.2698C104.389 28.2315 104.423 27.1774 104.29 26.1173C104.454 26.7145 104.665 27.3032 104.774 27.9106C105.026 29.3131 104.997 30.7369 104.688 32.115C104.135 34.586 102.726 36.5609 100.805 38.2002C99.8687 38.9991 98.9222 39.5676 97.7858 40.0149C96.3477 40.5811 94.8308 40.6929 93.2798 40.6501C91.2845 40.595 89.4813 39.9724 87.7824 38.9261C85.8818 37.7555 84.6769 36.3067 83.7721 34.253C82.4939 31.3521 82.418 28.6425 83.6369 25.7236C84.4817 23.7003 85.7204 22.0721 87.5231 20.8396C88.3501 20.2742 89.235 19.8161 90.1904 19.5059C90.2258 19.4944 90.262 19.4857 90.3084 19.4882C88.5993 20.5071 87.3057 21.907 86.4414 23.7246Z" fill="url(#paint2_linear_903_464)"/>
<path d="M89.5023 21.2948C88.5736 22.161 87.8006 23.1241 87.2891 24.2834C86.0027 27.1996 86.1398 30.0505 87.7109 32.8172C88.6019 34.3861 89.8841 35.5634 91.47 36.3971C92.208 36.7851 92.9905 37.0586 93.81 37.2409C95.1041 37.5288 96.3999 37.5641 97.6921 37.3024C100.145 36.8055 102.12 35.5316 103.578 33.4781C104.191 32.614 104.639 31.6606 104.935 30.6345C104.85 31.2484 104.811 31.8731 104.671 32.474C104.349 33.8617 103.769 35.1437 102.932 36.2974C101.449 38.3434 99.4985 39.7272 97.0885 40.4625C95.914 40.8208 94.7135 40.9735 93.4942 40.9291C91.9511 40.8729 90.4687 40.5291 89.0624 39.8689C87.2533 39.0197 85.7685 37.7769 84.6228 36.1368C83.341 34.3019 82.6635 32.2539 82.644 30.0073C82.6166 26.8338 83.7681 24.1455 86.039 21.955C87.6131 20.4367 89.4932 19.4899 91.6339 19.0806C92.6161 18.8928 93.6089 18.8266 94.608 18.9244C94.645 18.928 94.6817 18.9345 94.7233 18.9554C92.7528 19.2062 91.013 19.973 89.5023 21.2948Z" fill="url(#paint3_linear_903_464)"/>
<path d="M88.7285 29.8785C88.9127 29.9732 89.1014 30.0601 89.2804 30.1639C90.3516 30.7854 91.4965 31.2065 92.7211 31.3641C94.3799 31.5776 95.9961 31.3783 97.5369 30.7031C99.8196 29.7027 101.54 28.0826 102.613 25.823C102.755 25.5246 102.846 25.3284 102.968 25.0202C103.089 24.7119 103.191 24.404 103.26 24.3623C103.338 24.773 103.396 25.2016 103.396 26.041C103.26 28.1733 102.945 29.5798 101.481 31.3719C100.17 32.778 98.6841 33.7052 96.8176 33.9902C96.2733 34.0733 95.7101 34.1285 95.1642 34.0853C93.5059 33.9538 91.9954 33.4044 90.6912 32.3319C89.8721 31.6583 89.2125 30.8587 88.7299 29.8943C88.7289 29.8781 88.7285 29.8785 88.7285 29.8785Z" fill="#AA68D2"/>
<path d="M89.7364 30.4639C89.9378 30.5116 90.1416 30.5506 90.34 30.6085C91.5275 30.9548 92.7391 31.0888 93.9657 30.9477C95.6271 30.7566 97.1495 30.175 98.4859 29.1492C100.466 27.6295 101.75 25.6555 102.26 23.1907C102.327 22.8669 102.35 22.534 102.395 22.2055C102.402 22.158 102.416 22.1115 102.474 22.0543C102.646 22.4346 102.857 22.8022 102.984 23.1974C103.612 25.1578 103.484 27.0693 102.538 28.9063C101.662 30.6054 100.311 31.7891 98.5661 32.5142C98.0572 32.7257 97.5233 32.9145 96.9829 33.0036C95.3413 33.2742 93.7443 33.1034 92.2236 32.3751C91.2686 31.9177 90.4387 31.2995 89.7415 30.4789C89.7367 30.4634 89.7364 30.4639 89.7364 30.4639Z" fill="url(#paint4_linear_903_464)"/>
<path d="M127.144 52.5127C129.632 52.5127 131.765 52.1367 133.542 51.3848C135.333 50.6191 136.7 49.5459 137.644 48.165C138.601 46.7705 139.079 45.123 139.079 43.2227V43.2021C139.079 41.6572 138.758 40.3379 138.115 39.2441C137.486 38.1367 136.509 37.2207 135.183 36.4961C133.856 35.7715 132.161 35.2041 130.097 34.7939L126.959 34.1582C125.264 33.8164 124.02 33.3584 123.227 32.7842C122.434 32.21 122.037 31.458 122.037 30.5283V30.5078C122.037 29.7969 122.235 29.1748 122.632 28.6416C123.042 28.1084 123.63 27.6914 124.396 27.3906C125.161 27.0762 126.07 26.9189 127.123 26.9189C128.148 26.9189 129.051 27.0693 129.83 27.3701C130.623 27.6709 131.259 28.1016 131.737 28.6621C132.216 29.209 132.51 29.8721 132.619 30.6514L132.64 30.8975H138.484L138.464 30.5078C138.368 28.7852 137.855 27.2744 136.926 25.9756C135.996 24.6768 134.697 23.6719 133.029 22.9609C131.375 22.25 129.406 21.8945 127.123 21.8945C124.936 21.8945 122.994 22.2705 121.299 23.0225C119.604 23.7607 118.271 24.8066 117.3 26.1602C116.329 27.5 115.844 29.0723 115.844 30.877V30.8975C115.844 33.126 116.582 34.9375 118.059 36.332C119.535 37.7266 121.729 38.7178 124.642 39.3057L127.759 39.9209C129.604 40.3037 130.917 40.7822 131.696 41.3564C132.489 41.917 132.886 42.6963 132.886 43.6943V43.7148C132.886 44.4668 132.653 45.1299 132.188 45.7041C131.737 46.2646 131.095 46.7021 130.261 47.0166C129.44 47.3174 128.456 47.4678 127.308 47.4678C126.187 47.4678 125.182 47.3174 124.293 47.0166C123.404 46.7021 122.68 46.2715 122.119 45.7246C121.572 45.1641 121.23 44.501 121.094 43.7354L121.053 43.5098H115.208L115.229 43.8379C115.352 45.6562 115.912 47.2148 116.91 48.5137C117.908 49.7988 119.275 50.79 121.012 51.4873C122.762 52.1709 124.806 52.5127 127.144 52.5127ZM145.99 42.6689H154.768C156.846 42.6689 158.664 42.252 160.223 41.418C161.781 40.584 162.991 39.4082 163.853 37.8906C164.728 36.373 165.165 34.5957 165.165 32.5586V32.5176C165.165 30.4941 164.728 28.7236 163.853 27.2061C162.991 25.6885 161.781 24.5127 160.223 23.6787C158.664 22.8311 156.846 22.4072 154.768 22.4072H145.99V27.3086H153.25C155.027 27.3086 156.408 27.7598 157.393 28.6621C158.391 29.5645 158.89 30.8564 158.89 32.5381V32.5791C158.89 34.2607 158.391 35.5596 157.393 36.4756C156.408 37.3779 155.027 37.8291 153.25 37.8291H145.99V42.6689ZM142.873 52H149.066V22.4072H142.873V52ZM168.836 52H187.97V46.8936H175.029V22.4072H168.836V52ZM189.754 52H196.255L203.658 28.1494H205.545V22.4072H200.09L189.754 52ZM195.312 44.8223H212.148L210.631 40.1875H196.829L195.312 44.8223ZM211.185 52H217.686L207.37 22.4072H203.781V28.1494L211.185 52ZM225.027 52H231.221V40.9463L241.536 22.4072H234.83L228.206 35.04H228.062L221.418 22.4072H214.732L225.027 40.9463V52Z" fill="#1C1C1C"/>
<defs>
<linearGradient id="paint0_linear_903_464" x1="81.7216" y1="22.0491" x2="92.3522" y2="56.4599" gradientUnits="userSpaceOnUse">
<stop offset="0.366762" stop-color="#FE9063"/>
<stop offset="1" stop-color="#3508F7"/>
</linearGradient>
<linearGradient id="paint1_linear_903_464" x1="75.3893" y1="24.861" x2="92.4151" y2="57.3386" gradientUnits="userSpaceOnUse">
<stop offset="0.458333" stop-color="#704FFE"/>
<stop offset="1" stop-color="#AA68D2"/>
</linearGradient>
<linearGradient id="paint2_linear_903_464" x1="90.9628" y1="19.2895" x2="96.8414" y2="40.3231" gradientUnits="userSpaceOnUse">
<stop offset="0.682292" stop-color="#AA68D2" stop-opacity="0.49"/>
<stop offset="1" stop-color="#704FFE" stop-opacity="0.57"/>
</linearGradient>
<linearGradient id="paint3_linear_903_464" x1="95.2931" y1="19.0198" x2="92.243" y2="40.8181" gradientUnits="userSpaceOnUse">
<stop stop-color="#AA68D2"/>
<stop offset="1" stop-color="#704FFE"/>
</linearGradient>
<linearGradient id="paint4_linear_903_464" x1="95.6198" y1="23.7492" x2="97.8587" y2="32.8026" gradientUnits="userSpaceOnUse">
<stop stop-color="#704FFE"/>
<stop offset="1" stop-color="#704FFE" stop-opacity="0"/>
</linearGradient>
</defs>
</svg>
