<svg width="457" height="139" viewBox="0 0 457 139" fill="none" xmlns="http://www.w3.org/2000/svg">
<path d="M12.48 69.4C12.48 74.456 13.568 78.968 15.744 82.936C17.984 86.904 21.024 90.04 24.864 92.344C28.704 94.648 33.056 95.8 37.92 95.8C42.848 95.8 47.2 94.648 50.976 92.344C54.816 90.04 57.824 86.904 60 82.936C62.24 78.968 63.36 74.456 63.36 69.4C63.36 64.344 62.24 59.832 60 55.864C57.824 51.896 54.816 48.76 50.976 46.456C47.2 44.152 42.848 43 37.92 43C33.056 43 28.704 44.152 24.864 46.456C21.024 48.76 17.984 51.896 15.744 55.864C13.568 59.832 12.48 64.344 12.48 69.4ZM3.84 69.4C3.84 64.472 4.672 59.928 6.336 55.768C8.064 51.544 10.464 47.896 13.536 44.824C16.608 41.688 20.224 39.256 24.384 37.528C28.544 35.736 33.056 34.84 37.92 34.84C42.848 34.84 47.36 35.736 51.456 37.528C55.616 39.256 59.232 41.688 62.304 44.824C65.376 47.896 67.744 51.544 69.408 55.768C71.136 59.928 72 64.472 72 69.4C72 74.264 71.136 78.808 69.408 83.032C67.744 87.256 65.376 90.936 62.304 94.072C59.232 97.144 55.616 99.576 51.456 101.368C47.36 103.096 42.848 103.96 37.92 103.96C33.056 103.96 28.544 103.096 24.384 101.368C20.224 99.576 16.608 97.144 13.536 94.072C10.464 90.936 8.064 87.256 6.336 83.032C4.672 78.808 3.84 74.264 3.84 69.4ZM134.404 35.8H142.564V106.36L91.6838 52.984V103H83.5238V32.44L134.404 85.816V35.8ZM162.473 103V95.32H196.361V103H162.473ZM162.473 43.48V35.8H196.361V43.48H162.473ZM162.473 70.36V62.68H194.441V70.36H162.473ZM157.961 35.8H166.121V103H157.961V35.8ZM203.062 115.768V110.488H251.062V115.768H203.062ZM252.023 43.48V35.8H294.743V43.48H277.463V103H269.303V43.48H252.023ZM300.237 82.84L303.117 75.16H332.877L335.757 82.84H300.237ZM317.805 50.968L306.477 77.656L305.709 79.384L295.725 103H286.605L317.805 32.44L349.005 103H339.885L330.093 79.96L329.325 78.04L317.805 50.968ZM359.676 82.648C361.212 85.336 362.812 87.704 364.476 89.752C366.204 91.8 368.124 93.4 370.236 94.552C372.348 95.704 374.748 96.28 377.436 96.28C381.02 96.28 383.9 95.288 386.076 93.304C388.252 91.32 389.34 88.792 389.34 85.72C389.34 82.712 388.636 80.312 387.228 78.52C385.82 76.728 383.964 75.288 381.66 74.2C379.42 73.048 377.02 72.024 374.46 71.128C372.796 70.552 370.94 69.816 368.892 68.92C366.844 67.96 364.892 66.776 363.036 65.368C361.18 63.896 359.644 62.104 358.428 59.992C357.276 57.88 356.7 55.288 356.7 52.216C356.7 48.888 357.532 45.912 359.196 43.288C360.86 40.664 363.164 38.616 366.108 37.144C369.052 35.608 372.412 34.84 376.188 34.84C379.836 34.84 383.004 35.544 385.692 36.952C388.444 38.296 390.78 40.056 392.7 42.232C394.62 44.344 396.124 46.584 397.212 48.952L390.204 52.984C389.372 51.32 388.316 49.688 387.036 48.088C385.756 46.488 384.188 45.176 382.332 44.152C380.54 43.128 378.332 42.616 375.708 42.616C372.06 42.616 369.404 43.512 367.74 45.304C366.076 47.032 365.244 48.984 365.244 51.16C365.244 53.016 365.724 54.744 366.684 56.344C367.644 57.88 369.244 59.352 371.484 60.76C373.788 62.104 376.892 63.448 380.796 64.792C382.588 65.432 384.476 66.264 386.46 67.288C388.444 68.312 390.268 69.624 391.932 71.224C393.66 72.76 395.068 74.648 396.156 76.888C397.244 79.064 397.788 81.688 397.788 84.76C397.788 87.704 397.212 90.36 396.06 92.728C394.972 95.096 393.436 97.112 391.452 98.776C389.532 100.44 387.324 101.72 384.828 102.616C382.396 103.512 379.836 103.96 377.148 103.96C373.5 103.96 370.108 103.192 366.972 101.656C363.9 100.056 361.18 97.976 358.812 95.416C356.508 92.792 354.62 90.008 353.148 87.064L359.676 82.648ZM409.774 35.8H417.934V103H409.774V35.8ZM444.334 35.8H454.414L425.326 67.288L455.854 103H445.774L415.438 67.48L444.334 35.8Z" fill="url(#paint0_linear_5817_2886)"/>
<defs>
<linearGradient id="paint0_linear_5817_2886" x1="526.299" y1="139" x2="-112.377" y2="139" gradientUnits="userSpaceOnUse">
<stop offset="0.225638" stop-color="#6DC576"/>
<stop offset="0.870696" stop-color="#9747FF"/>
</linearGradient>
</defs>
</svg>
