<svg width="431" height="121" viewBox="0 0 431 121" fill="none" xmlns="http://www.w3.org/2000/svg">
<path d="M49.0145 55C53.0811 55.8667 56.3478 57.9 58.8145 61.1C61.2811 64.2333 62.5145 67.8333 62.5145 71.9C62.5145 77.7667 60.4478 82.4333 56.3145 85.9C52.2478 89.3 46.5478 91 39.2145 91H6.51445V20.8H38.1145C45.2478 20.8 50.8145 22.4333 54.8145 25.7C58.8811 28.9667 60.9145 33.4 60.9145 39C60.9145 43.1333 59.8145 46.5667 57.6145 49.3C55.4811 52.0333 52.6145 53.9333 49.0145 55ZM23.6145 49.2H34.8145C37.6145 49.2 39.7478 48.6 41.2145 47.4C42.7478 46.1333 43.5145 44.3 43.5145 41.9C43.5145 39.5 42.7478 37.6667 41.2145 36.4C39.7478 35.1333 37.6145 34.5 34.8145 34.5H23.6145V49.2ZM36.2145 77.2C39.0811 77.2 41.2811 76.5667 42.8145 75.3C44.4145 73.9667 45.2145 72.0667 45.2145 69.6C45.2145 67.1333 44.3811 65.2 42.7145 63.8C41.1145 62.4 38.8811 61.7 36.0145 61.7H23.6145V77.2H36.2145ZM69.0324 63C69.0324 57.2667 70.0991 52.2333 72.2324 47.9C74.4324 43.5667 77.3991 40.2333 81.1324 37.9C84.8658 35.5667 89.0324 34.4 93.6324 34.4C97.5658 34.4 100.999 35.2 103.932 36.8C106.932 38.4 109.232 40.5 110.832 43.1V35.2H127.932V91H110.832V83.1C109.166 85.7 106.832 87.8 103.832 89.4C100.899 91 97.4658 91.8 93.5324 91.8C88.9991 91.8 84.8658 90.6333 81.1324 88.3C77.3991 85.9 74.4324 82.5333 72.2324 78.2C70.0991 73.8 69.0324 68.7333 69.0324 63ZM110.832 63.1C110.832 58.8333 109.632 55.4667 107.232 53C104.899 50.5333 102.032 49.3 98.6324 49.3C95.2324 49.3 92.3324 50.5333 89.9324 53C87.5991 55.4 86.4324 58.7333 86.4324 63C86.4324 67.2667 87.5991 70.6667 89.9324 73.2C92.3324 75.6667 95.2324 76.9 98.6324 76.9C102.032 76.9 104.899 75.6667 107.232 73.2C109.632 70.7333 110.832 67.3667 110.832 63.1ZM136.904 63.1C136.904 57.3 138.07 52.2333 140.404 47.9C142.804 43.5667 146.104 40.2333 150.304 37.9C154.57 35.5667 159.437 34.4 164.904 34.4C171.904 34.4 177.737 36.2333 182.404 39.9C187.137 43.5667 190.237 48.7333 191.704 55.4H173.504C171.97 51.1333 169.004 49 164.604 49C161.47 49 158.97 50.2333 157.104 52.7C155.237 55.1 154.304 58.5667 154.304 63.1C154.304 67.6333 155.237 71.1333 157.104 73.6C158.97 76 161.47 77.2 164.604 77.2C169.004 77.2 171.97 75.0667 173.504 70.8H191.704C190.237 77.3333 187.137 82.4667 182.404 86.2C177.67 89.9333 171.837 91.8 164.904 91.8C159.437 91.8 154.57 90.6333 150.304 88.3C146.104 85.9667 142.804 82.6333 140.404 78.3C138.07 73.9667 136.904 68.9 136.904 63.1ZM234.95 91L217.95 67.6V91H200.85V17H217.95V57.9L234.85 35.2H255.95L232.75 63.2L256.15 91H234.95ZM279.767 43.1C281.367 40.5 283.667 38.4 286.667 36.8C289.667 35.2 293.1 34.4 296.967 34.4C301.567 34.4 305.733 35.5667 309.467 37.9C313.2 40.2333 316.133 43.5667 318.267 47.9C320.467 52.2333 321.567 57.2667 321.567 63C321.567 68.7333 320.467 73.8 318.267 78.2C316.133 82.5333 313.2 85.9 309.467 88.3C305.733 90.6333 301.567 91.8 296.967 91.8C293.033 91.8 289.6 91.0333 286.667 89.5C283.733 87.9 281.433 85.8 279.767 83.2V91H262.667V17H279.767V43.1ZM304.167 63C304.167 58.7333 302.967 55.4 300.567 53C298.233 50.5333 295.333 49.3 291.867 49.3C288.467 49.3 285.567 50.5333 283.167 53C280.833 55.4667 279.667 58.8333 279.667 63.1C279.667 67.3667 280.833 70.7333 283.167 73.2C285.567 75.6667 288.467 76.9 291.867 76.9C295.267 76.9 298.167 75.6667 300.567 73.2C302.967 70.6667 304.167 67.2667 304.167 63ZM411.212 44.5C413.212 41.4333 415.712 39.0333 418.712 37.3C421.712 35.5 425.045 34.6 428.712 34.6V52.7H424.012C419.745 52.7 416.545 53.6333 414.412 55.5C412.279 57.3 411.212 60.5 411.212 65.1V91H394.112V35.2H411.212V44.5Z" fill="#222222"/>
<path d="M341.965 33.4L368.165 33.4L372.365 21L390.265 21L364.865 91.2L345.065 91.2L319.665 21L337.765 21L341.965 33.4ZM346.365 46.6L355.065 72.3L363.665 46.6L346.365 46.6Z" fill="#222222"/>
<path d="M355 40L363.871 9L384 13.3964" stroke="#222222" stroke-width="4" stroke-linecap="round" stroke-linejoin="round"/>
</svg>