<svg width="49" height="48" viewBox="0 0 49 48" fill="none" xmlns="http://www.w3.org/2000/svg">
<g id="attach" clip-path="url(#clip0_260_2239)">
<g id="Group">
<g id="Group_2">
<g id="Group_3">
<path id="Vector" d="M36.2613 12.2871C33.5971 12.2871 31.4297 14.4546 31.4297 17.1187C31.4297 19.7828 33.5971 21.9503 36.2613 21.9503C38.9254 21.9503 41.0929 19.7829 41.0929 17.1187C41.0929 14.4544 38.9255 12.2871 36.2613 12.2871ZM36.2613 20.0753C34.631 20.0753 33.3047 18.749 33.3047 17.1187C33.3047 15.4884 34.631 14.1621 36.2613 14.1621C37.8915 14.1621 39.2179 15.4884 39.2179 17.1187C39.2179 18.7488 37.8916 20.0753 36.2613 20.0753Z" fill="url(#paint0_linear_260_2239)"/>
<path id="Vector_2" d="M36.294 42.2982C36.2706 42.241 36.2415 42.1866 36.2078 42.136C36.174 42.0845 36.1346 42.0366 36.0915 41.9935C36.0484 41.9504 36.0006 41.911 35.949 41.8773C35.8984 41.8435 35.844 41.8145 35.7868 41.791C35.7306 41.7676 35.6715 41.7488 35.6115 41.7376C35.4906 41.7132 35.3668 41.7132 35.2459 41.7376C35.1859 41.7488 35.1268 41.7676 35.0706 41.791C35.0134 41.8145 34.959 41.8435 34.9084 41.8773C34.8568 41.911 34.809 41.9504 34.7659 41.9935C34.7228 42.0366 34.6834 42.0845 34.6496 42.136C34.6159 42.1866 34.5868 42.241 34.5634 42.2982C34.54 42.3545 34.5212 42.4135 34.51 42.4735C34.4978 42.5335 34.4912 42.5954 34.4912 42.6563C34.4912 42.7173 34.4978 42.7791 34.51 42.8391C34.5212 42.8991 34.54 42.9582 34.5634 43.0145C34.5868 43.0716 34.6159 43.126 34.6496 43.1766C34.6834 43.2282 34.7228 43.276 34.7659 43.3191C34.7874 43.3406 34.8101 43.3611 34.8337 43.3806C34.8576 43.4001 34.8825 43.4185 34.9084 43.4354C34.959 43.4691 35.0134 43.4982 35.0706 43.5216C35.1268 43.5451 35.1859 43.5638 35.2459 43.5751C35.3059 43.5873 35.3678 43.5938 35.4287 43.5938C35.4896 43.5938 35.5515 43.5873 35.6115 43.5751C35.6715 43.5638 35.7306 43.5451 35.7868 43.5216C35.844 43.4982 35.8984 43.4691 35.949 43.4354C35.9749 43.4184 35.9998 43.4001 36.0237 43.3806C36.0475 43.3611 36.0701 43.3406 36.0915 43.3191C36.1346 43.276 36.174 43.2282 36.2078 43.1766C36.2415 43.126 36.2706 43.0716 36.294 43.0145C36.3175 42.9582 36.3362 42.8991 36.3484 42.8391C36.3606 42.7791 36.3662 42.7173 36.3662 42.6563C36.3662 42.5954 36.3606 42.5335 36.3484 42.4735C36.3362 42.4134 36.3175 42.3544 36.294 42.2982Z" fill="url(#paint1_linear_260_2239)"/>
<path id="Vector_3" d="M21.5396 5.19847C21.5162 5.14222 21.4871 5.08785 21.4534 5.03629C21.4196 4.98566 21.3803 4.93691 21.3371 4.89379C21.294 4.85066 21.2462 4.81129 21.1946 4.77754C21.144 4.74379 21.0896 4.71472 21.0324 4.69129C20.9762 4.66785 20.9171 4.65004 20.8571 4.63785C20.7362 4.61347 20.6124 4.61347 20.4915 4.63785C20.4315 4.65004 20.3724 4.66785 20.3153 4.69129C20.259 4.71472 20.2046 4.74379 20.154 4.77754C20.1024 4.81129 20.0546 4.85066 20.0115 4.89379C19.9684 4.93691 19.929 4.98566 19.8943 5.03629C19.8606 5.08785 19.8324 5.14222 19.809 5.19847C19.7856 5.25472 19.7668 5.31379 19.7556 5.37379C19.7434 5.43472 19.7368 5.49566 19.7368 5.55754C19.7368 5.61847 19.7434 5.67941 19.7556 5.74035C19.7668 5.80035 19.7856 5.85941 19.809 5.91566C19.8324 5.97191 19.8606 6.02629 19.8943 6.07785C19.929 6.12847 19.9684 6.17722 20.0115 6.22035C20.0546 6.26347 20.1024 6.30285 20.154 6.3366C20.2046 6.37035 20.259 6.39941 20.3153 6.42285C20.3724 6.44629 20.4315 6.4641 20.4915 6.47629C20.5515 6.48847 20.6134 6.49504 20.6743 6.49504C20.7353 6.49504 20.7971 6.48847 20.8571 6.47629C20.9171 6.4641 20.9762 6.44629 21.0324 6.42285C21.0896 6.39941 21.144 6.37035 21.1946 6.3366C21.2462 6.30285 21.294 6.26347 21.3371 6.22035C21.3803 6.17722 21.4196 6.12847 21.4534 6.07785C21.4871 6.02629 21.5162 5.97191 21.5396 5.91566C21.5631 5.85941 21.5818 5.80035 21.5931 5.74035C21.6053 5.67941 21.6118 5.61847 21.6118 5.55754C21.6118 5.49566 21.6053 5.43472 21.5931 5.37379C21.5818 5.31379 21.5631 5.25472 21.5396 5.19847Z" fill="url(#paint2_linear_260_2239)"/>
<path id="Vector_4" d="M43.4095 4.62353C42.8473 2.24706 40.7095 0.472839 38.1636 0.472839H8.74905C4.28187 0.472746 0.647461 4.10715 0.647461 8.57434V37.9889C0.647461 40.9102 2.98343 43.2947 5.88546 43.3765C6.44759 45.753 8.58546 47.5272 11.1313 47.5272H43.2559C46.2288 47.5272 48.6475 45.1085 48.6475 42.1356V35.0614V10.0111C48.6475 7.08981 46.3115 4.70537 43.4095 4.62353ZM46.7725 42.1358C46.7725 44.0748 45.1949 45.6524 43.2559 45.6524H11.1313C9.6304 45.6524 8.34677 44.7069 7.84305 43.3805C7.69596 42.9933 7.61477 42.574 7.61477 42.1358V41.5055V37.1622L18.3702 18.9256C18.6977 18.3704 19.2817 18.0462 19.9224 18.0565C20.5669 18.0676 21.1357 18.412 21.4439 18.9781L26.0748 27.4815L32.8061 39.8417C32.9762 40.1541 33.2981 40.331 33.6303 40.331C33.7818 40.331 33.9355 40.2942 34.0779 40.2166C34.5326 39.969 34.7005 39.3996 34.4529 38.9449L32.2685 34.9338C33.2276 34.9781 34.1709 34.6675 34.9221 34.0443L39.1381 30.5469C39.8142 29.986 40.8126 30.0106 41.4602 30.6044L41.6803 30.8061L43.5553 32.5248L46.7725 35.4739V42.1358ZM46.7725 32.9303L43.5552 29.9811L41.6802 28.5534C40.4586 28.0425 39.006 28.2202 37.9409 29.1037L33.7249 32.6012C33.2612 32.9859 32.6558 33.1413 32.064 33.0276C31.4723 32.914 30.9676 32.5452 30.6794 32.0161L27.7214 26.5846L26.0697 23.5516V23.5516L23.0906 18.0812C22.4552 16.9145 21.2828 16.2044 19.9544 16.1817C18.6265 16.1609 17.4301 16.8286 16.7552 17.973L7.61468 33.4712V10.0111C7.61468 8.07203 9.19221 6.4945 11.1312 6.4945H16.9242C17.442 6.4945 17.8617 6.07478 17.8617 5.557C17.8617 5.03921 17.442 4.6195 16.9242 4.6195H11.1312C8.15834 4.6195 5.73968 7.03815 5.73968 10.0111V36.9062V41.4917C3.94034 41.3392 2.52246 39.827 2.52246 37.9889V8.57434C2.52246 5.14093 5.31574 2.34775 8.74905 2.34775H38.1636C39.6645 2.34775 40.9482 3.29321 41.4519 4.61959H24.4242C23.9065 4.61959 23.4867 5.03931 23.4867 5.55709C23.4867 6.07487 23.9065 6.49459 24.4242 6.49459H41.6801L43.5551 6.50828C45.3546 6.66071 46.7725 8.1729 46.7725 10.0111V32.9303Z" fill="url(#paint3_linear_260_2239)"/>
</g>
</g>
</g>
</g>
<defs>
<linearGradient id="paint0_linear_260_2239" x1="39.2581" y1="5.75793" x2="32.0925" y2="7.88114" gradientUnits="userSpaceOnUse">
<stop stop-color="#0B96B4"/>
<stop offset="1" stop-color="#551DB0"/>
</linearGradient>
<linearGradient id="paint1_linear_260_2239" x1="36.0102" y1="40.4527" x2="34.6199" y2="40.8648" gradientUnits="userSpaceOnUse">
<stop stop-color="#0B96B4"/>
<stop offset="1" stop-color="#551DB0"/>
</linearGradient>
<linearGradient id="paint2_linear_260_2239" x1="21.2558" y1="3.35236" x2="19.8654" y2="3.76425" gradientUnits="userSpaceOnUse">
<stop stop-color="#0B96B4"/>
<stop offset="1" stop-color="#551DB0"/>
</linearGradient>
<linearGradient id="paint3_linear_260_2239" x1="39.5335" y1="-31.3206" x2="4.05613" y2="-20.5972" gradientUnits="userSpaceOnUse">
<stop stop-color="#0B96B4"/>
<stop offset="1" stop-color="#551DB0"/>
</linearGradient>
<clipPath id="clip0_260_2239">
<rect width="48" height="48" fill="white" transform="translate(0.647461)"/>
</clipPath>
</defs>
</svg>
