<svg width="48" height="48" viewBox="0 0 48 48" fill="none" xmlns="http://www.w3.org/2000/svg">
<g id="computer" clip-path="url(#clip0_260_2072)">
<path id="Vector" d="M4.64514 15.4839H7.74192V17.0323H4.64514V15.4839Z" fill="url(#paint0_linear_260_2072)"/>
<path id="Vector_2" d="M45.6774 12.3871C46.9578 12.3871 48 11.3449 48 10.0645V2.32258C48 1.04221 46.9578 0 45.6774 0H34.8387C33.5583 0 32.5161 1.04221 32.5161 2.32258V10.0645C32.5161 11.3449 33.5583 12.3871 34.8387 12.3871H37.1613V13.9355H35.6129V15.4839H39.4839V23.2258H36.2888C35.6711 22.6229 34.9105 22.1613 34.0592 21.9073C34.063 21.829 34.0645 21.7534 34.0645 21.6774C34.0645 18.2623 31.286 15.4839 27.871 15.4839C25.7521 15.4839 23.7826 16.5862 22.6546 18.3493C21.86 17.9924 21.0008 17.8065 20.129 17.8065C17.5596 17.8065 15.2461 19.4259 14.3411 21.8014C13.7529 21.9277 13.2048 22.1537 12.7069 22.4516H6.96774V20.129H10.0645C11.3449 20.129 12.3871 19.0868 12.3871 17.8065V2.32258C12.3871 1.04221 11.3449 0 10.0645 0H2.32258C1.04221 0 0 1.04221 0 2.32258V17.8065C0 19.0868 1.04221 20.129 2.32258 20.129H5.41935V24H11.0602C10.731 24.4699 10.4754 24.9885 10.3076 25.5484H6.96774V34.0645H3.87097C2.5906 34.0645 1.54839 35.1067 1.54839 36.3871V43.3548H0V45.6774C0 46.9578 1.04221 48 2.32258 48H14.7097C15.99 48 17.0323 46.9578 17.0323 45.6774V43.3548H15.4839V36.3871C15.4839 35.1067 14.4417 34.0645 13.1613 34.0645H8.51613V27.0968H10.0645C10.0645 30.0843 12.4963 32.5161 15.4839 32.5161H32.5161C35.2405 32.5161 37.4958 30.4926 37.8735 27.871H41.0323V34.0645H35.6129V48H48V34.0645H42.5806V26.3226H37.8705C37.7899 25.7775 37.6229 25.2588 37.3889 24.7742H41.0323V15.4839H44.9032V13.9355H43.3548V12.3871H45.6774ZM10.8387 12.3871H1.54839V4.64516H10.8387V12.3871ZM2.32258 1.54839H10.0645C10.4917 1.54839 10.8387 1.89541 10.8387 2.32258V3.09677H1.54839V2.32258C1.54839 1.89541 1.89541 1.54839 2.32258 1.54839ZM1.54839 17.8065V13.9355H10.8387V17.8065C10.8387 18.2336 10.4917 18.5806 10.0645 18.5806H2.32258C1.89541 18.5806 1.54839 18.2336 1.54839 17.8065ZM15.4839 45.6774C15.4839 46.1046 15.1368 46.4516 14.7097 46.4516H2.32258C1.89541 46.4516 1.54839 46.1046 1.54839 45.6774V44.9032H15.4839V45.6774ZM13.9355 36.3871V43.3548H3.09677V36.3871C3.09677 35.9599 3.4438 35.6129 3.87097 35.6129H13.1613C13.5885 35.6129 13.9355 35.9599 13.9355 36.3871ZM37.1613 46.4516V41.8064H46.4516V46.4516H37.1613ZM46.4516 40.2581H37.1613V35.6129H46.4516V40.2581ZM32.5161 30.9677H15.4839C13.3495 30.9677 11.6129 29.2311 11.6129 27.0968C11.6129 25.1397 13.0777 23.4889 15.0193 23.2568L15.5273 23.1956L15.6706 22.7041C16.2433 20.732 18.0775 19.3548 20.129 19.3548C20.9837 19.3548 21.823 19.5949 22.5586 20.0478L23.2976 20.5037L23.6662 19.7162C24.4283 18.0851 26.0788 17.0323 27.871 17.0323C30.4328 17.0323 32.5161 19.1155 32.5161 21.6774C32.5161 21.891 32.4968 22.1186 32.4549 22.3934L32.3381 23.1593L33.1036 23.2753C34.9756 23.5611 36.3871 25.204 36.3871 27.0968C36.3871 29.2311 34.6505 30.9677 32.5161 30.9677ZM34.8387 1.54839H45.6774C46.1046 1.54839 46.4516 1.89541 46.4516 2.32258V7.74194H34.0645V2.32258C34.0645 1.89541 34.4115 1.54839 34.8387 1.54839ZM34.0645 10.0645V9.29032H46.4516V10.0645C46.4516 10.4917 46.1046 10.8387 45.6774 10.8387H34.8387C34.4115 10.8387 34.0645 10.4917 34.0645 10.0645ZM41.8064 13.9355H38.7097V12.3871H41.8064V13.9355Z" fill="url(#paint1_linear_260_2072)"/>
<path id="Vector_3" d="M38.7097 37.1613H40.2581V38.7097H38.7097V37.1613Z" fill="url(#paint2_linear_260_2072)"/>
<path id="Vector_4" d="M43.3549 43.3549H44.9032V44.9032H43.3549V43.3549Z" fill="url(#paint3_linear_260_2072)"/>
<path id="Vector_5" d="M41.8064 37.1613H44.9032V38.7097H41.8064V37.1613Z" fill="url(#paint4_linear_260_2072)"/>
<path id="Vector_6" d="M38.7097 43.3549H41.8065V44.9032H38.7097V43.3549Z" fill="url(#paint5_linear_260_2072)"/>
</g>
<defs>
<linearGradient id="paint0_linear_260_2072" x1="7.15392" y1="14.4377" x2="5.30519" y2="15.5333" gradientUnits="userSpaceOnUse">
<stop stop-color="#0B96B4"/>
<stop offset="1" stop-color="#551DB0"/>
</linearGradient>
<linearGradient id="paint1_linear_260_2072" x1="38.8861" y1="-32.4324" x2="3.29242" y2="-21.8858" gradientUnits="userSpaceOnUse">
<stop stop-color="#0B96B4"/>
<stop offset="1" stop-color="#551DB0"/>
</linearGradient>
<linearGradient id="paint2_linear_260_2072" x1="39.9641" y1="36.1151" x2="38.8159" y2="36.4553" gradientUnits="userSpaceOnUse">
<stop stop-color="#0B96B4"/>
<stop offset="1" stop-color="#551DB0"/>
</linearGradient>
<linearGradient id="paint3_linear_260_2072" x1="44.6092" y1="42.3086" x2="43.4611" y2="42.6489" gradientUnits="userSpaceOnUse">
<stop stop-color="#0B96B4"/>
<stop offset="1" stop-color="#551DB0"/>
</linearGradient>
<linearGradient id="paint4_linear_260_2072" x1="44.3152" y1="36.1151" x2="42.4664" y2="37.2107" gradientUnits="userSpaceOnUse">
<stop stop-color="#0B96B4"/>
<stop offset="1" stop-color="#551DB0"/>
</linearGradient>
<linearGradient id="paint5_linear_260_2072" x1="41.2185" y1="42.3086" x2="39.3698" y2="43.4042" gradientUnits="userSpaceOnUse">
<stop stop-color="#0B96B4"/>
<stop offset="1" stop-color="#551DB0"/>
</linearGradient>
<clipPath id="clip0_260_2072">
<rect width="48" height="48" fill="white"/>
</clipPath>
</defs>
</svg>
