<svg width="48" height="48" viewBox="0 0 48 48" fill="none" xmlns="http://www.w3.org/2000/svg">
<g id="book (1)" clip-path="url(#clip0_260_2180)">
<path id="Vector" d="M42.6094 41.2734C42.2208 41.2734 41.9062 41.588 41.9062 41.9766V44.4913C41.9062 45.6508 40.9633 46.5938 39.8038 46.5938H11.625V6C11.625 5.61145 11.3104 5.29688 10.9219 5.29688C10.5333 5.29688 10.2188 5.61145 10.2188 6V46.5938H6V1.40625H10.2188V3C10.2188 3.38855 10.5333 3.70312 10.9219 3.70312C11.3104 3.70312 11.625 3.38855 11.625 3V1.40625H15.9847V22.2656C15.9847 22.5557 16.1627 22.8157 16.433 22.9208C16.7036 23.0262 17.0105 22.9545 17.2064 22.7406L19.8754 19.8267L22.5447 22.7406C22.6805 22.8889 22.8699 22.9688 23.0632 22.9688C23.1486 22.9688 23.235 22.9534 23.3177 22.9208C23.588 22.8157 23.766 22.5557 23.766 22.2656V1.40625H32.9531C33.3417 1.40625 33.6562 1.09167 33.6562 0.703125C33.6562 0.314575 33.3417 0 32.9531 0H5.29688C4.90833 0 4.59375 0.314575 4.59375 0.703125V47.2969C4.59375 47.6854 4.90833 48 5.29688 48H39.8038C41.7385 48 43.3125 46.426 43.3125 44.4913V41.9766C43.3125 41.588 42.9979 41.2734 42.6094 41.2734ZM22.3597 1.40625V20.4573L20.3939 18.3109C20.2606 18.1655 20.0728 18.0828 19.8754 18.0828C19.6783 18.0828 19.4901 18.1655 19.3572 18.3109L17.391 20.4573V1.40625H22.3597Z" fill="url(#paint0_linear_260_2180)"/>
<path id="Vector_2" d="M39.8038 0H35.9531C35.5646 0 35.25 0.314575 35.25 0.703125C35.25 1.09167 35.5646 1.40625 35.9531 1.40625H39.8038C40.9633 1.40625 41.9062 2.34924 41.9062 3.50867V38.9766C41.9062 39.3651 42.2208 39.6797 42.6094 39.6797C42.9979 39.6797 43.3125 39.3651 43.3125 38.9766V3.50867C43.3125 1.57397 41.7385 0 39.8038 0V0Z" fill="url(#paint1_linear_260_2180)"/>
<path id="Vector_3" d="M41.3067 14.8088C41.3067 14.1643 41.0555 13.5579 40.5995 13.1019C40.1436 12.646 39.5375 12.3948 38.8926 12.3948C38.2477 12.3948 37.6416 12.646 37.1857 13.1019L36.2083 14.0793C35.986 13.9548 35.7348 13.8871 35.4733 13.8864C35.4718 13.8864 35.4704 13.8864 35.4689 13.8864C35.0653 13.8864 34.6867 14.0431 34.4018 14.328L13.8178 34.9124C13.5314 35.1984 13.3747 35.5792 13.3758 35.9846C13.3769 36.3193 13.4871 36.6365 13.687 36.8987L12.5826 38.0032C11.7238 38.8623 11.7238 40.2598 12.5826 41.1189H12.5829C13.0121 41.5485 13.5764 41.7631 14.1404 41.7631C14.7047 41.7631 15.2687 41.5485 15.6983 41.1189L16.8031 40.0144C17.0734 40.2209 17.3975 40.3257 17.7216 40.3257C18.1083 40.3257 18.4947 40.1785 18.7887 39.8848L37.813 20.8605L37.9947 21.0421L33.7279 25.3085C33.4533 25.5831 33.4533 26.0284 33.7279 26.3031C33.8653 26.4401 34.0454 26.5089 34.2253 26.5089C34.4051 26.5089 34.5852 26.4401 34.7226 26.3031L39.4862 21.5394C39.7609 21.2644 39.7609 20.8195 39.4862 20.5448L38.8073 19.8658L39.3734 19.3C39.6595 19.014 39.8162 18.6335 39.8151 18.2285C39.8144 17.967 39.7466 17.7158 39.6221 17.4935L40.5995 16.5161C41.0558 16.0602 41.3067 15.4537 41.3067 14.8088ZM20.102 36.583L17.1188 33.5999L20.0067 30.7119L22.9899 33.6951L20.102 36.583ZM14.704 40.1246C14.3935 40.4352 13.8881 40.4355 13.5772 40.1246C13.2666 39.8137 13.2666 39.3083 13.5772 38.9974L14.6711 37.9039L15.7979 39.0308L14.704 40.1246ZM17.7945 38.8901C17.7534 38.9312 17.6857 38.9297 17.6429 38.8872C17.6429 38.8872 17.6429 38.8872 17.6429 38.8868L14.8153 36.0597C14.7879 36.0322 14.7824 36.0015 14.782 35.9802C14.782 35.9604 14.7871 35.9315 14.812 35.9066L16.1245 34.5945L19.1073 37.5773L17.7945 38.8901ZM23.9842 32.7008L21.001 29.7177L33.8356 16.8831L36.8188 19.8658L23.9842 32.7008ZM34.8299 15.8884L35.396 15.3223C35.4158 15.3029 35.4403 15.2926 35.4689 15.2926H35.4693C35.4901 15.2926 35.5205 15.2988 35.5476 15.3259L38.3759 18.1538C38.403 18.1813 38.4088 18.2117 38.4088 18.2325C38.4088 18.2611 38.399 18.2856 38.3792 18.3054L37.813 18.8716L34.8299 15.8884ZM39.6053 15.5215L38.6689 16.4579L37.2436 15.0326L38.1803 14.0962C38.5733 13.7032 39.2127 13.7036 39.6053 14.0962C39.9982 14.4895 39.9982 15.1285 39.6053 15.5215Z" fill="url(#paint2_linear_260_2180)"/>
</g>
<defs>
<linearGradient id="paint0_linear_260_2180" x1="35.9608" y1="-32.4324" x2="6.41656" y2="-25.371" gradientUnits="userSpaceOnUse">
<stop stop-color="#0B96B4"/>
<stop offset="1" stop-color="#551DB0"/>
</linearGradient>
<linearGradient id="paint1_linear_260_2180" x1="41.7816" y1="-26.8106" x2="35.3016" y2="-26.4205" gradientUnits="userSpaceOnUse">
<stop stop-color="#0B96B4"/>
<stop offset="1" stop-color="#551DB0"/>
</linearGradient>
<linearGradient id="paint2_linear_260_2180" x1="35.7304" y1="-7.44866" x2="13.9529" y2="-0.995864" gradientUnits="userSpaceOnUse">
<stop stop-color="#0B96B4"/>
<stop offset="1" stop-color="#551DB0"/>
</linearGradient>
<clipPath id="clip0_260_2180">
<rect width="48" height="48" fill="white"/>
</clipPath>
</defs>
</svg>
