<svg width="48" height="48" viewBox="0 0 48 48" fill="none" xmlns="http://www.w3.org/2000/svg">
<g id="briefcase">
<g id="Group">
<g id="Group_2">
<path id="Vector" d="M45.8182 26.1818C45.1636 26.1818 44.7273 26.6182 44.7273 27.2727V41.4545C44.7273 42.1091 44.2909 42.5454 43.6364 42.5454H4.3636C3.70904 42.5454 3.27272 42.109 3.27272 41.4545V27.2727C3.27272 26.6181 2.83632 26.1818 2.18185 26.1818C1.52738 26.1818 1.09097 26.6182 1.09097 27.2727V41.4545C1.09097 43.3091 2.50913 44.7273 4.36369 44.7273H43.6364C45.491 44.7273 46.9091 43.3091 46.9091 41.4545V27.2727C46.9091 26.6181 46.4727 26.1818 45.8182 26.1818Z" fill="url(#paint0_linear_260_105)"/>
</g>
</g>
<g id="Group_3">
<g id="Group_4">
<path id="Vector_2" d="M44.7273 10.9091H3.27272C1.41816 10.9091 0 12.3273 0 14.1818V21.1637C0 22.6909 1.09087 24 2.50912 24.3273L19.6364 28.1454V31.6363C19.6364 32.2909 20.0728 32.7272 20.7273 32.7272H27.2727C27.9273 32.7272 28.3636 32.2908 28.3636 31.6363V28.1454L45.4909 24.3273C46.9091 24 48 22.6909 48 21.1636V14.1817C48 12.3273 46.5818 10.9091 44.7273 10.9091ZM26.1818 30.5454H21.8182V26.1818H26.1818V30.5454ZM45.8182 21.1636C45.8182 21.709 45.4909 22.1454 44.9454 22.2545L28.3636 25.9636V25.0909C28.3636 24.4363 27.9272 24 27.2727 24H20.7273C20.0727 24 19.6364 24.4364 19.6364 25.0909V25.9636L3.05456 22.2546C2.50912 22.1454 2.18184 21.7091 2.18184 21.1637V14.1818C2.18184 13.5273 2.61825 13.091 3.27272 13.091H44.7273C45.3818 13.091 45.8182 13.5274 45.8182 14.1818V21.1636Z" fill="url(#paint1_linear_260_105)"/>
</g>
</g>
<g id="Group_5">
<g id="Group_6">
<path id="Vector_3" d="M29.4545 3.27271H18.5454C16.6909 3.27271 15.2727 4.69086 15.2727 6.54542V7.6363C15.2727 8.29086 15.7091 8.72717 16.3636 8.72717C17.018 8.72717 17.4545 8.29076 17.4545 7.6363V6.54542C17.4545 5.89086 17.8909 5.45455 18.5453 5.45455H29.4545C30.109 5.45455 30.5453 5.89095 30.5453 6.54542V7.6363C30.5453 8.29086 30.9817 8.72717 31.6362 8.72717C32.2908 8.72717 32.7271 8.29076 32.7271 7.6363V6.54542C32.7273 4.69086 31.3091 3.27271 29.4545 3.27271Z" fill="url(#paint2_linear_260_105)"/>
</g>
</g>
</g>
<defs>
<linearGradient id="paint0_linear_260_105" x1="38.2095" y1="13.6511" x2="14.1462" y2="31.2667" gradientUnits="userSpaceOnUse">
<stop stop-color="#0B96B4"/>
<stop offset="1" stop-color="#551DB0"/>
</linearGradient>
<linearGradient id="paint1_linear_260_105" x1="38.8861" y1="-3.83281" x2="11.714" y2="13.88" gradientUnits="userSpaceOnUse">
<stop stop-color="#0B96B4"/>
<stop offset="1" stop-color="#551DB0"/>
</linearGradient>
<linearGradient id="paint2_linear_260_105" x1="29.413" y1="-0.412743" x2="21.9991" y2="6.61699" gradientUnits="userSpaceOnUse">
<stop stop-color="#0B96B4"/>
<stop offset="1" stop-color="#551DB0"/>
</linearGradient>
</defs>
</svg>
