<svg width="48" height="48" viewBox="0 0 48 48" fill="none" xmlns="http://www.w3.org/2000/svg">
<g id="gift-card">
<g id="Group">
<g id="Group_2">
<path id="Vector" d="M43.3125 6.9375H4.6875C2.10281 6.9375 0 9.04031 0 11.625V36.375C0 38.9597 2.10281 41.0625 4.6875 41.0625H19.2188C19.7365 41.0625 20.1562 40.6428 20.1562 40.125C20.1562 39.6072 19.7365 39.1875 19.2188 39.1875H4.6875C3.13669 39.1875 1.875 37.9258 1.875 36.375V24.9375H22.2505C22.4008 25.6984 22.8537 26.3689 23.5254 26.7948C23.7442 26.9334 23.9768 27.0388 24.2167 27.1131L22.5661 29.9516C22.3751 30.2799 22.4012 30.691 22.632 30.9926C22.8628 31.2942 23.2528 31.4267 23.6196 31.3283L25.8645 30.7258L26.4652 32.9712C26.5631 33.3376 26.8722 33.6088 27.2483 33.6584C27.2894 33.6638 27.3304 33.6665 27.3712 33.6665C27.7028 33.6665 28.0139 33.4902 28.1828 33.1977L32.457 25.7945L37.8119 35.3152C37.9793 35.6128 38.2932 35.7931 38.6287 35.7931C38.6678 35.7931 38.7069 35.7907 38.7463 35.7857C39.1245 35.738 39.4361 35.4661 39.5347 35.0978L40.1354 32.8523L42.3803 33.4549C42.7454 33.5527 43.1336 33.4221 43.3649 33.123C43.5962 32.824 43.6252 32.4155 43.4388 32.0867L40.6819 27.2285C40.769 27.2365 40.8562 27.2415 40.9435 27.2415C41.4764 27.2415 42.0066 27.0913 42.4746 26.7947C43.1463 26.3689 43.5993 25.6983 43.7495 24.9374H46.125V36.3749C46.125 37.9257 44.8633 39.1874 43.3125 39.1874H33.9375V34.1249C33.9375 33.6071 33.5178 33.1874 33 33.1874C32.4822 33.1874 32.0625 33.6071 32.0625 34.1249V39.1874H27.1908C26.673 39.1874 26.2533 39.6071 26.2533 40.1249C26.2533 40.6427 26.673 41.0624 27.1908 41.0624H43.3125C45.8972 41.0624 48 38.9596 48 36.3749V11.625C48 9.04031 45.8972 6.9375 43.3125 6.9375ZM24.5294 25.2111C24.2378 25.0262 24.0705 24.7222 24.0705 24.3768V17.8084H24.0704C24.0704 17.463 24.2377 17.159 24.5293 16.9741C24.821 16.7891 25.1674 16.7677 25.4797 16.915L30.0794 19.0853C29.9659 19.3932 29.9038 19.7258 29.9038 20.0727V22.0781C29.9038 22.4361 29.9704 22.7785 30.0909 23.0946L25.4797 25.2701C25.1675 25.4173 24.8212 25.3959 24.5294 25.2111ZM27.6913 30.299L27.4334 29.3348C27.3691 29.0946 27.212 28.8895 26.9965 28.7652C26.7811 28.6407 26.5251 28.6072 26.2848 28.6717L25.3304 28.9278L26.5435 26.8415L30.8646 24.8028L27.6913 30.299ZM26.2798 15.2192C25.3879 14.7984 24.3583 14.8625 23.5255 15.3904C22.6927 15.9183 22.1955 16.8222 22.1955 17.8083V23.0625H1.875V11.625C1.875 10.0742 3.13669 8.8125 4.6875 8.8125H32.0625V16.8438C32.0625 16.9988 32.1007 17.1446 32.1674 17.2734C31.8668 17.3378 31.5839 17.4495 31.3262 17.6002L26.2798 15.2192ZM33.2479 23.0659H32.7666C32.2219 23.0659 31.7787 22.6227 31.7787 22.0781V20.0726C31.7787 19.5279 32.2219 19.0849 32.7666 19.0849H33.2479C33.7926 19.0849 34.2357 19.5279 34.2357 20.0726V22.0781C34.2357 22.6228 33.7926 23.0659 33.2479 23.0659ZM40.702 31.063L39.7152 30.7982C39.4749 30.7337 39.2189 30.7674 39.0035 30.8918C38.788 31.0162 38.6308 31.2211 38.5666 31.4614L38.3181 32.3903L34.0615 24.8224C34.268 24.7611 34.4647 24.6771 34.6489 24.5732L37.8859 26.1005L40.702 31.063ZM41.4707 25.2112C41.1789 25.3961 40.8326 25.4176 40.5203 25.2702L35.9213 23.1004C36.0432 22.7827 36.1107 22.4382 36.1107 22.0781V20.0726C36.1107 19.7236 36.0477 19.389 35.9329 19.0794L40.5203 16.915C40.8327 16.7677 41.1789 16.7892 41.4707 16.9741C41.7623 17.159 41.9296 17.4631 41.9296 17.8084V24.3769C41.9296 24.7222 41.7623 25.0263 41.4707 25.2112ZM46.1251 23.0625H43.8046V17.8084C43.8046 16.8223 43.3073 15.9184 42.4746 15.3905C41.6417 14.8626 40.612 14.7986 39.7203 15.2193L34.6819 17.5964C34.4222 17.4455 34.1371 17.3337 33.8342 17.2704C33.8998 17.1424 33.9376 16.9976 33.9376 16.8438V8.8125H43.3126C44.8634 8.8125 46.1251 10.0742 46.1251 11.625V23.0625Z" fill="url(#paint0_linear_260_57)"/>
</g>
</g>
<g id="Group_3">
<g id="Group_4">
<path id="Vector_2" d="M23.7956 39.4622C23.6213 39.2878 23.3794 39.1875 23.1328 39.1875C22.8863 39.1875 22.6444 39.2878 22.47 39.4622C22.2956 39.6366 22.1953 39.8784 22.1953 40.125C22.1953 40.3716 22.2956 40.6134 22.47 40.7878C22.6444 40.9622 22.8863 41.0625 23.1328 41.0625C23.3794 41.0625 23.6213 40.9622 23.7956 40.7878C23.9709 40.6134 24.0703 40.3716 24.0703 40.125C24.0703 39.8784 23.9709 39.6366 23.7956 39.4622Z" fill="url(#paint1_linear_260_57)"/>
</g>
</g>
<g id="Group_5">
<g id="Group_6">
<path id="Vector_3" d="M19.8281 12H6C5.48222 12 5.0625 12.4197 5.0625 12.9375C5.0625 13.4553 5.48222 13.875 6 13.875H19.8281C20.3459 13.875 20.7656 13.4553 20.7656 12.9375C20.7656 12.4197 20.3459 12 19.8281 12Z" fill="url(#paint2_linear_260_57)"/>
</g>
</g>
<g id="Group_7">
<g id="Group_8">
<path id="Vector_4" d="M19.8281 33.1875H6C5.48222 33.1875 5.0625 33.6072 5.0625 34.125C5.0625 34.6428 5.48222 35.0625 6 35.0625H19.8281C20.3459 35.0625 20.7656 34.6428 20.7656 34.125C20.7656 33.6072 20.3459 33.1875 19.8281 33.1875Z" fill="url(#paint3_linear_260_57)"/>
</g>
</g>
<g id="Group_9">
<g id="Group_10">
<path id="Vector_5" d="M11.8125 17.0625H6C5.48222 17.0625 5.0625 17.4822 5.0625 18C5.0625 18.5178 5.48222 18.9375 6 18.9375H11.8125C12.3303 18.9375 12.75 18.5178 12.75 18C12.75 17.4822 12.3303 17.0625 11.8125 17.0625Z" fill="url(#paint4_linear_260_57)"/>
</g>
</g>
<g id="Group_11">
<g id="Group_12">
<path id="Vector_6" d="M16.1025 17.3372C15.9281 17.1628 15.6863 17.0625 15.4397 17.0625C15.1922 17.0625 14.9513 17.1628 14.7769 17.3372C14.6025 17.5116 14.5022 17.7534 14.5022 18C14.5022 18.2466 14.6025 18.4884 14.7769 18.6628C14.9513 18.8372 15.1922 18.9375 15.4397 18.9375C15.6863 18.9375 15.9281 18.8372 16.1025 18.6628C16.2769 18.4884 16.3772 18.2466 16.3772 18C16.3772 17.7534 16.2769 17.5116 16.1025 17.3372Z" fill="url(#paint5_linear_260_57)"/>
</g>
</g>
</g>
<defs>
<linearGradient id="paint0_linear_260_57" x1="38.8861" y1="-16.1199" x2="5.89771" y2="-2.37098" gradientUnits="userSpaceOnUse">
<stop stop-color="#0B96B4"/>
<stop offset="1" stop-color="#551DB0"/>
</linearGradient>
<linearGradient id="paint1_linear_260_57" x1="23.7143" y1="37.9206" x2="22.3239" y2="38.3326" gradientUnits="userSpaceOnUse">
<stop stop-color="#0B96B4"/>
<stop offset="1" stop-color="#551DB0"/>
</linearGradient>
<linearGradient id="paint2_linear_260_57" x1="17.784" y1="10.7331" x2="16.0145" y2="15.1244" gradientUnits="userSpaceOnUse">
<stop stop-color="#0B96B4"/>
<stop offset="1" stop-color="#551DB0"/>
</linearGradient>
<linearGradient id="paint3_linear_260_57" x1="17.784" y1="31.9206" x2="16.0145" y2="36.3119" gradientUnits="userSpaceOnUse">
<stop stop-color="#0B96B4"/>
<stop offset="1" stop-color="#551DB0"/>
</linearGradient>
<linearGradient id="paint4_linear_260_57" x1="11.2903" y1="15.7956" x2="8.78576" y2="18.8383" gradientUnits="userSpaceOnUse">
<stop stop-color="#0B96B4"/>
<stop offset="1" stop-color="#551DB0"/>
</linearGradient>
<linearGradient id="paint5_linear_260_57" x1="16.0212" y1="15.7956" x2="14.6308" y2="16.2076" gradientUnits="userSpaceOnUse">
<stop stop-color="#0B96B4"/>
<stop offset="1" stop-color="#551DB0"/>
</linearGradient>
</defs>
</svg>
