<svg width="32" height="32" viewBox="0 0 32 32" fill="none" xmlns="http://www.w3.org/2000/svg">
<g id="clip">
<g id="Group">
<path id="Vector" d="M14.9829 14.4372C15.3798 14.0403 15.3798 13.3954 14.9829 12.9985C14.586 12.6016 13.9411 12.6016 13.5442 12.9985L8.16121 18.3814C7.24338 19.2992 6.74725 20.4899 6.74725 21.7799C6.74725 23.0698 7.24338 24.2605 8.16121 25.1783C10.0465 27.0636 13.0976 27.0636 14.9581 25.1783L27.1132 13.0233C28.3783 11.7581 29.0728 10.0713 29.0728 8.28527C29.0728 6.49923 28.3783 4.81241 27.1132 3.54729C24.4837 0.917831 20.2418 0.917831 17.6124 3.54729L5.48214 15.6775C3.84493 17.3147 2.9519 19.4729 2.9519 21.7799C2.9519 24.0868 3.84493 26.2698 5.48214 27.8822C7.11935 29.5194 9.27749 30.4124 11.5845 30.4124C13.8914 30.4124 16.0744 29.5194 17.6868 27.8822L23.0697 22.4992C23.4666 22.1023 23.4666 21.4574 23.0697 21.0605C22.6728 20.6636 22.0279 20.6636 21.631 21.0605L16.248 26.4434C15.0077 27.6837 13.3457 28.3783 11.5845 28.3783C9.82322 28.3783 8.16121 27.6837 6.9209 26.4434C5.68059 25.2031 4.98601 23.5411 4.98601 21.7799C4.98601 20.0186 5.68059 18.3566 6.9209 17.1163L19.0511 4.98605C19.9442 4.09302 21.11 3.62171 22.3504 3.62171C23.5907 3.62171 24.7814 4.11783 25.6496 4.98605C26.5426 5.87907 27.0139 7.04496 27.0139 8.28527C27.0139 9.52558 26.5178 10.7163 25.6496 11.5845L13.4945 23.7395C12.4279 24.8062 10.6666 24.8062 9.57516 23.7395C9.05423 23.2186 8.75656 22.524 8.75656 21.7799C8.75656 21.0357 9.05423 20.3411 9.57516 19.8202L14.9829 14.4372Z" fill="url(#paint0_linear_260_2115)"/>
</g>
</g>
<defs>
<linearGradient id="paint0_linear_260_2115" x1="24.1132" y1="-17.9094" x2="4.45883" y2="-12.6343" gradientUnits="userSpaceOnUse">
<stop stop-color="#0B96B4"/>
<stop offset="1" stop-color="#551DB0"/>
</linearGradient>
</defs>
</svg>
