<svg width="48" height="48" viewBox="0 0 48 48" fill="none" xmlns="http://www.w3.org/2000/svg">
<g id="screens" clip-path="url(#clip0_260_2081)">
<path id="Vector" d="M5.99817 24.7896C6.02161 24.8461 6.05054 24.9004 6.08423 24.9511C6.11792 25.0028 6.15747 25.0509 6.20032 25.0942C6.24353 25.1382 6.29224 25.1767 6.34277 25.2116C6.39441 25.2453 6.44897 25.2743 6.50501 25.2978C6.5614 25.3213 6.62036 25.3393 6.68042 25.3514C6.74121 25.3635 6.80237 25.369 6.86426 25.369C6.92505 25.369 6.98584 25.3635 7.047 25.3514C7.10669 25.3393 7.16602 25.3213 7.22205 25.2978C7.27844 25.2743 7.33264 25.2453 7.38428 25.2116C7.43481 25.1767 7.48352 25.1382 7.52673 25.0942C7.56995 25.0509 7.60913 25.0028 7.64319 24.9511C7.67688 24.9004 7.70581 24.8461 7.72925 24.7896C7.75269 24.7324 7.77063 24.6733 7.78272 24.6142C7.7948 24.5529 7.80139 24.492 7.80139 24.43C7.80139 24.3691 7.7948 24.3071 7.78272 24.2469C7.77063 24.1867 7.75269 24.1277 7.72925 24.0712C7.70581 24.0139 7.67688 23.9596 7.64319 23.909C7.60913 23.8572 7.56995 23.8092 7.52673 23.7663C7.30847 23.5483 6.98511 23.4478 6.68042 23.5098C6.62036 23.5219 6.5614 23.5399 6.50501 23.5633C6.44897 23.5868 6.39441 23.6158 6.34277 23.6496C6.29224 23.6833 6.24353 23.723 6.20032 23.7663C6.15747 23.8092 6.11792 23.8572 6.08423 23.909C6.05054 23.9596 6.02161 24.0139 5.99817 24.0712C5.97473 24.1277 5.95679 24.1867 5.9447 24.2469C5.93225 24.3071 5.92566 24.3691 5.92566 24.43C5.92566 24.492 5.93225 24.5529 5.9447 24.6142C5.95679 24.6733 5.97473 24.7324 5.99817 24.7896Z" fill="url(#paint0_linear_260_2081)"/>
<path id="Vector_2" d="M31.7897 33.692C31.7391 33.6583 31.6846 33.6293 31.6274 33.6058C31.5714 33.5823 31.5121 33.5644 31.4524 33.5522C31.1477 33.4902 30.8243 33.5908 30.6068 33.8087C30.5636 33.8517 30.5244 33.8997 30.4896 33.9515C30.4559 34.0021 30.4277 34.0564 30.4043 34.1136C30.3809 34.1702 30.3622 34.2292 30.3508 34.2894C30.3387 34.3496 30.3322 34.4116 30.3322 34.4725C30.3322 34.5334 30.3387 34.5954 30.3508 34.6567C30.3622 34.7169 30.3809 34.7748 30.4043 34.8321C30.4277 34.8886 30.4567 34.9429 30.4907 34.9939C30.5244 35.0453 30.5636 35.0933 30.6068 35.1366C30.65 35.1796 30.6976 35.2192 30.7493 35.2541C30.7998 35.2878 30.8544 35.3168 30.9104 35.3403C30.9675 35.3638 31.0269 35.3817 31.0865 35.3939C31.1466 35.406 31.2085 35.4118 31.2697 35.4118C31.3304 35.4118 31.3923 35.406 31.4524 35.3939C31.5121 35.3817 31.5714 35.3638 31.6274 35.3403C31.6846 35.3168 31.7391 35.2878 31.7897 35.2541C31.8413 35.2192 31.8889 35.1796 31.9321 35.1366C31.9753 35.0933 32.0145 35.0453 32.0486 34.9939C32.0823 34.9429 32.1112 34.8886 32.1346 34.8321C32.1581 34.7748 32.1768 34.7169 32.1881 34.6567C32.2002 34.5954 32.2068 34.5334 32.2068 34.4725C32.2068 34.2256 32.1064 33.9834 31.9321 33.8087C31.8889 33.7654 31.8413 33.7258 31.7897 33.692Z" fill="url(#paint1_linear_260_2081)"/>
<path id="Vector_3" d="M32.9374 11.2947H29.6016C29.0837 11.2947 28.6641 11.7152 28.6641 12.2341C28.6641 12.7525 29.0837 13.173 29.6016 13.173H32.9374C33.4552 13.173 33.8749 12.7525 33.8749 12.2341C33.8749 11.7152 33.4552 11.2947 32.9374 11.2947Z" fill="url(#paint2_linear_260_2081)"/>
<path id="Vector_4" d="M41.644 34.1137C41.6206 34.0564 41.5913 34.0021 41.5576 33.9515C41.5239 33.8997 41.4847 33.8517 41.4415 33.8087C41.3983 33.7654 41.3496 33.7258 41.2991 33.6921C41.2474 33.6583 41.1929 33.6293 41.1368 33.6058C41.0804 33.5823 41.0215 33.5644 40.9614 33.5523C40.8406 33.5277 40.7161 33.5277 40.5952 33.5523C40.5352 33.5644 40.4758 33.5823 40.4198 33.6058C40.3634 33.6293 40.3092 33.6583 40.2576 33.6921C40.207 33.7258 40.1591 33.7654 40.1151 33.8087C39.9408 33.9834 39.8405 34.2256 39.8405 34.4725C39.8405 34.5334 39.847 34.5954 39.8591 34.6567C39.8716 34.7169 39.8892 34.7749 39.9126 34.8321C39.936 34.8886 39.965 34.9429 39.999 34.9939C40.0334 35.0453 40.0719 35.0933 40.1151 35.1366C40.1591 35.1796 40.207 35.2192 40.2576 35.2541C40.3092 35.2878 40.3634 35.3168 40.4198 35.3403C40.4758 35.3638 40.5352 35.3818 40.5952 35.3939C40.656 35.406 40.7168 35.4118 40.7787 35.4118C40.8398 35.4118 40.9006 35.406 40.9614 35.3939C41.0215 35.3818 41.0804 35.3638 41.1368 35.3403C41.1929 35.3168 41.2474 35.2878 41.2991 35.2541C41.3496 35.2192 41.3972 35.1796 41.4415 35.1366C41.4847 35.0933 41.5228 35.0453 41.5576 34.9939C41.5913 34.9429 41.6206 34.8886 41.644 34.8321C41.6675 34.7749 41.6851 34.7169 41.6975 34.6567C41.7096 34.5954 41.7151 34.5334 41.7151 34.4725C41.7151 34.4116 41.7096 34.3496 41.6975 34.2894C41.6851 34.2292 41.6675 34.1702 41.644 34.1137Z" fill="url(#paint3_linear_260_2081)"/>
<path id="Vector_5" d="M46.9688 39.6652C46.4513 39.6652 46.0316 40.0857 46.0316 40.6046V41.5362H35.525V40.6046C35.525 40.0857 35.1054 39.6652 34.5875 39.6652C34.0701 39.6652 33.6504 40.0857 33.6504 40.6046V41.5362H22.4022V40.6046C22.4022 40.0857 21.9825 39.6652 21.4651 39.6652C20.9473 39.6652 20.5276 40.0857 20.5276 40.6046V41.5362H1.7959V40.6046C1.7959 40.0857 1.37622 39.6652 0.858398 39.6652C0.340942 39.6652 -0.0787354 40.0857 -0.0787354 40.6046V42.3122C-0.0878906 42.3654 -0.09375 42.4194 -0.09375 42.4752C-0.09375 42.5309 -0.0878906 42.5849 -0.0787354 42.6381V44.3461C-0.0787354 44.8646 0.340942 45.2851 0.858398 45.2851C1.37622 45.2851 1.7959 44.8646 1.7959 44.3461V43.4145H20.5276V44.3461C20.5276 44.8646 20.9473 45.2851 21.4651 45.2851C21.9825 45.2851 22.4022 44.8646 22.4022 44.3461V43.4145H33.6504V44.3461C33.6504 44.8646 34.0701 45.2851 34.5875 45.2851C35.1054 45.2851 35.525 44.8646 35.525 44.3461V43.4145H46.0316V44.3461C46.0316 44.8646 46.4513 45.2851 46.9688 45.2851C47.4866 45.2851 47.9063 44.8646 47.9063 44.3461V40.6046C47.9063 40.0857 47.4866 39.6652 46.9688 39.6652Z" fill="url(#paint4_linear_260_2081)"/>
<path id="Vector_6" d="M3.61523 31.0531H12.5284L12.0392 35.8217L9.90198 35.8221C9.38416 35.8221 8.96484 36.2429 8.96484 36.7614C8.96484 37.2802 9.38452 37.7007 9.90234 37.7004L12.8771 37.7C12.88 37.7 12.8833 37.7007 12.8862 37.7007C12.8899 37.7007 12.8932 37.7 12.8965 37.7L24.5651 37.6985C24.6489 37.704 24.735 37.707 24.8232 37.707L37.8124 37.6703H43.9618C46.1367 37.6703 47.9063 35.8976 47.9063 33.7185C47.9063 33.7185 47.9063 18.3134 47.9063 18.313C47.9063 18.3126 47.9063 17.978 47.9063 17.978C47.9063 15.7985 46.1367 14.0251 43.9618 14.0251H41.6627V12.4293C41.6627 10.2501 39.8928 8.47751 37.7172 8.47751H37.3846V6.58123C37.3846 4.53194 35.7202 2.86499 33.6746 2.86499H3.61633C1.57031 2.86499 -0.09375 4.53194 -0.09375 6.58123V27.3369C-0.09375 29.3858 1.56995 31.0531 3.61523 31.0531ZM14.413 31.0531H20.8762V33.7552C20.8762 34.5077 21.0916 35.2163 21.4644 35.8206L13.9237 35.8217L14.413 31.0531ZM46.0316 31.4905H35.525V19.2523H46.0316V31.4905ZM33.6504 17.978V31.4905H22.7509V15.9034H34.2389C33.8661 16.507 33.6504 17.2177 33.6504 17.978ZM24.8207 35.8287C24.7643 35.8287 24.709 35.8268 24.6588 35.8232C23.5891 35.7406 22.7509 34.8325 22.7509 33.7548V33.3688H33.6504V33.7185C33.6504 34.4828 33.8687 35.1968 34.2451 35.8022L24.8207 35.8287ZM43.9618 35.792H37.8098C37.8091 35.792 37.808 35.792 37.8073 35.792H37.5945C36.4534 35.792 35.525 34.8618 35.525 33.7185V33.3688H46.0316V33.7185C46.0316 34.8618 45.1033 35.792 43.9618 35.792ZM45.9419 17.374H35.6147C35.8726 16.5261 36.6588 15.9067 37.5875 15.9034H40.7252H40.7285H43.9618C44.8934 15.9034 45.6834 16.5239 45.9419 17.374ZM39.7881 12.4293V14.0251H37.5945C37.5923 14.0251 37.5897 14.0251 37.5875 14.0251H22.7509V12.4293C22.7509 11.286 23.6796 10.3558 24.8207 10.3558H37.7175C38.859 10.3558 39.7881 11.286 39.7881 12.4293ZM3.61633 4.74329H33.6746C34.6868 4.74329 35.51 5.56778 35.51 6.58123V8.47715H24.8207C22.6458 8.47715 20.8762 10.2501 20.8762 12.4293V23.5039H10.6443C10.1265 23.5039 9.70679 23.9244 9.70679 24.4433C9.70679 24.9617 10.1265 25.3822 10.6443 25.3822H20.8762V29.1748H13.5692C13.5677 29.1748 13.5667 29.1748 13.5652 29.1748H3.61523C2.60376 29.1748 1.78088 28.3503 1.78088 27.3369V25.3822H3.14539C3.66321 25.3822 4.08289 24.9617 4.08289 24.4433C4.08289 23.9244 3.66321 23.5039 3.14539 23.5039H1.78088V6.58123C1.78088 5.56778 2.60413 4.74329 3.61633 4.74329Z" fill="url(#paint5_linear_260_2081)"/>
</g>
<defs>
<linearGradient id="paint0_linear_260_2081" x1="7.44524" y1="22.2233" x2="6.05413" y2="22.6351" gradientUnits="userSpaceOnUse">
<stop stop-color="#0B96B4"/>
<stop offset="1" stop-color="#551DB0"/>
</linearGradient>
<linearGradient id="paint1_linear_260_2081" x1="31.8508" y1="32.2655" x2="30.4604" y2="32.6768" gradientUnits="userSpaceOnUse">
<stop stop-color="#0B96B4"/>
<stop offset="1" stop-color="#551DB0"/>
</linearGradient>
<linearGradient id="paint2_linear_260_2081" x1="32.8855" y1="10.0256" x2="30.3771" y2="12.0875" gradientUnits="userSpaceOnUse">
<stop stop-color="#0B96B4"/>
<stop offset="1" stop-color="#551DB0"/>
</linearGradient>
<linearGradient id="paint3_linear_260_2081" x1="41.3591" y1="32.2649" x2="39.9686" y2="32.6762" gradientUnits="userSpaceOnUse">
<stop stop-color="#0B96B4"/>
<stop offset="1" stop-color="#551DB0"/>
</linearGradient>
<linearGradient id="paint4_linear_260_2081" x1="38.7923" y1="35.868" x2="33.5635" y2="49.101" gradientUnits="userSpaceOnUse">
<stop stop-color="#0B96B4"/>
<stop offset="1" stop-color="#551DB0"/>
</linearGradient>
<linearGradient id="paint5_linear_260_2081" x1="38.7923" y1="-20.6769" x2="5.60389" y2="-7.12918" gradientUnits="userSpaceOnUse">
<stop stop-color="#0B96B4"/>
<stop offset="1" stop-color="#551DB0"/>
</linearGradient>
<clipPath id="clip0_260_2081">
<rect width="48" height="48" fill="white"/>
</clipPath>
</defs>
</svg>
