<svg width="48" height="48" viewBox="0 0 48 48" fill="none" xmlns="http://www.w3.org/2000/svg">
<g id="diploma">
<g id="Group">
<g id="Group_2">
<g id="Group_3">
<path id="Vector" d="M28.8022 16.7883C28.8022 17.2301 29.16 17.5886 29.6025 17.5886H37.6057C38.0483 17.5886 38.406 17.2301 38.406 16.7883C38.406 16.3466 38.0483 15.988 37.6057 15.988H29.6025C29.16 15.9879 28.8022 16.3465 28.8022 16.7883Z" fill="url(#paint0_linear_260_2150)"/>
<path id="Vector_2" d="M33.604 21.5903C33.604 22.0321 33.9617 22.3906 34.4043 22.3906H39.2062C39.6488 22.3906 40.0065 22.0321 40.0065 21.5903C40.0065 21.1486 39.6488 20.79 39.2062 20.79H34.4043C33.9617 20.7899 33.604 21.1485 33.604 21.5903Z" fill="url(#paint1_linear_260_2150)"/>
<path id="Vector_3" d="M32.8038 12.7867C33.2464 12.7867 33.6041 12.4282 33.6041 11.9864C33.6041 11.5447 33.2464 11.1862 32.8038 11.1862H31.2031C30.7605 11.1862 30.4028 11.5447 30.4028 11.9864C30.4028 12.4282 30.7605 12.7867 31.2031 12.7867H32.8038Z" fill="url(#paint2_linear_260_2150)"/>
<path id="Vector_4" d="M23.1997 20.7899C22.7571 20.7899 22.3994 21.1485 22.3994 21.5902C22.3994 22.0319 22.7571 22.3905 23.1997 22.3905H31.2029C31.6455 22.3905 32.0032 22.0319 32.0032 21.5902C32.0032 21.1485 31.6455 20.7899 31.2029 20.7899H23.1997Z" fill="url(#paint3_linear_260_2150)"/>
<path id="Vector_5" d="M27.2019 43.1989H11.9959C10.6721 43.1989 9.59489 42.1217 9.59489 40.798V3.98315C9.59489 3.54141 9.23719 3.18286 8.7946 3.18286C6.58816 3.18286 4.79297 4.97795 4.79297 7.18449C4.79297 7.62623 5.15067 7.98478 5.59326 7.98478C6.03584 7.98478 6.39355 7.62623 6.39355 7.18449C6.39355 6.14083 7.06263 5.25088 7.99422 4.92037V40.798C7.99422 43.0044 9.78931 44.7996 11.9959 44.7996H27.2019C27.6445 44.7996 28.0022 44.441 28.0022 43.9993C28.0022 43.5576 27.6445 43.1989 27.2019 43.1989Z" fill="url(#paint4_linear_260_2150)"/>
<path id="Vector_6" d="M15.1968 17.5886H26.4013C26.8439 17.5886 27.2016 17.2301 27.2016 16.7883C27.2016 16.3466 26.8439 15.988 26.4013 15.988H15.1968C14.7542 15.988 14.3965 16.3466 14.3965 16.7883C14.3965 17.2301 14.7542 17.5886 15.1968 17.5886Z" fill="url(#paint5_linear_260_2150)"/>
<path id="Vector_7" d="M15.1968 12.7867H18.398C18.8406 12.7867 19.1983 12.4282 19.1983 11.9864C19.1983 11.5447 18.8406 11.1862 18.398 11.1862H15.1968C14.7542 11.1862 14.3965 11.5447 14.3965 11.9864C14.3965 12.4282 14.7542 12.7867 15.1968 12.7867Z" fill="url(#paint6_linear_260_2150)"/>
<path id="Vector_8" d="M28.0022 11.186H21.5996C21.157 11.186 20.7993 11.5446 20.7993 11.9863C20.7993 12.4281 21.157 12.7866 21.5996 12.7866H28.0022C28.4448 12.7866 28.8025 12.4281 28.8025 11.9863C28.8026 11.5446 28.4448 11.186 28.0022 11.186Z" fill="url(#paint7_linear_260_2150)"/>
<path id="Vector_9" d="M39.2064 0H8.79419C4.83176 0 1.6065 3.21644 1.59131 7.17484V7.18441V7.19322V7.20288V7.21245C1.60172 9.76469 2.97908 12.1424 5.19191 13.423C5.57447 13.6438 6.06347 13.5134 6.28509 13.1317C6.50756 12.7491 6.3755 12.2593 5.99379 12.0384C4.26838 11.0388 3.19517 9.18368 3.19198 7.19332C3.19761 4.10883 5.70821 1.60067 8.79419 1.60067H39.2064C42.2948 1.60067 44.8086 4.11371 44.8086 7.20288V40.8163C44.8086 41.2221 44.6949 41.6295 44.4813 41.9928C44.258 42.3738 44.3844 42.8644 44.7654 43.0884C44.8934 43.1637 45.0327 43.1989 45.1703 43.1989C45.4449 43.1989 45.7122 43.0581 45.861 42.8044C46.2195 42.1953 46.4092 41.5078 46.4092 40.8163V7.20288C46.4093 3.23089 43.1784 0 39.2064 0Z" fill="url(#paint8_linear_260_2150)"/>
<path id="Vector_10" d="M41.6073 36.7963C41.6073 34.148 39.4536 31.9944 36.8053 31.9944C34.1571 31.9944 32.0034 34.148 32.0034 36.7963C32.0034 39.4446 34.1571 41.5982 36.8053 41.5982C39.4536 41.5982 41.6073 39.4446 41.6073 36.7963ZM36.8053 39.9976C35.0398 39.9976 33.6041 38.5618 33.6041 36.7963C33.6041 35.0309 35.0399 33.5951 36.8053 33.5951C38.5709 33.5951 40.0066 35.0309 40.0066 36.7963C40.0066 38.5618 38.5709 39.9976 36.8053 39.9976Z" fill="url(#paint9_linear_260_2150)"/>
<path id="Vector_11" d="M35.361 42.3994C34.9793 42.1786 34.4895 42.3098 34.2677 42.6923L32.5447 45.6783L32.271 45.2654C32.1326 45.0549 31.9029 44.922 31.6516 44.9077L31.1569 44.8781L32.9089 41.8449C33.1297 41.4623 32.9985 40.9726 32.616 40.7516C32.2334 40.5299 31.7437 40.6612 31.5219 41.0445L29.1234 45.199C28.985 45.4391 28.981 45.7344 29.1122 45.9785C29.2434 46.2225 29.4915 46.3818 29.7692 46.3978L31.1562 46.481L31.922 47.6407C32.0701 47.8656 32.3214 48 32.5895 48H32.6144C32.8905 47.9911 33.1442 47.8399 33.2835 47.5998L35.6548 43.4925C35.8756 43.1102 35.7444 42.6203 35.361 42.3994Z" fill="url(#paint10_linear_260_2150)"/>
<path id="Vector_12" d="M42.1101 41.0821C41.8884 40.6988 41.3978 40.5675 41.0169 40.7892C40.6336 41.0101 40.5023 41.4999 40.7231 41.8824L42.4543 44.878L41.9596 44.9076C41.7084 44.9228 41.4787 45.0557 41.3394 45.2653L41.0673 45.6782L39.3531 42.7074C39.1306 42.3249 38.6408 42.1937 38.259 42.4145C37.8765 42.6354 37.7453 43.1253 37.9661 43.5078L40.3287 47.5999C40.4679 47.84 40.7216 47.9912 40.9977 48H41.0226C41.2899 48 41.542 47.8656 41.6908 47.6407L42.4559 46.4819L43.8421 46.3979C44.1198 46.3818 44.3679 46.2226 44.4992 45.9785C44.6305 45.7345 44.6256 45.4392 44.488 45.1991L42.1101 41.0821Z" fill="url(#paint11_linear_260_2150)"/>
<path id="Vector_13" d="M15.1968 22.3906H19.9987C20.4413 22.3906 20.799 22.0321 20.799 21.5903C20.799 21.1486 20.4413 20.79 19.9987 20.79H15.1968C14.7542 20.79 14.3965 21.1486 14.3965 21.5903C14.3965 22.0321 14.7542 22.3906 15.1968 22.3906Z" fill="url(#paint12_linear_260_2150)"/>
<path id="Vector_14" d="M15.1968 27.1925H24.8006C25.2432 27.1925 25.6009 26.8339 25.6009 26.3922C25.6009 25.9505 25.2432 25.5919 24.8006 25.5919H15.1968C14.7542 25.5919 14.3965 25.9505 14.3965 26.3922C14.3965 26.8339 14.7542 27.1925 15.1968 27.1925Z" fill="url(#paint13_linear_260_2150)"/>
<path id="Vector_15" d="M15.2818 37.154C15.4787 37.5493 15.9597 37.7094 16.355 37.5126C16.7504 37.3148 16.9113 36.8339 16.7128 36.4385C15.9204 34.8539 15.7428 33.4325 16.2357 32.6346C16.4983 32.2096 16.956 31.9943 17.5979 31.9943C17.9796 31.9943 18.1221 32.1255 18.2118 32.2536C18.808 33.1132 18.2414 35.731 17.6484 37.3156C17.5163 37.6685 17.6484 38.0655 17.9653 38.2696C18.2806 38.4721 18.6976 38.4281 18.9641 38.1624C19.3059 37.8215 19.6764 37.4813 19.999 37.2052V37.5966C19.999 37.9199 20.1935 38.212 20.4928 38.3353C20.792 38.4601 21.1354 38.3913 21.3651 38.1624C21.7309 37.7975 22.155 37.4397 22.5119 37.182C22.5023 37.202 22.4927 37.2212 22.4831 37.2396C22.3606 37.4877 22.3742 37.7823 22.52 38.0175C22.6665 38.2528 22.9234 38.3969 23.2002 38.3969H26.4015C26.8441 38.3969 27.2018 38.0383 27.2018 37.5966C27.2018 37.1548 26.8441 36.7963 26.4015 36.7963H24.3183C24.3831 36.4153 24.3671 36.028 24.1742 35.7159C23.9701 35.3854 23.6148 35.1956 23.2002 35.1956C22.7056 35.1956 22.1238 35.4965 21.5924 35.8695C21.5516 35.5205 21.3451 35.2332 21.0314 35.1036C20.8177 35.0156 20.5424 34.9004 19.8741 35.3013C20.1374 33.9224 20.2143 32.3329 19.5276 31.3422C19.2275 30.9092 18.6497 30.3938 17.598 30.3938C16.3991 30.3938 15.4315 30.8908 14.8738 31.7936C14.0758 33.0852 14.2238 35.0388 15.2818 37.154Z" fill="url(#paint14_linear_260_2150)"/>
<path id="Vector_16" d="M36.8054 26.3922C36.8054 25.9505 36.4477 25.5919 36.0051 25.5919H28.0019C27.5594 25.5919 27.2017 25.9505 27.2017 26.3922C27.2017 26.8339 27.5594 27.1925 28.0019 27.1925H36.0051C36.4477 27.1925 36.8054 26.8339 36.8054 26.3922Z" fill="url(#paint15_linear_260_2150)"/>
</g>
</g>
</g>
</g>
<defs>
<linearGradient id="paint0_linear_260_2150" x1="36.5825" y1="14.9066" x2="34.7207" y2="18.2166" gradientUnits="userSpaceOnUse">
<stop stop-color="#0B96B4"/>
<stop offset="1" stop-color="#551DB0"/>
</linearGradient>
<linearGradient id="paint1_linear_260_2150" x1="38.7908" y1="19.7086" x2="36.6433" y2="22.254" gradientUnits="userSpaceOnUse">
<stop stop-color="#0B96B4"/>
<stop offset="1" stop-color="#551DB0"/>
</linearGradient>
<linearGradient id="paint2_linear_260_2150" x1="32.9962" y1="10.1047" x2="31.0852" y2="11.2372" gradientUnits="userSpaceOnUse">
<stop stop-color="#0B96B4"/>
<stop offset="1" stop-color="#551DB0"/>
</linearGradient>
<linearGradient id="paint3_linear_260_2150" x1="30.1797" y1="19.7084" x2="28.3179" y2="23.0185" gradientUnits="userSpaceOnUse">
<stop stop-color="#0B96B4"/>
<stop offset="1" stop-color="#551DB0"/>
</linearGradient>
<linearGradient id="paint4_linear_260_2150" x1="23.5954" y1="-24.9365" x2="5.37154" y2="-21.9251" gradientUnits="userSpaceOnUse">
<stop stop-color="#0B96B4"/>
<stop offset="1" stop-color="#551DB0"/>
</linearGradient>
<linearGradient id="paint5_linear_260_2150" x1="24.7702" y1="14.9066" x2="23.2098" y2="18.6056" gradientUnits="userSpaceOnUse">
<stop stop-color="#0B96B4"/>
<stop offset="1" stop-color="#551DB0"/>
</linearGradient>
<linearGradient id="paint6_linear_260_2150" x1="18.2866" y1="10.1047" x2="16.1229" y2="12.028" gradientUnits="userSpaceOnUse">
<stop stop-color="#0B96B4"/>
<stop offset="1" stop-color="#551DB0"/>
</linearGradient>
<linearGradient id="paint7_linear_260_2150" x1="27.2829" y1="10.1046" x2="25.2624" y2="13.0981" gradientUnits="userSpaceOnUse">
<stop stop-color="#0B96B4"/>
<stop offset="1" stop-color="#551DB0"/>
</linearGradient>
<linearGradient id="paint8_linear_260_2150" x1="37.8995" y1="-29.1885" x2="4.86903" y2="-19.0346" gradientUnits="userSpaceOnUse">
<stop stop-color="#0B96B4"/>
<stop offset="1" stop-color="#551DB0"/>
</linearGradient>
<linearGradient id="paint9_linear_260_2150" x1="39.7838" y1="25.5053" x2="32.6622" y2="27.6155" gradientUnits="userSpaceOnUse">
<stop stop-color="#0B96B4"/>
<stop offset="1" stop-color="#551DB0"/>
</linearGradient>
<linearGradient id="paint10_linear_260_2150" x1="34.4812" y1="35.6734" x2="29.4142" y2="37.0502" gradientUnits="userSpaceOnUse">
<stop stop-color="#0B96B4"/>
<stop offset="1" stop-color="#551DB0"/>
</linearGradient>
<linearGradient id="paint11_linear_260_2150" x1="43.3156" y1="35.7364" x2="38.2585" y2="37.1155" gradientUnits="userSpaceOnUse">
<stop stop-color="#0B96B4"/>
<stop offset="1" stop-color="#551DB0"/>
</linearGradient>
<linearGradient id="paint12_linear_260_2150" x1="19.5833" y1="19.7086" x2="17.4358" y2="22.254" gradientUnits="userSpaceOnUse">
<stop stop-color="#0B96B4"/>
<stop offset="1" stop-color="#551DB0"/>
</linearGradient>
<linearGradient id="paint13_linear_260_2150" x1="23.4735" y1="24.5104" x2="21.769" y2="28.046" gradientUnits="userSpaceOnUse">
<stop stop-color="#0B96B4"/>
<stop offset="1" stop-color="#551DB0"/>
</linearGradient>
<linearGradient id="paint14_linear_260_2150" x1="24.7646" y1="24.9863" x2="16.3184" y2="29.0001" gradientUnits="userSpaceOnUse">
<stop stop-color="#0B96B4"/>
<stop offset="1" stop-color="#551DB0"/>
</linearGradient>
<linearGradient id="paint15_linear_260_2150" x1="34.9819" y1="24.5104" x2="33.1201" y2="27.8205" gradientUnits="userSpaceOnUse">
<stop stop-color="#0B96B4"/>
<stop offset="1" stop-color="#551DB0"/>
</linearGradient>
</defs>
</svg>
