<svg width="24" height="24" viewBox="0 0 24 24" fill="none" xmlns="http://www.w3.org/2000/svg">
<g id="Social / mail / Square / 24pt">
<g id="Vector">
<path fill-rule="evenodd" clip-rule="evenodd" d="M20 1.33333H4C2.52724 1.33333 1.33333 2.52724 1.33333 4V20C1.33333 21.4728 2.52724 22.6667 4 22.6667H20C21.4728 22.6667 22.6667 21.4728 22.6667 20V4C22.6667 2.52724 21.4728 1.33333 20 1.33333ZM4 0C1.79086 0 0 1.79086 0 4V20C0 22.2091 1.79086 24 4 24H20C22.2091 24 24 22.2091 24 20V4C24 1.79086 22.2091 0 20 0H4Z" fill="url(#paint0_linear_4924_1837)"/>
<path d="M17.4762 17.238C17.7762 17.238 18.0352 17.139 18.2571 16.9438L14.4781 13.1657L14.2162 13.3542C13.9333 13.5628 13.7038 13.7257 13.5276 13.8419C13.3049 13.9825 13.0696 14.102 12.8247 14.199C12.5663 14.3127 12.288 14.3742 12.0057 14.38H11.9914C11.7091 14.3742 11.4308 14.3127 11.1724 14.199C10.9275 14.1021 10.6922 13.9825 10.4695 13.8419C10.2364 13.6849 10.0071 13.5223 9.78189 13.3542L9.52093 13.1647L5.74284 16.9438C5.96379 17.139 6.22284 17.239 6.52284 17.239H17.4752L17.4762 17.238Z" fill="url(#paint1_linear_4924_1837)"/>
<path d="M6.08571 10.7876C5.80865 10.6043 5.55586 10.3867 5.33333 10.14V15.8876L8.66286 12.5581C7.99619 12.0924 7.13905 11.5028 6.08476 10.7866L6.08571 10.7876Z" fill="url(#paint2_linear_4924_1837)"/>
<path d="M17.9228 10.7876C16.9095 11.4733 16.0476 12.0638 15.3381 12.559L18.6666 15.8876V10.14C18.4533 10.3781 18.2057 10.5933 17.9228 10.7876Z" fill="url(#paint3_linear_4924_1837)"/>
<path d="M17.4762 6.76186H6.52381C6.1419 6.76186 5.84762 6.89044 5.6419 7.14853C5.43619 7.40663 5.33333 7.72948 5.33333 8.11615C5.33333 8.42853 5.46952 8.76663 5.74286 9.13139C6.01524 9.49615 6.30476 9.78282 6.61333 9.99139C6.78191 10.1104 7.28952 10.4638 8.1381 11.0514C8.78903 11.5025 9.43887 11.9552 10.0876 12.4095L10.199 12.4885L10.4038 12.6362C10.5657 12.7523 10.699 12.8466 10.8057 12.919C10.9124 12.9914 11.0419 13.0714 11.1933 13.1609C11.3438 13.2495 11.4867 13.3171 11.621 13.3609C11.7543 13.4066 11.8781 13.4285 11.9924 13.4285H12.0076C12.1219 13.4285 12.2457 13.4066 12.379 13.3619C12.5133 13.3171 12.6552 13.2504 12.8076 13.1609C12.9388 13.084 13.0677 13.0033 13.1943 12.919C13.301 12.8466 13.4352 12.7523 13.5962 12.6362C13.7013 12.5602 13.8067 12.4846 13.9124 12.4095L14.6648 11.8857L17.3943 9.99044C17.7562 9.73806 18.059 9.43329 18.3029 9.07615C18.5448 8.71901 18.6667 8.34472 18.6667 7.95234C18.6667 7.62472 18.5486 7.34472 18.3133 7.11139C18.2047 6.99931 18.0743 6.91053 17.9302 6.85044C17.7861 6.79035 17.6323 6.76021 17.4762 6.76186Z" fill="url(#paint4_linear_4924_1837)"/>
</g>
</g>
<defs>
<linearGradient id="paint0_linear_4924_1837" x1="19.443" y1="-16.2162" x2="1.64621" y2="-10.9429" gradientUnits="userSpaceOnUse">
<stop stop-color="#0B96B4"/>
<stop offset="1" stop-color="#551DB0"/>
</linearGradient>
<linearGradient id="paint1_linear_4924_1837" x1="19.443" y1="-16.2162" x2="1.64621" y2="-10.9429" gradientUnits="userSpaceOnUse">
<stop stop-color="#0B96B4"/>
<stop offset="1" stop-color="#551DB0"/>
</linearGradient>
<linearGradient id="paint2_linear_4924_1837" x1="19.443" y1="-16.2162" x2="1.64621" y2="-10.9429" gradientUnits="userSpaceOnUse">
<stop stop-color="#0B96B4"/>
<stop offset="1" stop-color="#551DB0"/>
</linearGradient>
<linearGradient id="paint3_linear_4924_1837" x1="19.443" y1="-16.2162" x2="1.64621" y2="-10.9429" gradientUnits="userSpaceOnUse">
<stop stop-color="#0B96B4"/>
<stop offset="1" stop-color="#551DB0"/>
</linearGradient>
<linearGradient id="paint4_linear_4924_1837" x1="19.443" y1="-16.2162" x2="1.64621" y2="-10.9429" gradientUnits="userSpaceOnUse">
<stop stop-color="#0B96B4"/>
<stop offset="1" stop-color="#551DB0"/>
</linearGradient>
</defs>
</svg>
