<svg width="48" height="48" viewBox="0 0 48 48" fill="none" xmlns="http://www.w3.org/2000/svg">
<g id="font">
<g id="Group">
<path id="Vector" d="M48.0001 10.7705V9.19812H41.2393V10.7705H43.8335V37.2293H41.2393V38.8016H48.0001V37.2293H45.4058V10.7705H48.0001Z" fill="url(#paint0_linear_260_2186)"/>
<g id="Group_2">
<path id="Vector_2" d="M0.291717 32.402L8.20462 14.5328C8.75629 13.3006 9.76128 12.5544 11.1238 12.5544H11.4156C12.7772 12.5544 13.7505 13.3005 14.3016 14.5328L22.2148 32.402C22.3769 32.7588 22.4745 33.083 22.4745 33.4075C22.4745 34.737 21.4366 35.8072 20.1068 35.8072C18.9394 35.8072 18.1609 35.1263 17.7071 34.0883L16.183 30.5212H6.19435L4.60523 34.2507C4.18353 35.2235 3.34056 35.8072 2.30268 35.8072C1.00499 35.8072 0 34.7695 0 33.4722C0 33.1155 0.129558 32.7588 0.291717 32.402ZM14.3343 26.1106L11.1884 18.6191L8.04274 26.1106H14.3343Z" fill="url(#paint1_linear_260_2186)"/>
<path id="Vector_3" d="M24.8403 30.6183V30.5534C24.8403 26.7591 27.7267 25.0078 31.8453 25.0078C33.5968 25.0078 34.8617 25.2997 36.0941 25.7214V25.4295C36.0941 23.3862 34.8291 22.2514 32.3644 22.2514C31.0024 22.2514 29.8997 22.4459 28.9592 22.7379C28.6675 22.8351 28.4727 22.8674 28.2454 22.8674C27.1107 22.8674 26.2027 21.9919 26.2027 20.8569C26.2027 19.9812 26.7538 19.2353 27.532 18.9433C29.0886 18.3596 30.7753 18.0353 33.0778 18.0353C35.7693 18.0353 37.7154 18.7487 38.9479 19.981C40.245 21.2782 40.8287 23.1918 40.8287 25.5268V33.4397C40.8287 34.7696 39.7585 35.8071 38.4288 35.8071C37.0018 35.8071 36.0615 34.8019 36.0615 33.764V33.7315C34.8616 35.0611 33.2072 35.9367 30.8077 35.9367C27.532 35.937 24.8403 34.0563 24.8403 30.6183ZM36.1586 29.4832V28.6077C35.3154 28.2186 34.2128 27.959 33.0129 27.959C30.9047 27.959 29.6077 28.8023 29.6077 30.3588V30.4237C29.6077 31.7535 30.7104 32.5316 32.2994 32.5316C34.6019 32.5318 36.1586 31.2671 36.1586 29.4832Z" fill="url(#paint2_linear_260_2186)"/>
</g>
</g>
</g>
<defs>
<linearGradient id="paint0_linear_260_2186" x1="46.7164" y1="-10.8042" x2="41.2877" y2="-10.4369" gradientUnits="userSpaceOnUse">
<stop stop-color="#0B96B4"/>
<stop offset="1" stop-color="#551DB0"/>
</linearGradient>
<linearGradient id="paint1_linear_260_2186" x1="18.2072" y1="-3.1569" x2="1.45256" y2="1.64141" gradientUnits="userSpaceOnUse">
<stop stop-color="#0B96B4"/>
<stop offset="1" stop-color="#551DB0"/>
</linearGradient>
<linearGradient id="paint2_linear_260_2186" x1="37.7929" y1="5.93972" x2="25.7402" y2="9.12937" gradientUnits="userSpaceOnUse">
<stop stop-color="#0B96B4"/>
<stop offset="1" stop-color="#551DB0"/>
</linearGradient>
</defs>
</svg>
