<svg width="49" height="48" viewBox="0 0 49 48" fill="none" xmlns="http://www.w3.org/2000/svg">
<g id="vector">
<g id="Group">
<g id="Group_2">
<path id="Vector" d="M44.835 18.9212H44.4525C43.4819 12.1192 38.9576 6.15974 32.3298 3.49977H41.1269C41.4396 4.70212 42.5344 5.59236 43.8332 5.59236C45.375 5.59236 46.6294 4.33799 46.6294 2.79618C46.6294 1.25437 45.3748 0 43.8331 0C42.5343 0 41.4396 0.890248 41.1268 2.09259H27.8379V1.80403C27.8379 0.809249 27.0286 0 26.0339 0H24.0499C23.0551 0 22.2457 0.809342 22.2457 1.80403V2.0925H8.84279C8.52995 0.890248 7.43532 0 6.13642 0C4.5947 0 3.34033 1.25437 3.34033 2.79618C3.34033 4.33799 4.5947 5.59236 6.13642 5.59236C7.43523 5.59236 8.52995 4.70212 8.8427 3.49977H17.7538C11.1288 6.15861 6.60198 12.1167 5.6312 18.9212H5.14445C4.14967 18.9212 3.34033 19.7305 3.34033 20.7252V22.7092C3.34033 23.704 4.14967 24.5132 5.14445 24.5132H7.12848C8.12326 24.5132 8.93251 23.7039 8.93251 22.7092V20.7252C8.93251 19.7304 8.12317 18.9212 7.12848 18.9212H7.05254C8.25067 11.1455 14.4712 4.91971 22.2456 3.71465V3.78806C22.2456 4.78284 23.055 5.59218 24.0498 5.59218H26.0338C27.0286 5.59218 27.8378 4.78284 27.8378 3.78806V3.71465C35.6123 4.91962 41.8328 11.1455 43.0309 18.9212H42.8509C41.8561 18.9212 41.0468 19.7305 41.0468 20.7252V22.7092C41.0468 23.704 41.8561 24.5132 42.8509 24.5132H44.8348C45.8296 24.5132 46.639 23.7039 46.639 22.7092V20.7252C46.6391 19.7305 45.8298 18.9212 44.835 18.9212ZM42.4485 2.7119C42.4925 1.98525 43.0958 1.40718 43.8332 1.40718C44.5991 1.40718 45.2222 2.03025 45.2222 2.79618C45.2222 3.56212 44.5992 4.18518 43.8332 4.18518C43.0959 4.18518 42.4926 3.60712 42.4485 2.88065C42.4518 2.85299 42.4541 2.82496 42.4541 2.79628C42.4541 2.76768 42.4518 2.73956 42.4485 2.7119ZM6.13642 4.18509C5.37058 4.18509 4.74742 3.56202 4.74742 2.79609C4.74742 2.03025 5.37048 1.40718 6.13642 1.40718C6.90236 1.40718 7.52532 2.03025 7.52532 2.79618C7.52532 3.56212 6.90226 4.18509 6.13642 4.18509ZM7.12839 20.3284C7.34729 20.3283 7.52532 20.5064 7.52532 20.7253V22.7093C7.52532 22.9282 7.34729 23.1061 7.12848 23.1061H5.14436C4.92545 23.1061 4.74742 22.9282 4.74742 22.7093V20.7253C4.74742 20.5064 4.92545 20.3284 5.14436 20.3284H7.12839ZM26.4306 3.78815C26.4307 4.00706 26.2527 4.18509 26.0338 4.18509H24.0498C23.8309 4.18509 23.6528 4.00706 23.6528 3.78815C23.6528 3.02568 23.6528 2.544 23.6528 1.80412C23.6528 1.58522 23.8309 1.40728 24.0498 1.40728H26.0338C26.2527 1.40728 26.4306 1.58522 26.4306 1.80412C26.4306 2.54578 26.4306 3.02521 26.4306 3.78815ZM45.2319 22.7093C45.2319 22.9282 45.0538 23.1061 44.8349 23.1061H42.851C42.6321 23.1061 42.4541 22.9282 42.4541 22.7093V20.7253C42.4541 20.5064 42.6321 20.3284 42.851 20.3284H44.8349C45.0538 20.3284 45.2319 20.5064 45.2319 20.7253V22.7093Z" fill="url(#paint0_linear_260_2249)"/>
</g>
</g>
<g id="Group_3">
<g id="Group_4">
<path id="Vector_2" d="M31.9662 34.3004L37.235 28.9573C37.5079 28.6807 37.5048 28.2353 37.2282 27.9625C36.9514 27.6895 36.5058 27.6926 36.2331 27.9693L30.9643 33.3123C30.4984 33.7846 30.2419 34.4102 30.2419 35.0736V37.4912H19.936V35.0736C19.936 34.41 19.6794 33.7845 19.2137 33.3121L13.7149 27.7362C13.3193 27.335 13.2625 26.706 13.5797 26.2405L24.3854 10.3831V25.9256H24.1174C22.7622 25.9256 21.6597 27.0282 21.6597 28.3832C21.6597 29.7385 22.7623 30.841 24.1174 30.841H26.0606C27.4158 30.841 28.5183 29.7384 28.5183 28.3832C28.5183 27.0281 27.4157 25.9256 26.0606 25.9256H25.7927V10.383L36.1456 25.5763C36.3645 25.8973 36.8021 25.9802 37.1234 25.7615C37.4444 25.5426 37.5274 25.1049 37.3086 24.7838L26.2193 8.51033C25.6768 7.71411 24.4991 7.71748 23.9586 8.51033L12.4168 25.448C11.7219 26.4676 11.8464 27.8456 12.7129 28.7242L18.2117 34.3002C18.4161 34.5075 18.5287 34.7822 18.5287 35.0736V37.5122C17.644 37.64 16.9613 38.4011 16.9613 39.3206V42.0465C16.9613 43.0552 17.782 43.8759 18.7907 43.8759H19.622V46.2745C19.622 47.226 20.3959 47.9999 21.3473 47.9999H23.3484C23.737 47.9999 24.052 47.685 24.052 47.2963C24.052 46.9076 23.737 46.5927 23.3484 46.5927H21.3474C21.172 46.5927 21.0293 46.45 21.0293 46.2745V43.8759H29.1488V46.2745C29.1488 46.4499 29.0061 46.5927 28.8307 46.5927H26.6319C26.2432 46.5927 25.9283 46.9076 25.9283 47.2963C25.9283 47.685 26.2432 47.9999 26.6319 47.9999H28.8307C29.7821 47.9999 30.556 47.226 30.556 46.2745V43.8759H31.3874C32.396 43.8759 33.2167 43.0552 33.2167 42.0465V39.3206C33.2167 38.4011 32.5339 37.64 31.6492 37.5122V35.0736C31.6491 34.7823 31.7617 34.5077 31.9662 34.3004ZM26.0606 27.3329C26.6399 27.3328 27.1112 27.804 27.1112 28.3833C27.1112 28.9626 26.6399 29.4339 26.0606 29.4339H24.1174C23.5382 29.4339 23.0669 28.9626 23.0669 28.3833C23.0669 27.804 23.5382 27.3329 24.1174 27.3329H26.0606ZM31.8094 39.3207V42.0466C31.8094 42.2754 31.6161 42.4688 31.3873 42.4688C30.9251 42.4688 19.245 42.4688 18.7907 42.4688C18.5618 42.4688 18.3685 42.2754 18.3685 42.0466V39.3207C18.3685 39.0919 18.5618 38.8986 18.7907 38.8986C19.2445 38.8986 30.9293 38.8986 31.3873 38.8986C31.6161 38.8986 31.8094 39.0918 31.8094 39.3207Z" fill="url(#paint1_linear_260_2249)"/>
</g>
</g>
</g>
<defs>
<linearGradient id="paint0_linear_260_2249" x1="38.4177" y1="-16.563" x2="11.0013" y2="-2.21391" gradientUnits="userSpaceOnUse">
<stop stop-color="#0B96B4"/>
<stop offset="1" stop-color="#551DB0"/>
</linearGradient>
<linearGradient id="paint1_linear_260_2249" x1="32.6018" y1="-19.1703" x2="12.7608" y2="-15.435" gradientUnits="userSpaceOnUse">
<stop stop-color="#0B96B4"/>
<stop offset="1" stop-color="#551DB0"/>
</linearGradient>
</defs>
</svg>
