<svg width="48" height="48" viewBox="0 0 48 48" fill="none" xmlns="http://www.w3.org/2000/svg">
<g id="layer" clip-path="url(#clip0_260_2173)">
<g id="Group">
<g id="Group_2">
<path id="Vector" d="M46.6985 33.0646L39.4588 29.5698L46.6985 26.0749C48.4345 25.2368 48.4342 22.7631 46.6985 21.9254L39.459 18.4304L46.6985 14.9355C48.4347 14.0974 48.4338 11.6236 46.6985 10.7861L35.9562 5.60007C35.6076 5.43169 35.1888 5.57803 35.0205 5.92641C34.8523 6.27488 34.9985 6.69385 35.3469 6.86213L46.0894 12.0481C46.7706 12.3771 46.7714 13.3441 46.0894 13.6734C45.251 14.0782 25.2647 23.7264 24.3928 24.1475C24.1434 24.2677 23.8575 24.2677 23.6082 24.1475C22.926 23.8181 2.37242 13.896 1.91164 13.6734C1.23027 13.3445 1.22952 12.3774 1.91164 12.0481L23.6081 1.57416C23.8574 1.45369 24.1434 1.45379 24.3928 1.57407L32.3986 5.43891C32.7471 5.60729 33.166 5.46085 33.3343 5.11257C33.5026 4.7641 33.3564 4.34513 33.008 4.17685L25.002 0.31191C24.3655 0.00478514 23.6355 0.0046914 22.9989 0.312004L1.30236 10.786C-0.433891 11.6241 -0.432953 14.0978 1.30236 14.9354L8.54192 18.4303L1.30236 21.9253C-0.434078 22.7633 -0.432859 25.2371 1.30236 26.0747L8.54202 29.5697L1.30236 33.0645C-0.433984 33.9028 -0.432672 36.3764 1.30236 37.214L22.999 47.6881C23.6351 47.995 24.3655 47.9953 25.0021 47.688L33.7929 43.4442C34.1414 43.2759 34.2875 42.8571 34.1193 42.5085C33.9511 42.16 33.5321 42.0136 33.1835 42.1822L24.3928 46.4258C24.1434 46.5463 23.8573 46.5462 23.6081 46.4259L1.91145 35.952C1.23008 35.623 1.22933 34.656 1.91145 34.3267L10.1537 30.3478L22.9988 36.5487C23.6354 36.856 24.3655 36.8561 25.002 36.5487L37.8471 30.3478L46.0893 34.3266C46.7706 34.6554 46.7715 35.6226 46.0893 35.9519L36.132 40.7587C35.7835 40.9269 35.6374 41.3458 35.8055 41.6944C35.9738 42.0428 36.3927 42.1893 36.7413 42.0207L46.6985 37.214C48.4348 36.3759 48.4336 33.9023 46.6985 33.0646ZM24.3927 35.2867C24.1433 35.4069 23.8574 35.4069 23.6081 35.2867L1.91155 24.8127C1.23017 24.4838 1.22933 23.5167 1.91155 23.1874L10.1537 19.2083L22.9989 25.4093C23.6355 25.7168 24.3656 25.7168 25.0021 25.4093L37.8473 19.2083L46.0895 23.1874C46.7707 23.5163 46.7716 24.4834 46.0894 24.8127L24.3927 35.2867Z" fill="url(#paint0_linear_260_2173)"/>
</g>
</g>
</g>
<defs>
<linearGradient id="paint0_linear_260_2173" x1="38.8865" y1="-32.2406" x2="3.31251" y2="-21.6639" gradientUnits="userSpaceOnUse">
<stop stop-color="#0B96B4"/>
<stop offset="1" stop-color="#551DB0"/>
</linearGradient>
<clipPath id="clip0_260_2173">
<rect width="48" height="48" fill="white"/>
</clipPath>
</defs>
</svg>
