<svg width="48" height="48" viewBox="0 0 48 48" fill="none" xmlns="http://www.w3.org/2000/svg">
<g id="layout">
<g id="Group">
<g id="Group_2">
<path id="Vector" d="M6.66379 24.0562C6.48941 23.8809 6.24838 23.7816 6.00098 23.7816C5.75441 23.7816 5.51254 23.8809 5.33816 24.0562C5.16388 24.2306 5.06348 24.4716 5.06348 24.7191C5.06348 24.9656 5.16379 25.2075 5.33816 25.3819C5.51254 25.5562 5.75441 25.6566 6.00098 25.6566C6.24848 25.6566 6.48941 25.5562 6.66379 25.3819C6.83807 25.2075 6.93848 24.9656 6.93848 24.7191C6.93848 24.4716 6.83816 24.2306 6.66379 24.0562Z" fill="url(#paint0_linear_260_2258)"/>
</g>
</g>
<g id="Group_3">
<g id="Group_4">
<path id="Vector_2" d="M42.6625 9.27487L33.6625 0.274594C33.4866 0.0988125 33.2482 0 32.9996 0H7.87695C6.32614 0 5.06445 1.26169 5.06445 2.8125V21C5.06445 21.5177 5.48427 21.9375 6.00195 21.9375C6.51964 21.9375 6.93945 21.5177 6.93945 21V2.8125C6.93945 2.29556 7.36002 1.875 7.87695 1.875H32.0621V8.06278C32.0621 9.61359 33.3238 10.8753 34.8746 10.8753H41.0621V45.1875C41.0621 45.7044 40.6415 46.125 40.1246 46.125H7.87695C7.36002 46.125 6.93945 45.7044 6.93945 45.1875V29.0625C6.93945 28.5448 6.51964 28.125 6.00195 28.125C5.48427 28.125 5.06445 28.5448 5.06445 29.0625V45.1875C5.06445 46.7383 6.32614 48 7.87695 48H40.1246C41.6754 48 42.9371 46.7383 42.9371 45.1875V9.93778C42.9371 9.68916 42.8383 9.45075 42.6625 9.27487ZM34.8746 9.00028C34.3577 9.00028 33.9371 8.57972 33.9371 8.06278V3.20091L39.7364 9.00028H34.8746Z" fill="url(#paint1_linear_260_2258)"/>
</g>
</g>
<g id="Group_5">
<g id="Group_6">
<path id="Vector_3" d="M36 41.25H30.4688C29.9511 41.25 29.5312 41.6698 29.5312 42.1875C29.5312 42.7052 29.9511 43.125 30.4688 43.125H36C36.5177 43.125 36.9375 42.7052 36.9375 42.1875C36.9375 41.6698 36.5178 41.25 36 41.25Z" fill="url(#paint2_linear_260_2258)"/>
</g>
</g>
<g id="Group_7">
<g id="Group_8">
<path id="Vector_4" d="M26.9127 41.5247C26.7384 41.3503 26.4966 41.25 26.25 41.25C26.0034 41.25 25.7616 41.3502 25.5872 41.5247C25.4128 41.6992 25.3125 41.9409 25.3125 42.1875C25.3125 42.4341 25.4128 42.6759 25.5872 42.8502C25.7616 43.0246 26.0034 43.125 26.25 43.125C26.4966 43.125 26.7384 43.0247 26.9127 42.8502C27.0871 42.6759 27.1875 42.4341 27.1875 42.1875C27.1875 41.9409 27.0872 41.6991 26.9127 41.5247Z" fill="url(#paint3_linear_260_2258)"/>
</g>
</g>
<g id="Group_9">
<g id="Group_10">
<path id="Vector_5" d="M36 36.375H26.25C25.7323 36.375 25.3125 36.7948 25.3125 37.3125C25.3125 37.8302 25.7323 38.25 26.25 38.25H36C36.5177 38.25 36.9375 37.8302 36.9375 37.3125C36.9375 36.7948 36.5177 36.375 36 36.375Z" fill="url(#paint4_linear_260_2258)"/>
</g>
</g>
<g id="Group_11">
<g id="Group_12">
<path id="Vector_6" d="M36 30.7812H26.25C25.7323 30.7812 25.3125 31.2011 25.3125 31.7188C25.3125 32.2364 25.7323 32.6562 26.25 32.6562H36C36.5177 32.6562 36.9375 32.2364 36.9375 31.7188C36.9375 31.2011 36.5177 30.7812 36 30.7812Z" fill="url(#paint5_linear_260_2258)"/>
</g>
</g>
<g id="Group_13">
<g id="Group_14">
<path id="Vector_7" d="M21.75 10.125H12C11.4823 10.125 11.0625 10.5448 11.0625 11.0625V24.1875C11.0625 24.7052 11.4823 25.125 12 25.125H21.75C22.2677 25.125 22.6875 24.7052 22.6875 24.1875V11.0625C22.6875 10.5448 22.2678 10.125 21.75 10.125ZM12.9374 12H20.8125V17.1742L19.9129 16.2746C19.5467 15.9086 18.9533 15.9086 18.587 16.2746L12.9374 21.9242V12ZM20.8126 23.25H14.2634L19.2501 18.2633L20.8126 19.8259V23.25Z" fill="url(#paint6_linear_260_2258)"/>
</g>
</g>
<g id="Group_15">
<g id="Group_16">
<path id="Vector_8" d="M36 12.7812H26.25C25.7323 12.7812 25.3125 13.201 25.3125 13.7187V26.8437C25.3125 27.3614 25.7323 27.7812 26.25 27.7812H36C36.5177 27.7812 36.9375 27.3614 36.9375 26.8437V13.7187C36.9375 13.201 36.5178 12.7812 36 12.7812ZM35.0625 25.9062H28.5134L33.5 20.9196L35.0625 22.4822V25.9062ZM35.0625 19.8303L34.1629 18.9307C33.7967 18.5647 33.2032 18.5647 32.837 18.9307L27.1874 24.5803V14.6562H35.0625V19.8303Z" fill="url(#paint7_linear_260_2258)"/>
</g>
</g>
<g id="Group_17">
<g id="Group_18">
<path id="Vector_9" d="M21.75 28.125H12C11.4823 28.125 11.0625 28.5448 11.0625 29.0625V42.1875C11.0625 42.7052 11.4823 43.125 12 43.125H21.75C22.2677 43.125 22.6875 42.7052 22.6875 42.1875V29.0625C22.6875 28.5448 22.2677 28.125 21.75 28.125ZM12.9374 30H20.8125V35.1742L19.9129 34.2746C19.5467 33.9086 18.9533 33.9086 18.587 34.2746L12.9374 39.9242V30ZM20.8126 41.25H14.2634L19.2501 36.2633L20.8126 37.8259V41.25Z" fill="url(#paint8_linear_260_2258)"/>
</g>
</g>
</g>
<defs>
<linearGradient id="paint0_linear_260_2258" x1="6.58246" y1="22.5147" x2="5.19209" y2="22.9266" gradientUnits="userSpaceOnUse">
<stop stop-color="#0B96B4"/>
<stop offset="1" stop-color="#551DB0"/>
</linearGradient>
<linearGradient id="paint1_linear_260_2258" x1="35.7461" y1="-32.4324" x2="6.77976" y2="-25.6604" gradientUnits="userSpaceOnUse">
<stop stop-color="#0B96B4"/>
<stop offset="1" stop-color="#551DB0"/>
</linearGradient>
<linearGradient id="paint2_linear_260_2258" x1="35.5313" y1="39.9831" x2="33.0103" y2="42.9336" gradientUnits="userSpaceOnUse">
<stop stop-color="#0B96B4"/>
<stop offset="1" stop-color="#551DB0"/>
</linearGradient>
<linearGradient id="paint3_linear_260_2258" x1="26.8315" y1="39.9831" x2="25.4411" y2="40.3951" gradientUnits="userSpaceOnUse">
<stop stop-color="#0B96B4"/>
<stop offset="1" stop-color="#551DB0"/>
</linearGradient>
<linearGradient id="paint4_linear_260_2258" x1="34.7302" y1="35.1081" x2="32.5868" y2="39.0457" gradientUnits="userSpaceOnUse">
<stop stop-color="#0B96B4"/>
<stop offset="1" stop-color="#551DB0"/>
</linearGradient>
<linearGradient id="paint5_linear_260_2258" x1="34.7302" y1="29.5144" x2="32.5868" y2="33.452" gradientUnits="userSpaceOnUse">
<stop stop-color="#0B96B4"/>
<stop offset="1" stop-color="#551DB0"/>
</linearGradient>
<linearGradient id="paint6_linear_260_2258" x1="20.4802" y1="-0.0101327" x2="11.5728" y2="2.03535" gradientUnits="userSpaceOnUse">
<stop stop-color="#0B96B4"/>
<stop offset="1" stop-color="#551DB0"/>
</linearGradient>
<linearGradient id="paint7_linear_260_2258" x1="34.7302" y1="2.64605" x2="25.8228" y2="4.69154" gradientUnits="userSpaceOnUse">
<stop stop-color="#0B96B4"/>
<stop offset="1" stop-color="#551DB0"/>
</linearGradient>
<linearGradient id="paint8_linear_260_2258" x1="20.4802" y1="17.9899" x2="11.5728" y2="20.0354" gradientUnits="userSpaceOnUse">
<stop stop-color="#0B96B4"/>
<stop offset="1" stop-color="#551DB0"/>
</linearGradient>
</defs>
</svg>
