<svg width="36" height="36" viewBox="0 0 36 36" fill="none" xmlns="http://www.w3.org/2000/svg">
<path fill-rule="evenodd" clip-rule="evenodd" d="M5.45455 2.18182H30.5455C32.3529 2.18182 33.8182 3.64707 33.8182 5.45455V30.5455C33.8182 32.3529 32.3529 33.8182 30.5455 33.8182H5.45454C3.64707 33.8182 2.18182 32.3529 2.18182 30.5455V5.45454C2.18182 3.64707 3.64707 2.18182 5.45455 2.18182ZM0 5.45454C0 2.44208 2.44208 0 5.45455 0H30.5455C33.5579 0 36 2.44208 36 5.45455V30.5455C36 33.5579 33.5579 36 30.5455 36H5.45454C2.44208 36 0 33.5579 0 30.5455V5.45454ZM7.63636 10.1741C7.63659 8.77415 8.77233 7.63636 10.1755 7.63636C11.5752 7.63636 12.7128 8.77392 12.7128 10.1741C12.7128 11.5755 11.5755 12.713 10.1757 12.713C8.7721 12.713 7.63636 11.5755 7.63636 10.1741ZM7.98551 14.2367H12.3639V28.3237H7.98551V14.2367ZM23.1117 13.8867C20.9819 13.8867 19.5538 15.0545 18.9692 16.1619H18.9107V14.237H14.7114H14.7112V28.3238H19.0857V21.355C19.0857 19.5178 19.4355 17.7382 21.7133 17.7382C23.9585 17.7382 23.9884 19.8394 23.9884 21.4728V28.3235H28.3636V20.597C28.3636 16.8043 27.5453 13.8867 23.1117 13.8867Z" fill="url(#paint0_linear_4681_6736)"/>
<defs>
<linearGradient id="paint0_linear_4681_6736" x1="29.1646" y1="-24.3243" x2="2.46932" y2="-16.4144" gradientUnits="userSpaceOnUse">
<stop stop-color="#0B96B4"/>
<stop offset="1" stop-color="#551DB0"/>
</linearGradient>
</defs>
</svg>
