<svg width="48" height="48" viewBox="0 0 48 48" fill="none" xmlns="http://www.w3.org/2000/svg">
<g id="snapchat" clip-path="url(#clip0_260_2124)">
<path id="Vector" d="M23.9787 3.45635C30.4209 3.4585 35.7872 8.8218 35.795 15.2796C35.7968 16.7921 35.8435 18.185 35.9288 19.468C35.9815 20.2597 36.6399 20.8463 37.395 20.8463C37.5062 20.8463 37.6194 20.8336 37.7332 20.807L39.7513 20.3339C39.8372 20.3137 39.9234 20.304 40.0086 20.304C40.5211 20.304 40.9931 20.6543 41.1082 21.173C41.2708 21.906 40.8601 22.6466 40.1499 22.8956L37.0865 24.1322C36.3131 24.4444 35.8977 25.2862 36.1155 26.0913C38.5732 35.1775 45.4379 34.2325 45.4379 35.4163C45.4379 36.9028 40.2637 37.1127 39.7962 37.5802C39.3287 38.0478 39.7759 40.3168 38.7314 40.7561C38.5345 40.8389 38.2549 40.8677 37.9137 40.8677C37.127 40.8677 36.0143 40.7142 34.8416 40.7142C33.8244 40.7142 32.762 40.8297 31.828 41.2612C29.3502 42.4058 26.9614 44.5437 24.0001 44.5437C21.0387 44.5437 18.6499 42.4058 16.1721 41.2612C15.2379 40.8296 14.1758 40.7142 13.1585 40.7142C11.9859 40.7142 10.873 40.8677 10.0864 40.8677C9.74545 40.8677 9.46545 40.8388 9.26867 40.7561C8.2242 40.3168 8.67136 38.0478 8.2039 37.5802C7.73645 37.1127 2.56225 36.9027 2.56225 35.4162C2.56225 34.2323 9.42692 35.1773 11.8846 26.0912C12.1024 25.2862 11.687 24.4444 10.9135 24.1321L7.85011 22.8955C7.13975 22.6465 6.72907 21.9059 6.89183 21.1729C7.00693 20.654 7.47889 20.3038 7.99144 20.3039C8.07651 20.3039 8.16281 20.3136 8.24869 20.3338L10.2668 20.8069C10.3806 20.8335 10.4938 20.8462 10.605 20.8462C11.36 20.8462 12.0185 20.2595 12.0712 19.4679C12.1565 18.1849 12.2033 16.792 12.2051 15.2795C12.2129 8.8218 17.5364 3.45861 23.9787 3.45635ZM23.9796 0.894104H23.9786H23.9777C22.0548 0.894719 20.1816 1.28111 18.4104 2.04261C16.7102 2.77346 15.18 3.81558 13.8624 5.14005C12.5465 6.46279 11.5109 7.99839 10.7845 9.70424C10.0291 11.478 9.64501 13.3528 9.64266 15.2764C9.64153 16.2208 9.62195 17.1374 9.58424 18.0151L8.8334 17.8391C8.5579 17.7745 8.27462 17.7417 7.99165 17.7416C7.1745 17.7415 6.36841 18.0177 5.72191 18.5193C5.04742 19.0426 4.57443 19.7878 4.39026 20.6177C3.95191 22.5929 5.0426 24.5871 6.93272 25.2883L9.18104 26.1959C7.69227 30.7655 4.94708 31.6412 3.09847 32.231C2.60796 32.3875 2.18426 32.5227 1.78086 32.7228C0.173515 33.5206 0 34.8722 0 35.4162C0 36.4582 0.493181 37.4091 1.38884 38.0936C1.83477 38.4345 2.38719 38.7157 3.07757 38.9534C4.01853 39.2774 5.10932 39.483 5.99586 39.6478C6.0387 39.9763 6.10153 40.3291 6.2074 40.6848C6.64698 42.1617 7.57462 42.8231 8.27544 43.1178C8.9404 43.3975 9.62749 43.4298 10.0864 43.4298C10.5353 43.4298 11.0099 43.3946 11.5123 43.3574C12.0513 43.3174 12.6086 43.2762 13.1585 43.2762C14.0106 43.2762 14.6449 43.3779 15.0976 43.587C15.7192 43.8741 16.3784 44.2614 17.0763 44.6712C19.0194 45.8123 21.2216 47.1058 24.0001 47.1058C26.7786 47.1058 28.9806 45.8123 30.9237 44.6712C31.6216 44.2613 32.2808 43.8741 32.9025 43.587C33.3552 43.3778 33.9895 43.2762 34.8416 43.2762C35.3915 43.2762 35.9488 43.3175 36.4877 43.3574C36.9901 43.3946 37.4647 43.4298 37.9136 43.4298C38.3725 43.4298 39.0595 43.3975 39.7246 43.1178C40.4254 42.8231 41.353 42.1617 41.7926 40.6848C41.8985 40.3291 41.9614 39.9763 42.0041 39.6478C42.8907 39.4829 43.9816 39.2774 44.9224 38.9534C45.6129 38.7157 46.1652 38.4345 46.6112 38.0936C47.5067 37.4091 48 36.4582 48 35.4162C48 34.8722 47.8265 33.5206 46.2189 32.7229C45.8155 32.5228 45.3918 32.3876 44.9013 32.2311C43.0527 31.6414 40.3075 30.7656 38.8188 26.196L41.067 25.2884C42.9571 24.5872 44.0479 22.5929 43.6095 20.6177C43.4254 19.7878 42.9524 19.0426 42.2779 18.5193C41.6314 18.0178 40.8255 17.7416 40.0086 17.7416C39.7256 17.7416 39.4423 17.7744 39.1666 17.839L38.4157 18.015C38.3779 17.1374 38.3584 16.2208 38.3572 15.2763C38.3549 13.3511 37.9677 11.4745 37.2063 9.69839C36.4754 7.99337 35.4342 6.45818 34.1117 5.13534C32.7893 3.81261 31.2548 2.77162 29.5511 2.04138C27.7765 1.2808 25.902 0.894821 23.9796 0.894104Z" fill="url(#paint0_linear_260_2124)"/>
</g>
<defs>
<linearGradient id="paint0_linear_260_2124" x1="38.8861" y1="-30.33" x2="3.51764" y2="-19.4445" gradientUnits="userSpaceOnUse">
<stop stop-color="#0B96B4"/>
<stop offset="1" stop-color="#551DB0"/>
</linearGradient>
<clipPath id="clip0_260_2124">
<rect width="48" height="48" fill="white"/>
</clipPath>
</defs>
</svg>
