<svg width="48" height="48" viewBox="0 0 48 48" fill="none" xmlns="http://www.w3.org/2000/svg">
<g id="megaphone">
<g id="Group">
<g id="Group_2">
<g id="Group_3">
<path id="Vector" d="M43.209 22.6727C43.209 20.2611 41.3906 18.2674 39.0532 17.9873V5.88328C39.0532 5.14218 38.5724 4.51462 37.8568 4.32178C37.1414 4.12912 36.4104 4.42987 36.0381 5.07046C33.4812 9.4694 29.4541 12.4762 24.0685 14.0074C19.9961 15.1652 16.6356 14.9974 16.6031 14.9954C16.5538 14.9926 16.5048 14.9949 16.4562 14.9998H7.84519C3.51938 14.9998 0 18.5192 0 22.845C0 26.9195 3.12253 30.2772 7.10006 30.6538L9.69731 41.334C10.0412 42.7481 11.2978 43.7358 12.7532 43.7358H14.5558C15.527 43.7358 16.4282 43.2979 17.0284 42.5343C17.6286 41.7707 17.8411 40.7915 17.6117 39.8478L15.3847 30.6901H16.4546C16.5034 30.6951 16.5526 30.6974 16.6023 30.6946C16.6357 30.6927 19.9961 30.5247 24.0685 31.6826C29.454 33.2138 33.4811 36.2206 36.0381 40.6194C36.3353 41.131 36.8612 41.4259 37.4252 41.4259C37.5677 41.4259 37.7125 41.407 37.8568 41.3682C38.5724 41.1754 39.0532 40.5479 39.0532 39.8068V27.7026C41.3906 27.4226 43.209 25.4289 43.209 23.0173V22.6727ZM15.4935 39.0728L15.7897 40.2908C15.8824 40.6719 15.7966 41.0674 15.5542 41.3757C15.3119 41.6841 14.948 41.8609 14.5558 41.8609H12.7532C12.1655 41.8609 11.6581 41.4621 11.5192 40.891L9.03853 30.6902H13.455L14.1172 33.4132H13.669C13.1512 33.4132 12.7315 33.8329 12.7315 34.3507C12.7315 34.8684 13.1512 35.2882 13.669 35.2882H14.5731L15.0375 37.1978H14.7437C14.2259 37.1978 13.8062 37.6176 13.8062 38.1353C13.8062 38.6531 14.2259 39.0728 14.7437 39.0728H15.4935ZM15.6125 24.8368H9.78628C9.2685 24.8368 8.84878 25.2565 8.84878 25.7743C8.84878 26.2921 9.2685 26.7118 9.78628 26.7118H15.6125V28.8152H14.2429C14.2257 28.8142 14.2087 28.813 14.1912 28.813H7.84519C7.83628 28.813 7.82747 28.8143 7.81856 28.8145C4.53891 28.8 1.875 26.128 1.875 22.845C1.875 19.5531 4.55325 16.8748 7.84519 16.8748H15.6125V24.8368ZM37.178 18.89V26.8V38.8909C34.3685 34.5216 30.0105 31.4084 24.518 29.8612C21.4768 29.0046 18.85 28.8335 17.4875 28.8112V25.7743V16.8787C18.8502 16.8565 21.4771 16.6853 24.518 15.8287C30.0104 14.2815 34.3685 11.1684 37.178 6.79912V18.89ZM41.3338 23.0173C41.3338 24.393 40.3525 25.5438 39.053 25.8063V19.8837C40.3524 20.1462 41.3338 21.297 41.3338 22.6727V23.0173Z" fill="url(#paint0_linear_260_147)"/>
<path id="Vector_2" d="M43.4896 17.3753C43.7149 17.3753 43.9409 17.2946 44.1205 17.131L46.8246 14.6684C47.2074 14.3197 47.2351 13.7269 46.8864 13.344C46.5378 12.9612 45.9449 12.9336 45.562 13.2821L42.8581 15.7447C42.4753 16.0933 42.4476 16.6862 42.7962 17.0691C42.9813 17.2722 43.235 17.3753 43.4896 17.3753Z" fill="url(#paint1_linear_260_147)"/>
<path id="Vector_3" d="M44.1206 28.559C43.7378 28.2105 43.1449 28.2381 42.7962 28.6209C42.4476 29.0037 42.4753 29.5967 42.8581 29.9453L45.562 32.4079C45.7418 32.5715 45.9678 32.6523 46.1931 32.6523C46.4477 32.6523 46.7015 32.5491 46.8864 32.346C47.2351 31.9632 47.2074 31.3702 46.8246 31.0216L44.1206 28.559Z" fill="url(#paint2_linear_260_147)"/>
<path id="Vector_4" d="M47.0625 21.9075H44.9862C44.4684 21.9075 44.0487 22.3272 44.0487 22.845C44.0487 23.3628 44.4684 23.7825 44.9862 23.7825H47.0625C47.5803 23.7825 48 23.3628 48 22.845C48 22.3272 47.5803 21.9075 47.0625 21.9075Z" fill="url(#paint3_linear_260_147)"/>
<path id="Vector_5" d="M6.78938 25.416C6.76594 25.3588 6.73688 25.3044 6.70313 25.2538C6.66844 25.2023 6.63 25.1544 6.58688 25.1113C6.54281 25.0682 6.495 25.0288 6.44344 24.9951C6.39281 24.9613 6.33844 24.9323 6.28219 24.9088C6.225 24.8854 6.16594 24.8676 6.10688 24.8554C5.98594 24.831 5.86125 24.831 5.74031 24.8554C5.68031 24.8676 5.62125 24.8854 5.565 24.9088C5.50875 24.9323 5.45344 24.9613 5.40281 24.9951C5.35125 25.0288 5.30344 25.0682 5.26031 25.1113C5.21719 25.1544 5.17781 25.2023 5.14406 25.2538C5.11031 25.3044 5.08125 25.3588 5.05781 25.416C5.03438 25.4723 5.01656 25.5313 5.00438 25.5913C4.99219 25.6513 4.98563 25.7132 4.98563 25.7741C4.98563 25.8351 4.99219 25.897 5.00438 25.9579C5.01656 26.017 5.03438 26.076 5.05781 26.1332C5.08125 26.1895 5.11031 26.2438 5.14406 26.2945C5.17781 26.346 5.21719 26.3938 5.26031 26.437C5.30344 26.4801 5.35125 26.5195 5.40281 26.5542C5.45344 26.5879 5.50875 26.617 5.565 26.6404C5.62125 26.6638 5.68031 26.6817 5.74031 26.6938C5.80125 26.706 5.86219 26.7117 5.92313 26.7117C5.985 26.7117 6.04594 26.706 6.10688 26.6938C6.16688 26.6817 6.225 26.6638 6.28219 26.6404C6.33844 26.617 6.39281 26.5879 6.44344 26.5542C6.495 26.5195 6.54281 26.4801 6.58688 26.437C6.63 26.3938 6.66844 26.346 6.70313 26.2945C6.73688 26.2438 6.76594 26.1895 6.78938 26.1332C6.81281 26.076 6.83063 26.017 6.84281 25.9579C6.855 25.897 6.86063 25.8351 6.86063 25.7741C6.86063 25.7132 6.855 25.6513 6.84281 25.5913C6.83063 25.5313 6.81281 25.4723 6.78938 25.416Z" fill="url(#paint4_linear_260_147)"/>
</g>
</g>
</g>
</g>
<defs>
<linearGradient id="paint0_linear_260_147" x1="35.0048" y1="-22.4058" x2="3.46862" y2="-12.1767" gradientUnits="userSpaceOnUse">
<stop stop-color="#0B96B4"/>
<stop offset="1" stop-color="#551DB0"/>
</linearGradient>
<linearGradient id="paint1_linear_260_147" x1="46.2614" y1="10.107" x2="42.897" y2="11.1594" gradientUnits="userSpaceOnUse">
<stop stop-color="#0B96B4"/>
<stop offset="1" stop-color="#551DB0"/>
</linearGradient>
<linearGradient id="paint2_linear_260_147" x1="46.2614" y1="25.3839" x2="42.897" y2="26.4363" gradientUnits="userSpaceOnUse">
<stop stop-color="#0B96B4"/>
<stop offset="1" stop-color="#551DB0"/>
</linearGradient>
<linearGradient id="paint3_linear_260_147" x1="47.2498" y1="20.6406" x2="44.9566" y2="22.0725" gradientUnits="userSpaceOnUse">
<stop stop-color="#0B96B4"/>
<stop offset="1" stop-color="#551DB0"/>
</linearGradient>
<linearGradient id="paint4_linear_260_147" x1="6.50461" y1="23.5705" x2="5.11429" y2="23.9826" gradientUnits="userSpaceOnUse">
<stop stop-color="#0B96B4"/>
<stop offset="1" stop-color="#551DB0"/>
</linearGradient>
</defs>
</svg>
