<svg width="48" height="48" viewBox="0 0 48 48" fill="none" xmlns="http://www.w3.org/2000/svg">
<g id="smartphone" clip-path="url(#clip0_260_2090)">
<g id="Group">
<path id="Vector" d="M36.4205 0H11.5796C9.90389 0 8.54077 1.36322 8.54077 3.03891V44.9612C8.54077 46.6368 9.90399 48.0001 11.5797 48.0001H36.4205C38.0962 48.0001 39.4594 46.6369 39.4594 44.9612V3.03891C39.4593 1.36322 38.0962 0 36.4205 0ZM10.0636 7.63799H37.9366V39.3821H10.0636V7.63799ZM11.5796 1.52281H36.4205C37.2565 1.52281 37.9366 2.20289 37.9366 3.03891V6.62279H10.0636V3.03891C10.0636 2.20289 10.7437 1.52281 11.5796 1.52281ZM36.4205 46.4772H11.5796C10.7437 46.4772 10.0635 45.7971 10.0635 44.9611V40.3972H37.9365V44.9611C37.9365 45.7971 37.2565 46.4772 36.4205 46.4772Z" fill="url(#paint0_linear_260_2090)"/>
<path id="Vector_2" d="M24.0001 41.0703C22.625 41.0703 21.5063 42.1891 21.5063 43.5642C21.5063 44.9393 22.6251 46.0579 24.0001 46.0579C25.3751 46.0579 26.4938 44.9392 26.4938 43.5642C26.4938 42.1892 25.3752 41.0703 24.0001 41.0703ZM24.0001 45.0427C23.1848 45.0427 22.5215 44.3794 22.5215 43.5642C22.5215 42.7489 23.1848 42.0855 24.0001 42.0855C24.8154 42.0855 25.4786 42.7489 25.4786 43.5642C25.4786 44.3794 24.8154 45.0427 24.0001 45.0427Z" fill="url(#paint1_linear_260_2090)"/>
<path id="Vector_3" d="M20.5484 4.83692H27.4518C27.7322 4.83692 27.9594 4.60962 27.9594 4.32932C27.9594 4.04902 27.7322 3.82172 27.4518 3.82172H20.5484C20.268 3.82172 20.0408 4.04902 20.0408 4.32932C20.0408 4.60962 20.268 4.83692 20.5484 4.83692Z" fill="url(#paint2_linear_260_2090)"/>
<path id="Vector_4" d="M18.7212 4.83692C18.8542 4.83692 18.9852 4.78312 19.0796 4.6887C19.174 4.59327 19.2288 4.46333 19.2288 4.32932C19.2288 4.19531 19.174 4.06537 19.0796 3.96994C18.9851 3.87552 18.8541 3.82172 18.7212 3.82172C18.5872 3.82172 18.4572 3.87552 18.3618 3.96994C18.2674 4.06435 18.2136 4.19531 18.2136 4.32932C18.2136 4.46333 18.2674 4.59327 18.3618 4.6887C18.4563 4.78312 18.5872 4.83692 18.7212 4.83692Z" fill="url(#paint3_linear_260_2090)"/>
</g>
</g>
<defs>
<linearGradient id="paint0_linear_260_2090" x1="33.5888" y1="-32.4325" x2="9.52519" y2="-27.8397" gradientUnits="userSpaceOnUse">
<stop stop-color="#0B96B4"/>
<stop offset="1" stop-color="#551DB0"/>
</linearGradient>
<linearGradient id="paint1_linear_260_2090" x1="25.5468" y1="37.7003" x2="21.8484" y2="38.7961" gradientUnits="userSpaceOnUse">
<stop stop-color="#0B96B4"/>
<stop offset="1" stop-color="#551DB0"/>
</linearGradient>
<linearGradient id="paint2_linear_260_2090" x1="26.4558" y1="3.13577" x2="25.4486" y2="5.46367" gradientUnits="userSpaceOnUse">
<stop stop-color="#0B96B4"/>
<stop offset="1" stop-color="#551DB0"/>
</linearGradient>
<linearGradient id="paint3_linear_260_2090" x1="19.0361" y1="3.13577" x2="18.2833" y2="3.35883" gradientUnits="userSpaceOnUse">
<stop stop-color="#0B96B4"/>
<stop offset="1" stop-color="#551DB0"/>
</linearGradient>
<clipPath id="clip0_260_2090">
<rect width="48" height="48" fill="white"/>
</clipPath>
</defs>
</svg>
