<svg width="48" height="48" viewBox="0 0 48 48" fill="none" xmlns="http://www.w3.org/2000/svg">
<g id="eco" clip-path="url(#clip0_260_2129)">
<path id="Vector" d="M37.5674 41.3881C33.6812 44.4087 29.0186 46.0101 24.0846 46.0196C24.0703 46.0196 24.0568 46.0196 24.0425 46.0196C18.1798 46.0196 12.6394 43.6935 8.43891 39.467C4.22711 35.2296 1.93353 29.6573 1.98077 23.777C1.99285 22.2441 2.16351 20.7137 2.48797 19.2294C2.69415 18.2835 3.03143 17.3727 3.4837 16.5224C4.03595 16.8516 4.64899 17.0955 5.30707 17.2365C5.92084 17.368 6.51337 17.4335 7.0832 17.4335C8.60408 17.4335 9.96419 16.9662 11.1419 16.036C15.3654 12.7013 15.6035 4.50586 15.6115 4.15869C15.6174 3.90454 15.5207 3.65881 15.3427 3.47681C15.1651 3.29553 14.9223 3.19336 14.6685 3.19336C14.6682 3.19336 14.6678 3.19336 14.6671 3.19336C13.7127 3.19446 13.2334 3.22375 12.6829 3.27722C12.1644 3.32813 11.785 3.78955 11.8355 4.30811C11.8861 4.82666 12.3464 5.20643 12.8661 5.15552C13.1283 5.12989 13.3674 5.11084 13.6611 5.09839C13.5739 6.08167 13.3725 7.68238 12.9181 9.33913L9.34932 9.48964L9.85322 8.92457C10.2 8.53566 10.166 7.93946 9.77705 7.59266C9.38814 7.24586 8.79194 7.27992 8.44514 7.66847L6.01276 10.3956L5.59894 6.54823C5.78315 6.46217 5.97467 6.37977 6.17499 6.30103C6.65986 6.1106 6.89863 5.56312 6.7082 5.07789C6.51777 4.59302 5.96991 4.35425 5.48505 4.54505C0.135792 6.646 0.254811 10.6798 0.801932 12.8972C1.02386 13.7956 1.44354 14.6049 2.01519 15.2802C1.38238 16.3825 0.916556 17.5789 0.644461 18.8269C0.292531 20.4383 0.107228 22.099 0.0940441 23.762C0.0680431 26.9883 0.690237 30.1348 1.94341 33.1136C3.15082 35.9836 4.88593 38.569 7.10041 40.7971C9.31489 43.0247 11.8886 44.7756 14.7506 46.0002C17.7066 47.2651 20.8326 47.9063 24.0425 47.9063H24.0882C29.4441 47.8961 34.5055 46.1573 38.7254 42.8779C39.1366 42.5582 39.211 41.9657 38.8913 41.554C38.5716 41.1428 37.9787 41.0684 37.5674 41.3881ZM12.268 11.2551C11.7264 12.5578 10.9856 13.7564 9.97041 14.5569C8.79744 15.4823 7.40144 15.7548 5.70185 15.3911C5.27594 15.3 4.87824 15.1439 4.51679 14.937C4.64862 14.7697 4.78558 14.6056 4.92768 14.4463L7.59882 11.4522L12.268 11.2551ZM3.51959 13.1902C3.39142 13.3338 3.268 13.4817 3.14679 13.6308C2.91497 13.2689 2.74139 12.8716 2.63739 12.4512C2.15362 10.4905 2.55352 8.9026 3.82648 7.71278L4.31903 12.2941L3.51959 13.1902Z" fill="url(#paint0_linear_260_2129)"/>
<path id="Vector_2" d="M47.9901 23.7803C47.9729 20.524 47.2042 17.2519 45.7676 14.3174C45.3182 13.3997 44.8019 12.5124 44.2258 11.6631C44.8319 10.7124 45.193 9.60538 45.2486 8.42654C45.3713 5.82204 44.54 3.67201 42.8441 2.20826C40.0265 -0.224484 34.8933 -0.732054 27.5881 0.699835C27.3387 0.748907 27.1193 0.896124 26.9802 1.10889C26.841 1.32166 26.7934 1.58167 26.8487 1.82996C26.9344 2.21778 29.0163 11.3621 34.4728 14.1585C35.5272 14.6987 36.6313 14.9689 37.7768 14.9689C38.8857 14.9689 40.0334 14.7155 41.2119 14.2094C41.8553 13.9333 42.4372 13.5682 42.947 13.1324C44.9707 16.2796 46.0829 19.9534 46.1034 23.7899L46.1037 23.958C46.1037 28.1507 44.7894 32.4951 42.4024 36.1898C42.1197 36.6274 42.2453 37.2115 42.683 37.4942C42.8412 37.5964 43.0188 37.6451 43.1938 37.6451C43.5036 37.6451 43.8069 37.4931 43.9874 37.2137C46.5688 33.2176 47.9905 28.5096 47.9905 23.958L47.9901 23.7803ZM41.1888 8.07351L40.6735 2.99562C42.5753 4.07008 43.478 5.86342 43.3612 8.34487C43.3341 8.91653 43.2022 9.47574 42.9748 9.99686C42.4178 9.32156 41.8213 8.67849 41.1888 8.07351ZM38.6986 2.22401L39.1131 6.30837C37.5322 5.07277 36.1464 4.07521 34.9888 3.34022C34.549 3.0608 33.966 3.19117 33.687 3.63099C33.4075 4.07118 33.5375 4.65382 33.9777 4.93324C34.6322 5.34889 35.3679 5.8561 36.1761 6.44863L30.8268 7.27151C29.867 5.36977 29.2514 3.46583 28.9387 2.36793C33.0032 1.65418 36.2988 1.6106 38.6986 2.22401ZM40.4674 12.4754C38.5865 13.2832 36.9078 13.2847 35.336 12.4801C33.9265 11.7591 32.7645 10.4729 31.8277 9.02639L38.2595 8.03689C38.3378 8.09878 38.4162 8.16067 38.4957 8.22366C39.7569 9.22451 40.8768 10.355 41.8451 11.5866C41.4488 11.9506 40.9856 12.2527 40.4674 12.4754Z" fill="url(#paint1_linear_260_2129)"/>
<path id="Vector_3" d="M11.0532 21.1714V32.5313C11.0532 32.9264 11.4656 33.1326 11.8607 33.1326H17.979C18.3914 33.1326 18.5803 32.7202 18.5803 32.3423C18.5803 31.8955 18.357 31.5172 17.979 31.5172H12.8748V27.5647H15.5214C15.9337 27.5647 16.1231 27.1864 16.1231 26.8601C16.1231 26.4646 15.8993 26.1211 15.5214 26.1211H12.8748V22.1854H17.979C18.357 22.1854 18.5803 21.8075 18.5803 21.3607C18.5803 20.9824 18.3914 20.5701 17.979 20.5701H11.8607C11.4656 20.5701 11.0532 20.7762 11.0532 21.1714Z" fill="url(#paint2_linear_260_2129)"/>
<path id="Vector_4" d="M23.5646 33.2359C25.919 33.2359 27.4831 31.9124 27.4831 30.0224C27.4831 29.2658 27.1908 29.0768 26.5551 29.0768C26.0567 29.0768 25.6956 29.2317 25.6611 29.6785C25.5927 30.4347 25.4378 31.6205 23.6851 31.6205C22.3272 31.6205 21.5881 30.9156 21.5881 29.4035V24.4025C21.5881 22.89 22.3272 22.1854 23.6506 22.1854C25.4205 22.1854 25.6267 23.4229 25.6611 24.0242C25.6784 24.4369 26.0222 24.6259 26.5719 24.6259C27.1908 24.6259 27.4831 24.4541 27.4831 23.6807C27.4831 21.8588 25.9362 20.5701 23.5818 20.5701C21.5024 20.5701 19.7666 21.6182 19.7666 24.4025V29.4035C19.7666 32.1874 21.4852 33.2359 23.5646 33.2359Z" fill="url(#paint3_linear_260_2129)"/>
<path id="Vector_5" d="M31.0657 32.9514C31.6706 33.2509 32.3342 33.4051 33.007 33.4051C33.0326 33.4051 33.0582 33.4036 33.0839 33.4033H33.0872L33.0806 33.4036H33.1095C33.1256 33.4036 33.1414 33.4036 33.1571 33.4029C33.1615 33.4029 33.1663 33.4025 33.1706 33.4025C33.1827 33.4018 33.1945 33.4007 33.2062 33.4003C33.2205 33.3996 33.2344 33.3985 33.2487 33.3978C33.3003 33.3948 33.3519 33.3912 33.4032 33.3864C33.4127 33.3857 33.4222 33.3853 33.4318 33.3846C33.4365 33.3842 33.4405 33.3831 33.4453 33.3824C34.2718 33.3 35.053 32.9894 35.7191 32.4745C37.066 31.4338 37.775 30.1286 37.8267 28.5956C37.9578 24.6955 33.5848 20.7741 33.3988 20.6089C33.2084 20.4401 32.9586 20.3559 32.7048 20.3742C32.451 20.3925 32.2159 20.5122 32.0519 20.7067C30.1168 23.0006 28.8911 25.0668 28.4088 26.8466C28.3835 26.9389 28.3736 27.0326 28.3766 27.1249C28.3378 27.2011 28.3081 27.2835 28.2909 27.3717C27.8067 29.8429 28.7919 31.8245 31.0657 32.9514ZM30.0795 28.934L32.1251 30.6076V31.3554C32.05 31.3272 31.9757 31.2961 31.9036 31.2606C30.7998 30.7134 30.1966 29.9466 30.0795 28.934ZM32.8539 22.708C34.1257 24.0363 36.0103 26.4654 35.9407 28.5323C35.9088 29.4899 35.4587 30.2912 34.5652 30.9819C34.3927 31.1152 34.207 31.2247 34.0118 31.3093V26.2482C34.0118 25.7271 33.5896 25.3048 33.0685 25.3048C32.5474 25.3048 32.1251 25.7271 32.1251 26.2482V28.1697L30.412 26.7686C30.8459 25.5788 31.6641 24.2179 32.8539 22.708Z" fill="url(#paint4_linear_260_2129)"/>
<path id="Vector_6" d="M41.7288 39.1462C41.5336 38.6632 40.9836 38.4299 40.5006 38.6251C40.0175 38.8207 39.7843 39.3707 39.9798 39.8538L39.9897 39.8783C40.138 40.2456 40.4914 40.4683 40.8646 40.4683C40.9825 40.4683 41.1019 40.4459 41.218 40.3991C41.701 40.2039 41.9343 39.6538 41.7387 39.1708L41.7288 39.1462Z" fill="url(#paint5_linear_260_2129)"/>
<path id="Vector_7" d="M8.32291 5.09806C8.47159 5.46464 8.82462 5.68693 9.19706 5.68693C9.31534 5.68693 9.43546 5.66459 9.55191 5.61735C10.0346 5.42142 10.2671 4.87101 10.0708 4.38834L10.0609 4.3638C9.86502 3.88114 9.31461 3.64859 8.83194 3.84452C8.34928 4.04081 8.11673 4.59086 8.31266 5.07352L8.32291 5.09806Z" fill="url(#paint6_linear_260_2129)"/>
</g>
<defs>
<linearGradient id="paint0_linear_260_2129" x1="31.6854" y1="-27.0181" x2="2.19848" y2="-19.398" gradientUnits="userSpaceOnUse">
<stop stop-color="#0B96B4"/>
<stop offset="1" stop-color="#551DB0"/>
</linearGradient>
<linearGradient id="paint1_linear_260_2129" x1="43.9719" y1="-25.593" x2="27.3587" y2="-22.8323" gradientUnits="userSpaceOnUse">
<stop stop-color="#0B96B4"/>
<stop offset="1" stop-color="#551DB0"/>
</linearGradient>
<linearGradient id="paint2_linear_260_2129" x1="17.1511" y1="12.0819" x2="11.265" y2="13.1269" gradientUnits="userSpaceOnUse">
<stop stop-color="#0B96B4"/>
<stop offset="1" stop-color="#551DB0"/>
</linearGradient>
<linearGradient id="paint3_linear_260_2129" x1="26.0179" y1="12.0121" x2="19.9899" y2="13.1003" gradientUnits="userSpaceOnUse">
<stop stop-color="#0B96B4"/>
<stop offset="1" stop-color="#551DB0"/>
</linearGradient>
<linearGradient id="paint4_linear_260_2129" x1="35.9955" y1="11.5654" x2="28.5625" y2="13.1976" gradientUnits="userSpaceOnUse">
<stop stop-color="#0B96B4"/>
<stop offset="1" stop-color="#551DB0"/>
</linearGradient>
<linearGradient id="paint5_linear_260_2129" x1="41.4477" y1="37.2642" x2="40.039" y2="37.6783" gradientUnits="userSpaceOnUse">
<stop stop-color="#0B96B4"/>
<stop offset="1" stop-color="#551DB0"/>
</linearGradient>
<linearGradient id="paint6_linear_260_2129" x1="9.78027" y1="2.4832" x2="8.37159" y2="2.89743" gradientUnits="userSpaceOnUse">
<stop stop-color="#0B96B4"/>
<stop offset="1" stop-color="#551DB0"/>
</linearGradient>
<clipPath id="clip0_260_2129">
<rect width="48" height="48" fill="white"/>
</clipPath>
</defs>
</svg>
