<svg width="49" height="48" viewBox="0 0 49 48" fill="none" xmlns="http://www.w3.org/2000/svg">
<g id="no-photo" clip-path="url(#clip0_260_2227)">
<g id="Group">
<g id="Group_2">
<path id="Vector" d="M24.2983 0C11.0639 0 0.29834 10.7666 0.29834 24C0.29834 37.2334 11.0639 48 24.2983 48C37.5327 48 48.2983 37.2334 48.2983 24C48.2983 10.7666 37.5327 0 24.2983 0ZM24.2983 46C12.1675 46 2.29831 36.1309 2.29831 24C2.29831 18.2938 4.50031 13.1051 8.07593 9.19162L13.0909 14.2067C11.4777 14.7222 10.2983 16.2177 10.2983 18V32C10.2983 34.206 12.0932 36 14.2983 36H34.2983C34.4805 36 34.6546 35.9698 34.8304 35.9462L39.1066 40.2224C35.1932 43.7979 30.0045 46 24.2983 46ZM24.2983 18C22.9884 18 21.7755 18.3844 20.7258 19.0134L17.7124 16H18.8843C19.4175 16 19.9214 15.792 20.2983 15.4141L21.7123 14.0001H26.8842L28.2983 15.4141C28.6752 15.792 29.1792 16 29.7123 16H34.2983C35.4019 16 36.2983 16.8975 36.2983 18V32C36.2983 32.703 35.9124 33.2928 35.3621 33.6496L30.2849 28.5725C30.914 27.5228 31.2984 26.3099 31.2984 24.9999C31.2984 21.1406 28.1577 18 24.2983 18ZM22.1931 20.4807C22.8352 20.1803 23.5437 20 24.2983 20C27.0562 20 29.2983 22.2431 29.2983 24.9999C29.2983 25.7544 29.1179 26.4629 28.8175 27.105L22.1931 20.4807ZM27.6055 28.7212C26.722 29.5072 25.5716 30 24.2983 30C21.5405 30 19.2984 27.7568 19.2984 25C19.2984 23.7271 19.7911 22.5766 20.5772 21.6929L27.6055 28.7212ZM19.1638 20.2795C18.0163 21.5269 17.2984 23.1759 17.2984 25C17.2984 28.8594 20.439 32.0001 24.2984 32.0001C26.1225 32.0001 27.7716 31.282 29.0189 30.1346L32.8844 34.0001H14.2985C13.195 34.0001 12.2985 33.1027 12.2985 32.0002V18C12.2985 16.8975 13.1951 16 14.2985 16H14.8844L19.1638 20.2795ZM40.5207 38.8084L36.8044 35.092C37.708 34.3581 38.2983 33.2525 38.2983 32V18C38.2983 15.794 36.5034 14 34.2983 14H29.7124L28.2984 12.5859C27.9214 12.208 27.4175 12 26.8843 12H21.7124C21.1792 12 20.6753 12.208 20.2984 12.5859L18.8844 14H15.7125L9.48996 7.77759C13.4035 4.20206 18.5922 1.99997 24.2983 1.99997C36.4292 1.99997 46.2984 11.8691 46.2984 24C46.2984 29.7062 44.0963 34.8949 40.5207 38.8084Z" fill="url(#paint0_linear_260_2227)"/>
</g>
</g>
</g>
<defs>
<linearGradient id="paint0_linear_260_2227" x1="39.1844" y1="-32.4324" x2="3.59076" y2="-21.8858" gradientUnits="userSpaceOnUse">
<stop stop-color="#0B96B4"/>
<stop offset="1" stop-color="#551DB0"/>
</linearGradient>
<clipPath id="clip0_260_2227">
<rect width="48" height="48" fill="white" transform="translate(0.29834)"/>
</clipPath>
</defs>
</svg>
