<svg width="25" height="24" viewBox="0 0 25 24" fill="none" xmlns="http://www.w3.org/2000/svg">
<rect x="1.5" y="1" width="22" height="21.9389" rx="4" stroke="url(#paint0_linear_4924_1824)" stroke-width="2"/>
<g clip-path="url(#clip0_4924_1824)">
<path d="M19.4375 19.0347H5.56255C4.42477 19.0347 3.5 18.1123 3.5 16.9775V7.62625C3.5 6.49138 4.42477 5.56909 5.56255 5.56909H10.0625C10.373 5.56909 10.625 5.82045 10.625 6.13016C10.625 6.43987 10.373 6.69123 10.0625 6.69123H5.56255C5.04578 6.69123 4.625 7.1108 4.625 7.62625V16.9775C4.625 17.4929 5.04578 17.9126 5.56255 17.9126H19.4375C19.9542 17.9126 20.375 17.4929 20.375 16.9775V7.62625C20.375 7.1108 19.9542 6.69123 19.4375 6.69123H14.9375C14.627 6.69123 14.375 6.43987 14.375 6.13016C14.375 5.82045 14.627 5.56909 14.9375 5.56909H19.4375C20.5752 5.56909 21.5 6.49138 21.5 7.62625V16.9775C21.5 18.1123 20.5752 19.0347 19.4375 19.0347Z" fill="url(#paint1_linear_4924_1824)"/>
<path d="M14.1875 8.18721H10.8125C10.0887 8.18721 9.5 7.59998 9.5 6.8781V5.38187C9.5 4.65999 10.0887 4.07275 10.8125 4.07275H14.1875C14.9112 4.07275 15.4999 4.65999 15.4999 5.38187V6.8781C15.4999 7.59998 14.9112 8.18721 14.1875 8.18721ZM10.8125 5.19489C10.7089 5.19489 10.625 5.27872 10.625 5.38187V6.8781C10.625 6.98138 10.7089 7.06508 10.8125 7.06508H14.1875C14.291 7.06508 14.3749 6.98138 14.3749 6.8781V5.38187C14.3749 5.27872 14.291 5.19489 14.1875 5.19489H10.8125Z" fill="url(#paint2_linear_4924_1824)"/>
<path d="M9.12495 13.0498C8.09142 13.0498 7.25 12.2104 7.25 11.1796C7.25 10.1487 8.09142 9.30933 9.12495 9.30933C10.1585 9.30933 10.9999 10.1487 10.9999 11.1796C10.9999 12.2104 10.1585 13.0498 9.12495 13.0498ZM9.12495 10.4315C8.71173 10.4315 8.375 10.7673 8.375 11.1796C8.375 11.5918 8.71173 11.9277 9.12495 11.9277C9.53818 11.9277 9.87491 11.5918 9.87491 11.1796C9.87491 10.7673 9.53818 10.4315 9.12495 10.4315Z" fill="url(#paint3_linear_4924_1824)"/>
<path d="M11.9375 16.7903C11.627 16.7903 11.375 16.539 11.375 16.2292V15.8552C11.375 15.3397 10.9542 14.92 10.4375 14.92H7.81255C7.29578 14.92 6.875 15.3397 6.875 15.8552V16.2292C6.875 16.539 6.623 16.7903 6.3125 16.7903C6.002 16.7903 5.75 16.539 5.75 16.2292V15.8552C5.75 14.7203 6.67477 13.7979 7.81255 13.7979H10.4375C11.5752 13.7979 12.5 14.7203 12.5 15.8552V16.2292C12.5 16.539 12.248 16.7903 11.9375 16.7903Z" fill="url(#paint4_linear_4924_1824)"/>
<path d="M18.6875 10.8057H14.5625C14.252 10.8057 14 10.5544 14 10.2447C14 9.93495 14.252 9.68359 14.5625 9.68359H18.6875C18.998 9.68359 19.25 9.93495 19.25 10.2447C19.25 10.5544 18.998 10.8057 18.6875 10.8057Z" fill="url(#paint5_linear_4924_1824)"/>
<path d="M18.6875 13.7979H14.5625C14.252 13.7979 14 13.5466 14 13.2369C14 12.9271 14.252 12.6758 14.5625 12.6758H18.6875C18.998 12.6758 19.25 12.9271 19.25 13.2369C19.25 13.5466 18.998 13.7979 18.6875 13.7979Z" fill="url(#paint6_linear_4924_1824)"/>
<path d="M18.6875 16.7904H14.5625C14.252 16.7904 14 16.539 14 16.2293C14 15.9196 14.252 15.6682 14.5625 15.6682H18.6875C18.998 15.6682 19.25 15.9196 19.25 16.2293C19.25 16.539 18.998 16.7904 18.6875 16.7904Z" fill="url(#paint7_linear_4924_1824)"/>
</g>
<defs>
<linearGradient id="paint0_linear_4924_1824" x1="19.943" y1="-16.175" x2="2.15354" y2="-10.8904" gradientUnits="userSpaceOnUse">
<stop stop-color="#0B96B4"/>
<stop offset="1" stop-color="#551DB0"/>
</linearGradient>
<linearGradient id="paint1_linear_4924_1824" x1="18.0823" y1="-3.52932" x2="5.53172" y2="1.44173" gradientUnits="userSpaceOnUse">
<stop stop-color="#0B96B4"/>
<stop offset="1" stop-color="#551DB0"/>
</linearGradient>
<linearGradient id="paint2_linear_4924_1824" x1="14.3607" y1="1.29271" x2="10.2823" y2="3.05491" gradientUnits="userSpaceOnUse">
<stop stop-color="#0B96B4"/>
<stop offset="1" stop-color="#551DB0"/>
</linearGradient>
<linearGradient id="paint3_linear_4924_1824" x1="10.2879" y1="6.78196" x2="7.50834" y2="7.60763" gradientUnits="userSpaceOnUse">
<stop stop-color="#0B96B4"/>
<stop offset="1" stop-color="#551DB0"/>
</linearGradient>
<linearGradient id="paint4_linear_4924_1824" x1="11.2184" y1="11.7759" x2="7.45479" y2="14.2914" gradientUnits="userSpaceOnUse">
<stop stop-color="#0B96B4"/>
<stop offset="1" stop-color="#551DB0"/>
</linearGradient>
<linearGradient id="paint5_linear_4924_1824" x1="18.2531" y1="8.92539" x2="16.8037" y2="10.9347" gradientUnits="userSpaceOnUse">
<stop stop-color="#0B96B4"/>
<stop offset="1" stop-color="#551DB0"/>
</linearGradient>
<linearGradient id="paint6_linear_4924_1824" x1="18.2531" y1="11.9176" x2="16.8037" y2="13.9269" gradientUnits="userSpaceOnUse">
<stop stop-color="#0B96B4"/>
<stop offset="1" stop-color="#551DB0"/>
</linearGradient>
<linearGradient id="paint7_linear_4924_1824" x1="18.2531" y1="14.91" x2="16.8037" y2="16.9193" gradientUnits="userSpaceOnUse">
<stop stop-color="#0B96B4"/>
<stop offset="1" stop-color="#551DB0"/>
</linearGradient>
<clipPath id="clip0_4924_1824">
<rect width="18" height="17.9542" fill="white" transform="translate(3.5 2.56494)"/>
</clipPath>
</defs>
</svg>
