<svg width="25" height="24" viewBox="0 0 25 24" fill="none" xmlns="http://www.w3.org/2000/svg">
<g id="Social / Phone / Square / 24pt">
<g id="Vector">
<path fill-rule="evenodd" clip-rule="evenodd" d="M19.5469 2H5.54688C3.89002 2 2.54688 3.34315 2.54688 5V19C2.54688 20.6569 3.89002 22 5.54687 22H19.5469C21.2037 22 22.5469 20.6569 22.5469 19V5C22.5469 3.34315 21.2037 2 19.5469 2ZM5.54688 0C2.78545 0 0.546875 2.23858 0.546875 5V19C0.546875 21.7614 2.78545 24 5.54687 24H19.5469C22.3083 24 24.5469 21.7614 24.5469 19V5C24.5469 2.23858 22.3083 0 19.5469 0H5.54688Z" fill="url(#paint0_linear_4924_1841)"/>
<path d="M17.5037 13.533C16.7078 13.533 15.9263 13.4085 15.1858 13.1638C14.8229 13.04 14.3768 13.1536 14.1553 13.381L12.6936 14.4845C10.9984 13.5796 9.95424 12.5357 9.06171 10.8533L10.1327 9.42965C10.4109 9.15177 10.5107 8.74586 10.3912 8.365C10.1454 7.62055 10.0205 6.83943 10.0205 6.04318C10.0206 5.46797 9.55259 5 8.97741 5H6.59002C6.01484 5 5.54688 5.46797 5.54688 6.04315C5.54688 12.6362 10.9106 18 17.5037 18C18.0789 18 18.5469 17.532 18.5469 16.9569V14.5761C18.5468 14.001 18.0789 13.533 17.5037 13.533Z" fill="url(#paint1_linear_4924_1841)"/>
</g>
</g>
<defs>
<linearGradient id="paint0_linear_4924_1841" x1="19.9899" y1="-16.2162" x2="2.19309" y2="-10.9429" gradientUnits="userSpaceOnUse">
<stop stop-color="#0B96B4"/>
<stop offset="1" stop-color="#551DB0"/>
</linearGradient>
<linearGradient id="paint1_linear_4924_1841" x1="19.9899" y1="-16.2162" x2="2.19309" y2="-10.9429" gradientUnits="userSpaceOnUse">
<stop stop-color="#0B96B4"/>
<stop offset="1" stop-color="#551DB0"/>
</linearGradient>
</defs>
</svg>
