<svg width="48" height="48" viewBox="0 0 48 48" fill="none" xmlns="http://www.w3.org/2000/svg">
<g clip-path="url(#clip0_260_78)">
<path d="M15.2508 18.7129C15.1229 18.4617 14.8724 18.2969 14.5917 18.2785L7.8618 17.8298C7.51305 17.7954 7.19065 18.0114 7.06343 18.3361L2.21182 30.7352C2.08142 31.068 2.18782 31.4464 2.47263 31.6631C2.61504 31.7718 2.78622 31.8263 2.95656 31.8263C3.12531 31.8263 3.29415 31.7735 3.43656 31.6664L7.46346 28.6466L9.80812 29.1154C10.1905 29.1914 10.5728 28.9818 10.712 28.6163C11.9712 25.3181 13.487 22.2512 15.2157 19.5018C15.3653 19.2632 15.3789 18.9632 15.2508 18.7129ZM9.46247 27.4146L7.42586 27.0074C7.20349 26.9635 6.97146 27.0162 6.78912 27.1522L4.72608 28.6992L8.33935 19.4647L13.1694 19.7863C11.7775 22.1422 10.5344 24.7004 9.46247 27.4146Z" fill="url(#paint0_linear_260_78)"/>
<path d="M30.1705 40.1392L29.7217 33.4085C29.7025 33.1268 29.5377 32.8765 29.2866 32.7485C29.0362 32.6205 28.7362 32.6332 28.4978 32.7836C25.7476 34.5123 22.6815 36.0282 19.3834 37.2872C19.0186 37.4256 18.8074 37.808 18.8843 38.1912L19.353 40.5358L16.3332 44.5619C16.1188 44.8483 16.1197 45.2418 16.3364 45.5266C16.4908 45.7298 16.7284 45.8426 16.9732 45.8426C17.0708 45.8426 17.1692 45.8242 17.2651 45.789L29.6642 40.9374C29.9889 40.8103 30.1937 40.4871 30.1705 40.1392ZM19.3001 43.2725L20.8472 41.2095C20.9832 41.0279 21.036 40.796 20.9912 40.5728L20.584 38.5369C23.299 37.465 25.8564 36.2219 28.2122 34.83L28.5346 39.6592L19.3001 43.2725Z" fill="url(#paint1_linear_260_78)"/>
<path d="M23.1982 24.0004H17.8082C17.5178 24.0004 17.2507 24.158 17.109 24.4116L10.3439 36.5674C10.1679 36.8842 10.2271 37.281 10.4879 37.5322C10.6407 37.6794 10.8414 37.7562 11.0431 37.7562C11.1855 37.7562 11.3286 37.7186 11.4566 37.6402L23.6125 30.284C23.8516 30.1392 23.9981 29.88 23.9981 29.6001V24.8003C23.9982 24.3588 23.6398 24.0004 23.1982 24.0004ZM22.3983 29.1496L13.2078 34.7116L18.2779 25.601V25.6002H22.3983V29.1496Z" fill="url(#paint2_linear_260_78)"/>
<path d="M47.9596 0.770967C47.9268 0.38144 47.6181 0.0726303 47.2285 0.0398181C46.9629 0.0190058 20.6201 -1.82007 9.2178 28.0449C9.10502 28.3401 9.17617 28.6728 9.39939 28.8961L13.2031 32.6997C13.3815 32.8781 13.631 32.9597 13.8814 32.9261C14.1303 32.8901 14.3478 32.7398 14.4694 32.5197L18.2803 25.6003H22.3985V29.1592L15.4374 33.5541C15.2318 33.6845 15.0966 33.9005 15.0694 34.1421C15.0422 34.3837 15.127 34.6244 15.299 34.7964L19.1027 38.6001C19.2555 38.7529 19.4595 38.8345 19.6683 38.8345C19.7643 38.8345 19.861 38.8177 19.9538 38.7817C49.8202 27.3785 47.982 1.03581 47.9596 0.770967ZM43.7631 14.9635C40.9561 21.9086 34.5326 31.3503 19.8657 37.1011L17.1379 34.3733L23.6254 30.2775C23.8574 30.1304 23.9982 29.8752 23.9982 29.6008V24.8011C23.9982 24.3595 23.6398 24.0011 23.1982 24.0011H17.8066C17.5147 24.0011 17.2467 24.1603 17.1058 24.4155L13.5805 30.8166L10.8983 28.1336C20.908 2.59804 42.244 1.5533 46.3917 1.61171C46.4213 3.47722 46.2501 8.80958 43.7631 14.9635Z" fill="url(#paint3_linear_260_78)"/>
<path d="M13.7029 35.3316C13.5292 35.1012 13.2525 34.9892 12.9813 35.018C13.0093 34.746 12.8973 34.47 12.6677 34.2964C11.4614 33.3845 9.90472 33.0813 8.39527 33.4636C6.793 33.8708 5.48267 34.9635 4.80112 36.4634L0.0719428 46.8682C-0.0664309 47.1722 -0.00165025 47.5298 0.234316 47.765C0.387127 47.9185 0.591875 47.9993 0.799904 47.9993C0.911934 47.9993 1.02471 47.9753 1.13112 47.9273L11.536 43.1973C13.035 42.5166 14.1277 41.2063 14.5349 39.604C14.918 38.0961 14.6149 36.5387 13.7029 35.3316ZM12.9846 39.2104C12.6982 40.3392 11.9287 41.2615 10.8744 41.7415L2.41098 45.5884L6.25788 37.1242C6.73703 36.0699 7.66018 35.3004 8.78892 35.014C9.08573 34.9389 9.38404 34.902 9.67841 34.902C10.1768 34.902 10.6639 35.0084 11.1079 35.2156L10.3464 36.5635C10.1696 36.8763 10.2232 37.2691 10.4775 37.5227C10.7319 37.7779 11.1247 37.8306 11.4367 37.6538L12.7846 36.8915C13.1125 37.597 13.187 38.4121 12.9846 39.2104Z" fill="url(#paint4_linear_260_78)"/>
<path d="M47.9596 0.771838C47.9268 0.38231 47.618 0.0735009 47.2284 0.0406887C46.9164 0.0158452 39.501 -0.545712 30.7801 3.47162C30.5425 3.58037 30.3737 3.79956 30.3273 4.05718C30.2809 4.3148 30.3641 4.57871 30.5489 4.76349L43.2359 17.4505C43.3872 17.6018 43.5912 17.6849 43.8015 17.6849C43.8487 17.6849 43.8959 17.6809 43.9431 17.6729C44.2007 17.6265 44.4191 17.4578 44.5286 17.2201C48.5467 8.4992 47.9852 1.08299 47.9596 0.771838ZM43.5423 15.4931L32.5064 4.45711C38.8907 1.76211 44.4814 1.57649 46.3925 1.60855C46.4244 3.52122 46.2444 9.09441 43.5423 15.4931Z" fill="url(#paint5_linear_260_78)"/>
<path d="M35.3285 12.671C32.6383 9.98076 28.2619 9.98076 25.5717 12.671C22.8815 15.3612 22.8815 19.7376 25.5717 22.4278C26.9164 23.7733 28.6835 24.4453 30.4497 24.4453C32.2168 24.4453 33.983 23.7726 35.3285 22.4278C38.0187 19.7376 38.0187 15.3611 35.3285 12.671ZM34.1974 21.2967C32.1312 23.3629 28.7691 23.3629 26.7029 21.2967C24.6366 19.2304 24.6366 15.8683 26.7029 13.8021C27.7356 12.7693 29.0931 12.2526 30.4498 12.2526C31.8066 12.2526 33.164 12.7693 34.1975 13.8021C36.2637 15.8683 36.2637 19.2304 34.1974 21.2967Z" fill="url(#paint6_linear_260_78)"/>
<path d="M32.0399 19.14C31.1632 20.0183 29.7362 20.0175 28.8586 19.14C27.9818 18.2625 27.9818 16.8362 28.8586 15.9586C29.7353 15.0818 31.1624 15.0811 32.0399 15.9586C32.3519 16.2713 32.8591 16.2713 33.171 15.9586C33.4838 15.6458 33.4838 15.1403 33.171 14.8275C31.6711 13.3269 29.2281 13.3269 27.7275 14.8275C26.2267 16.3281 26.2267 18.7704 27.7275 20.271C28.4778 21.0214 29.4642 21.3966 30.4497 21.3966C31.436 21.3966 32.4215 21.0214 33.171 20.271C33.4838 19.9583 33.4838 19.4527 33.171 19.14C32.859 18.8272 32.3519 18.8272 32.0399 19.14Z" fill="url(#paint7_linear_260_78)"/>
</g>
<defs>
<linearGradient id="paint0_linear_260_78" x1="12.8354" y1="8.36662" x2="2.97043" y2="11.1187" gradientUnits="userSpaceOnUse">
<stop stop-color="#0B96B4"/>
<stop offset="1" stop-color="#551DB0"/>
</linearGradient>
<linearGradient id="paint1_linear_260_78" x1="27.5142" y1="23.7543" x2="17.2394" y2="26.9876" gradientUnits="userSpaceOnUse">
<stop stop-color="#0B96B4"/>
<stop offset="1" stop-color="#551DB0"/>
</linearGradient>
<linearGradient id="paint2_linear_260_78" x1="21.3864" y1="14.7059" x2="11.1866" y2="17.7279" gradientUnits="userSpaceOnUse">
<stop stop-color="#0B96B4"/>
<stop offset="1" stop-color="#551DB0"/>
</linearGradient>
<linearGradient id="paint3_linear_260_78" x1="40.6169" y1="-26.2203" x2="11.828" y2="-17.6899" gradientUnits="userSpaceOnUse">
<stop stop-color="#0B96B4"/>
<stop offset="1" stop-color="#551DB0"/>
</linearGradient>
<linearGradient id="paint4_linear_260_78" x1="11.9065" y1="23.3714" x2="1.00802" y2="26.6006" gradientUnits="userSpaceOnUse">
<stop stop-color="#0B96B4"/>
<stop offset="1" stop-color="#551DB0"/>
</linearGradient>
<linearGradient id="paint5_linear_260_78" x1="44.6421" y1="-11.9482" x2="31.5278" y2="-8.06218" gradientUnits="userSpaceOnUse">
<stop stop-color="#0B96B4"/>
<stop offset="1" stop-color="#551DB0"/>
</linearGradient>
<linearGradient id="paint6_linear_260_78" x1="34.7274" y1="1.33441" x2="24.5001" y2="4.36488" gradientUnits="userSpaceOnUse">
<stop stop-color="#0B96B4"/>
<stop offset="1" stop-color="#551DB0"/>
</linearGradient>
<linearGradient id="paint7_linear_260_78" x1="32.1138" y1="8.50299" x2="26.9782" y2="9.8485" gradientUnits="userSpaceOnUse">
<stop stop-color="#0B96B4"/>
<stop offset="1" stop-color="#551DB0"/>
</linearGradient>
<clipPath id="clip0_260_78">
<rect width="48" height="48" fill="white"/>
</clipPath>
</defs>
</svg>
