<svg width="48" height="48" viewBox="0 0 48 48" fill="none" xmlns="http://www.w3.org/2000/svg">
<g id="shopping-bag" clip-path="url(#clip0_260_117)">
<g id="Group">
<g id="Group_2">
<path id="Vector" d="M30.8452 5.93127C30.3628 2.55008 27.4197 0 23.9996 0C21.8002 0 19.7113 1.06136 18.4125 2.84014C18.1473 3.20291 18.2266 3.71178 18.5894 3.97706C18.951 4.24139 19.461 4.16297 19.7258 3.79973C20.72 2.43948 22.3174 1.6272 23.9994 1.6272C26.615 1.6272 28.8653 3.5764 29.2342 6.16079C29.2924 6.5667 29.6406 6.85963 30.0389 6.85963C30.0768 6.85963 30.1159 6.85677 30.1547 6.85152C30.5995 6.78789 30.9086 6.37578 30.8452 5.93127Z" fill="url(#paint0_linear_260_117)"/>
</g>
</g>
<g id="Group_3">
<g id="Group_4">
<path id="Vector_2" d="M42.5955 15.0387L40.1548 10.9709C40.008 10.7256 39.7432 10.5759 39.4572 10.5759H37.1183C36.6692 10.5759 36.3048 10.9404 36.3048 11.3894C36.3048 11.8385 36.6692 12.2029 37.1183 12.2029H38.9967L40.4611 14.6436H7.53796L9.00236 12.2029H9.86398C10.313 12.2029 10.6775 11.8385 10.6775 11.3894C10.6775 10.9404 10.313 10.5759 9.86398 10.5759H8.54187C8.25586 10.5759 7.99105 10.7256 7.84423 10.9709L5.40356 15.0387C5.25268 15.2904 5.24911 15.6034 5.39331 15.8584C5.53751 16.1134 5.80779 16.2712 6.1012 16.2712H41.8978C42.1912 16.2712 42.4613 16.1134 42.6057 15.8584C42.7502 15.6034 42.7463 15.29 42.5955 15.0387Z" fill="url(#paint1_linear_260_117)"/>
</g>
</g>
<g id="Group_5">
<g id="Group_6">
<path id="Vector_3" d="M38.5402 7.53727C38.4263 7.3535 38.2444 7.22313 38.0342 7.17403L26.9437 4.5801C26.7337 4.53076 26.5125 4.56746 26.329 4.68092C26.146 4.79485 26.0153 4.97671 25.9662 5.18693L25.1299 8.76214C25.0274 9.1995 25.2991 9.63711 25.7367 9.73912C26.1741 9.84161 26.6122 9.56989 26.7142 9.13229L27.3653 6.34959L36.8713 8.57313L35.3776 14.9596C35.2751 15.397 35.5468 15.8346 35.9844 15.9366C36.0471 15.9512 36.1093 15.9581 36.1708 15.9581C36.5403 15.9581 36.8747 15.7049 36.9617 15.33L38.6408 8.15149C38.6904 7.94151 38.6542 7.72032 38.5402 7.53727Z" fill="url(#paint2_linear_260_117)"/>
</g>
</g>
<g id="Group_7">
<g id="Group_8">
<path id="Vector_4" d="M24.4299 9.46044L23.6886 3.19072C23.6633 2.97645 23.5539 2.78077 23.3842 2.64729C23.2145 2.51382 23.0002 2.4528 22.785 2.47807L9.17779 4.08643C8.73184 4.13934 8.41293 4.54358 8.46561 4.99001L9.70143 15.447C9.75053 15.861 10.1016 16.1654 10.5085 16.1654C10.5402 16.1654 10.5728 16.1632 10.6052 16.1597C11.051 16.1068 11.3699 15.7025 11.3174 15.2561L10.1769 5.60637L22.1684 4.18916L22.8139 9.65088C22.8668 10.0971 23.2691 10.4141 23.7174 10.3635C24.1634 10.3111 24.4823 9.90663 24.4299 9.46044Z" fill="url(#paint3_linear_260_117)"/>
</g>
</g>
<g id="Group_9">
<g id="Group_10">
<path id="Vector_5" d="M30.864 15.1484L29.2492 8.43318C29.1987 8.22367 29.0669 8.04229 28.8831 7.92955C28.6994 7.81777 28.4789 7.78273 28.268 7.83278L15.162 10.9847C14.7251 11.0896 14.4562 11.5291 14.5611 11.966L15.3681 15.3224C15.473 15.7597 15.9125 16.0288 16.3492 15.9232C16.7861 15.8184 17.0549 15.3789 16.95 14.942L16.333 12.3764L27.8571 9.60537L29.2817 15.5292C29.371 15.9023 29.7047 16.1525 30.072 16.1525C30.1352 16.1525 30.199 16.1451 30.2632 16.1296C30.7001 16.0245 30.9689 15.5853 30.864 15.1484Z" fill="url(#paint4_linear_260_117)"/>
</g>
</g>
<g id="Group_11">
<g id="Group_12">
<path id="Vector_6" d="M42.7111 15.4161C42.6887 14.9837 42.3316 14.6443 41.8983 14.6443H6.10169C5.66838 14.6443 5.31133 14.9835 5.28893 15.4161L3.66173 47.1448C3.65029 47.3674 3.73085 47.5853 3.88435 47.7469C4.03808 47.9083 4.25116 48 4.47426 48H43.525C43.7479 48 43.9612 47.9085 44.1157 47.7469C44.2689 47.5853 44.3495 47.3677 44.3383 47.1448L42.7111 15.4161ZM5.3304 46.3728L6.87417 16.2712H41.1249L42.6687 46.3728H5.3304Z" fill="url(#paint5_linear_260_117)"/>
</g>
</g>
<g id="Group_13">
<g id="Group_14">
<path id="Vector_7" d="M30.1013 17.8982C28.7554 17.8982 27.6606 18.9929 27.6606 20.3389C27.6606 21.6848 28.7554 22.7795 30.1013 22.7795C31.4473 22.7795 32.542 21.6848 32.542 20.3389C32.542 18.9929 31.4473 17.8982 30.1013 17.8982ZM30.1013 21.1526C29.6525 21.1526 29.2878 20.7877 29.2878 20.3391C29.2878 19.8905 29.6528 19.5256 30.1013 19.5256C30.5499 19.5256 30.9148 19.8905 30.9148 20.3391C30.9148 20.7877 30.5499 21.1526 30.1013 21.1526Z" fill="url(#paint6_linear_260_117)"/>
</g>
</g>
<g id="Group_15">
<g id="Group_16">
<path id="Vector_8" d="M17.898 17.8982C16.552 17.8982 15.4573 18.9929 15.4573 20.3389C15.4573 21.6848 16.552 22.7795 17.898 22.7795C19.2439 22.7795 20.3386 21.6848 20.3386 20.3389C20.3386 18.9929 19.2439 17.8982 17.898 17.8982ZM17.898 21.1526C17.4494 21.1526 17.0845 20.7877 17.0845 20.3391C17.0845 19.8905 17.4494 19.5256 17.898 19.5256C18.3465 19.5256 18.7114 19.8905 18.7114 20.3391C18.7114 20.7877 18.3465 21.1526 17.898 21.1526Z" fill="url(#paint7_linear_260_117)"/>
</g>
</g>
<g id="Group_17">
<g id="Group_18">
<path id="Vector_9" d="M30.1013 20.3389H30.0386C29.5896 20.3389 29.2252 20.7033 29.2252 21.1523C29.2252 21.2634 29.2471 21.3695 29.2878 21.466V25.6268C29.2878 28.5425 26.9156 30.915 23.9996 30.915C21.0837 30.915 18.7114 28.5428 18.7114 25.6268V21.1526C18.7114 20.7035 18.347 20.3391 17.898 20.3391C17.4489 20.3391 17.0845 20.7035 17.0845 21.1526V25.6271C17.0845 29.4402 20.1866 32.5422 23.9996 32.5422C27.8127 32.5422 30.9148 29.4402 30.9148 25.6271V21.1526C30.9148 20.7035 30.5504 20.3389 30.1013 20.3389Z" fill="url(#paint8_linear_260_117)"/>
</g>
</g>
</g>
<defs>
<linearGradient id="paint0_linear_260_117" x1="28.4615" y1="-4.63488" x2="20.6213" y2="-0.368509" gradientUnits="userSpaceOnUse">
<stop stop-color="#0B96B4"/>
<stop offset="1" stop-color="#551DB0"/>
</linearGradient>
<linearGradient id="paint1_linear_260_117" x1="35.6056" y1="6.72775" x2="29.3046" y2="18.9959" gradientUnits="userSpaceOnUse">
<stop stop-color="#0B96B4"/>
<stop offset="1" stop-color="#551DB0"/>
</linearGradient>
<linearGradient id="paint2_linear_260_117" x1="36.0889" y1="-3.14365" x2="26.3628" y2="0.283015" gradientUnits="userSpaceOnUse">
<stop stop-color="#0B96B4"/>
<stop offset="1" stop-color="#551DB0"/>
</linearGradient>
<linearGradient id="paint3_linear_260_117" x1="21.4022" y1="-6.77949" x2="9.89129" y2="-2.80017" gradientUnits="userSpaceOnUse">
<stop stop-color="#0B96B4"/>
<stop offset="1" stop-color="#551DB0"/>
</linearGradient>
<linearGradient id="paint4_linear_260_117" x1="27.7826" y1="2.17397" x2="17.9208" y2="7.90058" gradientUnits="userSpaceOnUse">
<stop stop-color="#0B96B4"/>
<stop offset="1" stop-color="#551DB0"/>
</linearGradient>
<linearGradient id="paint5_linear_260_117" x1="36.6155" y1="-7.89336" x2="7.59234" y2="2.59437" gradientUnits="userSpaceOnUse">
<stop stop-color="#0B96B4"/>
<stop offset="1" stop-color="#551DB0"/>
</linearGradient>
<linearGradient id="paint6_linear_260_117" x1="31.6152" y1="14.6" x2="27.9955" y2="15.6725" gradientUnits="userSpaceOnUse">
<stop stop-color="#0B96B4"/>
<stop offset="1" stop-color="#551DB0"/>
</linearGradient>
<linearGradient id="paint7_linear_260_117" x1="19.4118" y1="14.6" x2="15.7921" y2="15.6725" gradientUnits="userSpaceOnUse">
<stop stop-color="#0B96B4"/>
<stop offset="1" stop-color="#551DB0"/>
</linearGradient>
<linearGradient id="paint8_linear_260_117" x1="28.2888" y1="12.0933" x2="18.2633" y2="15.46" gradientUnits="userSpaceOnUse">
<stop stop-color="#0B96B4"/>
<stop offset="1" stop-color="#551DB0"/>
</linearGradient>
<clipPath id="clip0_260_117">
<rect width="48" height="48" fill="white"/>
</clipPath>
</defs>
</svg>
