<svg width="49" height="48" viewBox="0 0 49 48" fill="none" xmlns="http://www.w3.org/2000/svg">
<g id="shopping" clip-path="url(#clip0_260_2233)">
<path id="Vector" d="M22.1355 31.3473C22.5013 30.9807 22.5013 30.3871 22.1355 30.0205C21.7689 29.655 21.1756 29.655 20.8091 30.0205C20.4432 30.3871 20.4432 30.9807 20.8091 31.3473C21.1756 31.7128 21.7689 31.7128 22.1355 31.3473Z" fill="url(#paint0_linear_260_2233)"/>
<path id="Vector_2" d="M22.4766 9.28162V11.1566C22.4766 14.2643 24.9939 16.7816 28.1016 16.7816C31.2034 16.7816 33.7269 14.2584 33.7269 11.1566V9.28162C34.2447 9.28162 34.6644 8.86194 34.6644 8.34412C34.6644 7.82629 34.2447 7.40662 33.7269 7.40662H31.8519C31.3341 7.40662 30.9144 7.82629 30.9144 8.34412C30.9144 8.86194 31.3341 9.28162 31.8519 9.28162V11.1566C31.8519 13.2242 30.1695 14.9066 28.1016 14.9066C26.0306 14.9066 24.3516 13.2283 24.3516 11.1566V9.28162C24.8694 9.28162 25.2891 8.86194 25.2891 8.34412C25.2891 7.82629 24.8694 7.40662 24.3516 7.40662H22.4766C21.9587 7.40662 21.5391 7.82629 21.5391 8.34412C21.5391 8.86194 21.9587 9.28162 22.4766 9.28162Z" fill="url(#paint1_linear_260_2233)"/>
<path id="Vector_3" d="M11.4341 46.0258C11.6172 46.2085 11.8567 46.2997 12.0965 46.2997C12.3364 46.2997 12.5763 46.2081 12.7594 46.0254L15.6382 43.1466C16.576 42.2095 17.0276 40.9259 16.8972 39.6288L17.9296 38.632C18.7488 37.8424 19.8258 37.4073 20.9618 37.4073H33.3053C35.5164 37.4073 37.6064 36.5581 39.1899 35.016C39.2133 34.9933 39.2353 34.9695 39.2562 34.9442L47.6549 24.8588C48.9893 23.2797 48.7897 20.9088 47.2092 19.5729C45.6389 18.2494 43.2856 18.4398 41.9471 19.9926L41.04 20.9308V2.625C41.04 2.10718 40.62 1.6875 40.1025 1.6875H16.0077C15.4902 1.6875 15.0702 2.10718 15.0702 2.625V23.6298C11.4396 24.3918 8.56005 26.6455 7.00915 29.9399C5.78601 29.8766 4.59326 30.3263 3.70813 31.2125L0.814698 34.0917C0.638185 34.2675 0.538941 34.5062 0.538575 34.7552C0.538209 35.0046 0.637452 35.2434 0.813599 35.4196L11.4341 46.0258ZM39.165 3.5625V22.8695L36.4517 25.6747C35.7534 24.8167 34.6892 24.282 33.5396 24.282H22.6698C22.6097 24.282 22.5445 24.2681 22.479 24.2417C21.0185 23.6462 19.472 23.3445 17.883 23.3445C17.5692 23.3445 17.2565 23.3558 16.9455 23.3763V3.5625H39.165ZM16.1421 25.3429C18.0387 25.0686 19.9353 25.2297 21.7748 25.9794C22.067 26.0973 22.3684 26.1573 22.6698 26.1573H33.5396C34.5562 26.1573 35.4146 26.9865 35.4146 28.0323C35.4146 29.0662 34.5735 29.9073 33.5396 29.9073H25.383C24.8656 29.9073 24.4455 30.327 24.4455 30.8448C24.4455 31.3627 24.8656 31.7823 25.383 31.7823H33.5396C35.6076 31.7823 37.2896 30.1 37.2896 28.0323C37.2896 27.8668 37.2776 27.7024 37.2563 27.5402C37.4519 27.3398 43.1186 21.479 43.3149 21.2758C43.3292 21.2607 43.3435 21.2454 43.3566 21.2296C44.0246 20.4408 45.2108 20.3412 46 21.0062C46.7899 21.6738 46.8898 22.8593 46.2182 23.6539L37.8477 33.7057C36.6206 34.8842 35.0092 35.5323 33.3053 35.5323H20.9618C19.3376 35.5323 17.7988 36.1534 16.6277 37.2825L16.2142 37.6816C16.0487 37.4271 15.8561 37.1895 15.6385 36.9723L9.88024 31.214C9.57262 30.9064 9.22363 30.6508 8.84606 30.449C10.2783 27.624 12.8367 25.8234 16.1421 25.3429ZM5.03271 32.5397C6.01782 31.5531 7.59216 31.5773 8.55419 32.54L14.3132 38.2987C15.2786 39.2622 15.2958 40.8384 14.3129 41.8202L12.0958 44.0369L2.80395 34.7574L5.03271 32.5397Z" fill="url(#paint2_linear_260_2233)"/>
</g>
<defs>
<linearGradient id="paint0_linear_260_2233" x1="22.0538" y1="28.4795" x2="20.6633" y2="28.8916" gradientUnits="userSpaceOnUse">
<stop stop-color="#0B96B4"/>
<stop offset="1" stop-color="#551DB0"/>
</linearGradient>
<linearGradient id="paint1_linear_260_2233" x1="32.1723" y1="1.07216" x2="23.1393" y2="4.81937" gradientUnits="userSpaceOnUse">
<stop stop-color="#0B96B4"/>
<stop offset="1" stop-color="#551DB0"/>
</linearGradient>
<linearGradient id="paint2_linear_260_2233" x1="39.4246" y1="-28.4559" x2="4.27818" y2="-17.2509" gradientUnits="userSpaceOnUse">
<stop stop-color="#0B96B4"/>
<stop offset="1" stop-color="#551DB0"/>
</linearGradient>
<clipPath id="clip0_260_2233">
<rect width="48" height="48" fill="white" transform="translate(0.538574)"/>
</clipPath>
</defs>
</svg>
