<svg width="48" height="48" viewBox="0 0 48 48" fill="none" xmlns="http://www.w3.org/2000/svg">
<g id="sketch" clip-path="url(#clip0_260_2288)">
<g id="Group">
<g id="Group_2">
<path id="Vector" d="M42.4713 33.874C42.2081 33.7649 41.9051 33.8252 41.7035 34.0266L34.0042 41.726C33.8027 41.9275 33.7424 42.2305 33.8516 42.4938C33.9605 42.7571 34.2176 42.9287 34.5025 42.9287H42.2018C42.5909 42.9287 42.9063 42.6133 42.9063 42.2242V34.5248C42.9062 34.2399 42.7346 33.983 42.4713 33.874ZM36.2031 41.5197L41.4971 36.2257V41.5197H36.2031Z" fill="url(#paint0_linear_260_2288)"/>
</g>
</g>
<g id="Group_3">
<g id="Group_4">
<path id="Vector_2" d="M47.5652 22.5813C47.3019 22.4722 46.9989 22.5324 46.7974 22.7339L44.6873 24.844V10.4973C44.6873 10.1081 44.3719 9.79274 43.9828 9.79274H38.5696L40.5346 7.82773C40.5349 7.82745 40.5351 7.82708 40.5354 7.8268L42.4288 5.93342C42.8345 5.52776 43.0579 4.98813 43.0579 4.41438C43.0579 3.84063 42.8345 3.30119 42.4288 2.89535L40.2394 0.705907C39.8337 0.30025 39.2941 0.0768433 38.7203 0.0768433C38.1466 0.0768433 37.607 0.30025 37.2013 0.705907L35.307 2.60022L33.018 4.88923L28.1146 9.79264H6.24564V2.82279C6.24564 2.43363 5.93017 2.11825 5.54111 2.11825C2.48579 2.11844 0 4.60404 0 7.65955V37.5833C0 37.6353 0.00600001 37.6859 0.0166875 37.7347C0.114 39.0312 0.674908 40.2358 1.61232 41.1502C2.61432 42.1275 3.93704 42.6657 5.33692 42.6657H26.8655L22.8109 46.7203C22.6095 46.9218 22.5492 47.2248 22.6582 47.4881C22.7672 47.7513 23.0242 47.923 23.3091 47.923H47.2956C47.6846 47.923 48.0001 47.6076 48.0001 47.2185V23.2322C48.0001 22.9473 47.8283 22.6903 47.5652 22.5813ZM38.1979 1.70238C38.4859 1.41419 38.9551 1.41419 39.2431 1.70238L41.4326 3.89191C41.7208 4.18001 41.7208 4.64904 41.4326 4.93723L40.0366 6.33336L36.8016 3.09851L38.1979 1.70238ZM35.8053 4.09488L39.0401 7.32964L37.7474 8.62236L34.5127 5.3876L35.8053 4.09488ZM46.5912 31.1487H45.2914C44.9022 31.1487 44.5868 31.464 44.5868 31.8532C44.5868 32.2423 44.9022 32.5577 45.2914 32.5577H46.5912V34.6808H45.2914C44.9022 34.6808 44.5868 34.9962 44.5868 35.3853C44.5868 35.7745 44.9022 36.0899 45.2914 36.0899H46.5912V38.2128H45.2914C44.9022 38.2128 44.5868 38.5282 44.5868 38.9174C44.5868 39.3065 44.9022 39.6219 45.2914 39.6219H46.5912V41.745H45.2914C44.9022 41.745 44.5868 42.0604 44.5868 42.4495C44.5868 42.8386 44.9022 43.154 45.2914 43.154H46.5912V46.5142H25.0099L32.1263 39.3979C32.4015 39.1227 32.4015 38.6767 32.1263 38.4015C32.0947 38.3699 32.0608 38.3426 32.0253 38.3182C31.7509 38.1303 31.3735 38.158 31.1298 38.4015L28.2746 41.2568H5.33701C3.20026 41.2568 1.48013 39.5886 1.41244 37.4557C1.41647 37.3218 1.42688 37.1891 1.44357 37.0578C1.44366 37.0571 1.44375 37.0563 1.44385 37.0556C1.45172 36.9932 1.46119 36.9312 1.47197 36.8695C1.47319 36.8624 1.4745 36.8554 1.47572 36.8484C1.48557 36.7934 1.49663 36.7386 1.50872 36.684C1.5121 36.6688 1.51566 36.6537 1.51922 36.6386C1.52991 36.5924 1.54144 36.5466 1.55382 36.5009C1.56057 36.4762 1.5676 36.4517 1.57482 36.4271C1.58513 36.3913 1.59582 36.3555 1.60716 36.3202C1.6185 36.2849 1.6306 36.2499 1.64288 36.2149C1.65141 36.1904 1.65985 36.166 1.66903 36.1417C1.68619 36.0956 1.70438 36.0499 1.72313 36.0046C1.72847 35.9916 1.73372 35.9784 1.73925 35.9654C1.76335 35.9091 1.78838 35.8535 1.81482 35.7986C1.81594 35.7962 1.81697 35.7939 1.8181 35.7915C2.36916 34.6512 3.42901 33.8009 4.70092 33.5371C4.70448 33.5364 4.70804 33.5355 4.7116 33.5348C4.76992 33.5229 4.82879 33.5127 4.88804 33.5032C4.89789 33.5016 4.90773 33.4996 4.91776 33.4981C4.97129 33.49 5.02539 33.4836 5.07948 33.4775C5.09467 33.4758 5.10976 33.4735 5.12504 33.472C5.17726 33.4667 5.22995 33.4633 5.28264 33.46C5.29932 33.4589 5.31601 33.4572 5.3327 33.4563C5.4017 33.4528 5.47126 33.4511 5.54111 33.4511C5.93017 33.4511 6.24564 33.1357 6.24564 32.7465V27.6382C6.24564 27.249 5.93017 26.9336 5.54111 26.9336C5.15204 26.9336 4.83657 27.249 4.83657 27.6382V32.0863C3.64688 32.2368 2.5426 32.7674 1.67185 33.6178C1.58025 33.7072 1.49344 33.8002 1.40888 33.8947V7.65955C1.40888 5.62132 2.89257 3.92285 4.83648 3.58741V10.4973V24.8201V24.8202C4.83648 25.2093 5.15195 25.5248 5.54101 25.5248C5.93007 25.5248 6.24554 25.2093 6.24554 24.8202V24.8201V11.2018H26.7056L22.8108 15.0966C22.5357 15.3718 22.5357 15.8178 22.8108 16.0929C23.086 16.368 23.532 16.368 23.8071 16.0929L28.9046 10.9955C28.9048 10.9953 28.9049 10.9951 28.9051 10.995L33.5162 6.38389L36.7508 9.61874L36.3713 9.99824C36.371 9.99852 36.3707 9.9988 36.3704 9.99908L22.1646 24.205L18.9299 20.9703L21.73 18.1702C22.0051 17.8949 22.0051 17.4489 21.73 17.1738C21.4548 16.8987 21.0088 16.8987 20.7337 17.1738L17.4353 20.4721C17.4177 20.4897 17.4012 20.5084 17.3857 20.5275C17.3805 20.5339 17.3759 20.5407 17.3711 20.5474C17.3611 20.5606 17.3514 20.5739 17.3423 20.5878C17.3371 20.5959 17.3324 20.6041 17.3276 20.6124C17.3198 20.6256 17.3123 20.6389 17.3054 20.6525C17.3009 20.6613 17.2969 20.6702 17.2928 20.6794C17.2865 20.6932 17.2807 20.7072 17.2753 20.7213C17.2735 20.7263 17.271 20.7309 17.2693 20.7359L15.8967 24.6242L14.9608 27.2754C14.9485 27.3106 14.9396 27.3464 14.9329 27.3825H12.5899C12.2008 27.3825 11.8854 27.6979 11.8854 28.0871C11.8854 28.4762 12.2008 28.7916 12.5899 28.7916H32.1006C32.4898 28.7916 32.8052 28.4762 32.8052 28.0871C32.8052 27.6979 32.4898 27.3825 32.1006 27.3825H18.1025L22.3991 25.8658C22.4026 25.8645 22.406 25.8627 22.4096 25.8614C22.4263 25.8552 22.4427 25.8483 22.4589 25.8409C22.4654 25.8379 22.4718 25.8351 22.4781 25.832C22.495 25.8235 22.5116 25.8143 22.5279 25.8043C22.5331 25.8011 22.5386 25.7982 22.5437 25.795C22.5607 25.7841 22.5772 25.7722 22.5934 25.7596C22.5975 25.7565 22.6017 25.7538 22.6056 25.7506C22.6252 25.7349 22.6444 25.7179 22.6626 25.6997L37.1605 11.2019H43.2782V26.2531L33.2004 36.331C32.9253 36.6062 32.9253 37.0522 33.2004 37.3274C33.2176 37.3445 33.2355 37.3606 33.2539 37.3757C33.3831 37.481 33.5409 37.5337 33.6986 37.5337C33.8563 37.5337 34.0142 37.481 34.1433 37.3757C34.1617 37.3607 34.1796 37.3445 34.1968 37.3274C34.1971 37.3271 34.1968 37.3274 34.1971 37.3271L46.5912 24.9328V31.1487ZM20.876 24.909L18.8579 25.6214L17.5134 24.2769L18.2258 22.2588L20.876 24.909Z" fill="url(#paint1_linear_260_2288)"/>
</g>
</g>
</g>
<defs>
<linearGradient id="paint0_linear_260_2288" x1="41.1769" y1="27.666" x2="34.4226" y2="29.6673" gradientUnits="userSpaceOnUse">
<stop stop-color="#0B96B4"/>
<stop offset="1" stop-color="#551DB0"/>
</linearGradient>
<linearGradient id="paint1_linear_260_2288" x1="38.8862" y1="-32.2516" x2="3.31094" y2="-21.6766" gradientUnits="userSpaceOnUse">
<stop stop-color="#0B96B4"/>
<stop offset="1" stop-color="#551DB0"/>
</linearGradient>
<clipPath id="clip0_260_2288">
<rect width="48" height="48" fill="white"/>
</clipPath>
</defs>
</svg>
