<svg width="18" height="12" viewBox="0 0 18 12" fill="none" xmlns="http://www.w3.org/2000/svg">
<g id="Frame">
<path id="Vector" d="M3.7581 11.2837C3.68368 11.3581 3.59065 11.3953 3.48833 11.3953C3.386 11.3953 3.29298 11.3581 3.21856 11.2837C3.06972 11.1348 3.06972 10.893 3.21856 10.7441L7.96275 5.99996L3.21856 1.25578C3.06972 1.10694 3.06972 0.865079 3.21856 0.716242C3.3674 0.567405 3.60926 0.567405 3.7581 0.716242L8.77205 5.7302C8.92089 5.87903 8.92089 6.12089 8.77205 6.26973L3.7581 11.2837Z" fill="#80CAA9"/>
<path id="Vector_2" d="M9.7581 11.2837C9.68368 11.3581 9.59065 11.3953 9.48833 11.3953C9.386 11.3953 9.29298 11.3581 9.21856 11.2837C9.06972 11.1348 9.06972 10.893 9.21856 10.7441L13.9627 5.99996L9.21856 1.25578C9.06972 1.10694 9.06972 0.865079 9.21856 0.716242C9.3674 0.567405 9.60926 0.567405 9.7581 0.716242L14.7721 5.7302C14.9209 5.87903 14.9209 6.12089 14.7721 6.26973L9.7581 11.2837Z" fill="#80CAA9"/>
</g>
</svg>
