<svg width="48" height="48" viewBox="0 0 48 48" fill="none" xmlns="http://www.w3.org/2000/svg">
<path d="M22.4531 38.5781H25.6406C26.597 38.5781 27.375 37.8001 27.375 36.8438C27.375 35.8874 26.597 35.1094 25.6406 35.1094H22.4531C21.4968 35.1094 20.7188 35.8874 20.7188 36.8438C20.7188 37.8001 21.4968 38.5781 22.4531 38.5781ZM22.4531 36.5156H25.6406C25.8216 36.5156 25.9688 36.6628 25.9688 36.8438C25.9688 37.0247 25.8216 37.1719 25.6406 37.1719H22.4531C22.2722 37.1719 22.125 37.0247 22.125 36.8438C22.125 36.6628 22.2722 36.5156 22.4531 36.5156Z" fill="url(#paint0_linear_1172_16)"/>
<path d="M25.4531 10.1719H19.4531C19.0648 10.1719 18.75 10.4867 18.75 10.875C18.75 11.2633 19.0648 11.5781 19.4531 11.5781H25.4531C25.8414 11.5781 26.1562 11.2633 26.1562 10.875C26.1562 10.4867 25.8414 10.1719 25.4531 10.1719Z" fill="url(#paint1_linear_1172_16)"/>
<path d="M28.6406 10.1719H27.6094C27.2211 10.1719 26.9062 10.4867 26.9062 10.875C26.9062 11.2633 27.2211 11.5781 27.6094 11.5781H28.6406C29.0289 11.5781 29.3438 11.2633 29.3438 10.875C29.3438 10.4867 29.0289 10.1719 28.6406 10.1719Z" fill="url(#paint2_linear_1172_16)"/>
<path d="M26.4913 22.0538C26.0407 21.0799 25.0635 20.4375 23.9531 20.4375C22.8426 20.4375 21.8654 21.0799 21.4148 22.0538C20.4157 22.1157 19.6218 22.9481 19.6218 23.9625C19.6218 25.0171 20.4797 25.875 21.5343 25.875H26.3718C27.4264 25.875 28.2843 25.0171 28.2843 23.9625C28.2843 22.9481 27.4903 22.1156 26.4913 22.0538ZM26.3718 24.4688H21.5343C21.2551 24.4688 21.0281 24.2417 21.0281 23.9625C21.0281 23.6833 21.2552 23.4562 21.5343 23.4562H21.9135C22.2396 23.4562 22.5228 23.2321 22.5978 22.9148C22.7469 22.2842 23.3041 21.8438 23.9531 21.8438C24.602 21.8438 25.1593 22.2842 25.3083 22.9148C25.3833 23.2322 25.6665 23.4562 25.9926 23.4562H26.3718C26.651 23.4562 26.8781 23.6833 26.8781 23.9625C26.8781 24.2417 26.6509 24.4688 26.3718 24.4688Z" fill="url(#paint3_linear_1172_16)"/>
<path d="M41.7656 17.8232H44.5781C45.3535 17.8232 45.9844 17.1924 45.9844 16.417C45.9844 15.7303 45.4898 15.1571 44.838 15.0348C44.5028 14.4499 43.8764 14.0732 43.1719 14.0732C42.4673 14.0732 41.841 14.4499 41.5057 15.0348C40.854 15.1571 40.3594 15.7303 40.3594 16.417C40.3594 17.1924 40.9902 17.8232 41.7656 17.8232ZM42.6703 15.8756C42.7254 15.6423 42.9317 15.4795 43.1719 15.4795C43.4121 15.4795 43.6183 15.6423 43.6734 15.8756C43.7484 16.1928 44.0317 16.417 44.3577 16.417H41.9861C42.3121 16.417 42.5954 16.1929 42.6703 15.8756Z" fill="url(#paint4_linear_1172_16)"/>
<path d="M44.838 30.8786C44.5028 30.2937 43.8764 29.917 43.1719 29.917C42.4673 29.917 41.841 30.2937 41.5057 30.8786C40.854 31.0008 40.3594 31.574 40.3594 32.2607C40.3594 33.0361 40.9902 33.667 41.7656 33.667H44.5781C45.3535 33.667 45.9844 33.0361 45.9844 32.2607C45.9844 31.5741 45.4898 31.0008 44.838 30.8786ZM41.9861 32.2607C42.3122 32.2607 42.5954 32.0366 42.6704 31.7193C42.7255 31.4861 42.9318 31.3232 43.172 31.3232C43.4122 31.3232 43.6184 31.4861 43.6735 31.7193C43.7485 32.0366 44.0317 32.2607 44.3578 32.2607H41.9861Z" fill="url(#paint5_linear_1172_16)"/>
<path d="M43.875 27.2855V20.9959C46.2052 20.6544 48 18.6423 48 16.2188C48 13.5566 45.8341 11.3907 43.1719 11.3907C40.621 11.3907 38.5258 13.3792 38.355 15.8875L33.8438 19.7878V9.57281C33.8438 8.40403 32.8928 7.45312 31.7241 7.45312H16.1822C15.0134 7.45312 14.0625 8.40403 14.0625 9.57281V21.2344H7.07522V15.3281H10.4204C11.0846 15.3281 11.6251 14.7877 11.6251 14.1234V11.4703C11.6251 10.8061 11.0847 10.2656 10.4204 10.2656H1.20469C0.540375 10.2656 0 10.806 0 11.4703V14.1235C0 14.7878 0.540375 15.3282 1.20469 15.3282H5.66897V21.2345H3.70312C3.31481 21.2345 3 21.5493 3 21.9376V30.5827C1.29319 30.912 0 32.4172 0 34.2188C0 36.2606 1.66125 37.9219 3.70312 37.9219C5.745 37.9219 7.40625 36.2606 7.40625 34.2188C7.40625 32.4172 6.11306 30.912 4.40625 30.5826V22.6406H6.32812C6.33544 22.6406 6.34275 22.6405 6.35006 22.6403C6.35738 22.6404 6.36469 22.6406 6.372 22.6406H14.0625V27.1875C14.0625 27.5758 14.3773 27.8906 14.7656 27.8906C15.1539 27.8906 15.4688 27.5758 15.4688 27.1875V14.0519H32.4375V21.0037L30.6631 22.5378C30.1412 19.3049 27.3309 16.8281 23.9531 16.8281C20.2053 16.8281 17.1562 19.8772 17.1562 23.625C17.1562 27.3728 20.2053 30.4219 23.9531 30.4219C27.0978 30.4219 29.7504 28.2753 30.5228 25.3704L32.4375 27.0856V33.1406H15.4688V30C15.4688 29.6117 15.1539 29.2969 14.7656 29.2969C14.3773 29.2969 14.0625 29.6117 14.0625 30V38.4272C14.0625 39.596 15.0134 40.5469 16.1822 40.5469H31.7241C32.8928 40.5469 33.8438 39.596 33.8438 38.4272V28.3454L38.3545 32.3863C38.5217 34.8982 40.6185 36.8906 43.1719 36.8906C45.8341 36.8906 48 34.7247 48 32.0625C48 29.6391 46.2052 27.6269 43.875 27.2855ZM6 34.2188C6 35.4852 4.96959 36.5156 3.70312 36.5156C2.43666 36.5156 1.40625 35.4852 1.40625 34.2188C1.40625 32.9523 2.43666 31.9219 3.70312 31.9219C4.96959 31.9219 6 32.9523 6 34.2188ZM1.40625 13.9219V11.6719H10.2188V13.9219H1.40625ZM23.9531 29.0156C20.9807 29.0156 18.5625 26.5974 18.5625 23.625C18.5625 20.6526 20.9807 18.2344 23.9531 18.2344C26.9256 18.2344 29.3438 20.6526 29.3438 23.625C29.3438 26.5974 26.9256 29.0156 23.9531 29.0156ZM32.4375 38.4272C32.4375 38.8206 32.1174 39.1406 31.7241 39.1406H16.1822C15.7888 39.1406 15.4688 38.8206 15.4688 38.4272V34.5469H32.4375V38.4272ZM32.4375 25.1977L31.1111 24.0094L32.4375 22.8626V25.1977ZM32.4375 12.6457H15.4688V9.57281C15.4688 9.17944 15.7888 8.85938 16.1822 8.85938H31.7241C32.1174 8.85938 32.4375 9.17944 32.4375 9.57281V12.6457ZM39.75 16.218C39.7504 14.3316 41.2853 12.7969 43.1719 12.7969C45.0587 12.7969 46.5938 14.3319 46.5938 16.2188C46.5938 18.1056 45.0587 19.6406 43.1719 19.6406C41.2854 19.6406 39.7507 18.1061 39.75 16.2199C39.75 16.2192 39.75 16.2187 39.75 16.218ZM38.5479 30.6715L33.8438 26.4574V21.6468L38.5408 17.5857C39.0673 19.3662 40.5949 20.7212 42.4688 20.9958V27.2854C40.6033 27.5588 39.081 28.9028 38.5479 30.6715ZM43.1719 35.4844C41.2851 35.4844 39.75 33.9493 39.75 32.0625C39.75 30.1757 41.2851 28.6406 43.1719 28.6406C45.0587 28.6406 46.5938 30.1757 46.5938 32.0625C46.5938 33.9493 45.0587 35.4844 43.1719 35.4844Z" fill="url(#paint6_linear_1172_16)"/>
<defs>
<linearGradient id="paint0_linear_1172_16" x1="26.1112" y1="32.7656" x2="22.0537" y2="35.0726" gradientUnits="userSpaceOnUse">
<stop stop-color="#0B96B4"/>
<stop offset="1" stop-color="#551DB0"/>
</linearGradient>
<linearGradient id="paint1_linear_1172_16" x1="24.75" y1="9.22171" x2="23.0109" y2="11.9356" gradientUnits="userSpaceOnUse">
<stop stop-color="#0B96B4"/>
<stop offset="1" stop-color="#551DB0"/>
</linearGradient>
<linearGradient id="paint2_linear_1172_16" x1="28.8809" y1="9.22171" x2="27.3251" y2="10.0208" gradientUnits="userSpaceOnUse">
<stop stop-color="#0B96B4"/>
<stop offset="1" stop-color="#551DB0"/>
</linearGradient>
<linearGradient id="paint3_linear_1172_16" x1="26.6395" y1="16.7635" x2="20.9253" y2="19.4609" gradientUnits="userSpaceOnUse">
<stop stop-color="#0B96B4"/>
<stop offset="1" stop-color="#551DB0"/>
</linearGradient>
<linearGradient id="paint4_linear_1172_16" x1="44.9163" y1="11.5395" x2="41.1275" y2="13.2235" gradientUnits="userSpaceOnUse">
<stop stop-color="#0B96B4"/>
<stop offset="1" stop-color="#551DB0"/>
</linearGradient>
<linearGradient id="paint5_linear_1172_16" x1="44.9163" y1="27.3832" x2="41.1275" y2="29.0672" gradientUnits="userSpaceOnUse">
<stop stop-color="#0B96B4"/>
<stop offset="1" stop-color="#551DB0"/>
</linearGradient>
<linearGradient id="paint6_linear_1172_16" x1="38.8861" y1="-14.9075" x2="6.20386" y2="-0.861695" gradientUnits="userSpaceOnUse">
<stop stop-color="#0B96B4"/>
<stop offset="1" stop-color="#551DB0"/>
</linearGradient>
</defs>
</svg>
