<svg width="36" height="36" viewBox="0 0 36 36" fill="none" xmlns="http://www.w3.org/2000/svg">
<path fill-rule="evenodd" clip-rule="evenodd" d="M5.45455 2.18182H30.5455C32.3529 2.18182 33.8182 3.64707 33.8182 5.45455V30.5455C33.8182 32.3529 32.3529 33.8182 30.5455 33.8182H5.45454C3.64707 33.8182 2.18182 32.3529 2.18182 30.5455V5.45454C2.18182 3.64707 3.64707 2.18182 5.45455 2.18182ZM0 5.45454C0 2.44208 2.44208 0 5.45455 0H30.5455C33.5579 0 36 2.44208 36 5.45455V30.5455C36 33.5579 33.5579 36 30.5455 36H5.45454C2.44208 36 0 33.5579 0 30.5455V5.45454ZM11.4169 18.7927L6.89229 17.1039C6.43273 16.9317 6.42874 16.2829 6.88699 16.1062L25.4561 8.9428C25.8498 8.79056 26.256 9.13544 26.1702 9.54885L22.8379 25.5781C22.7593 25.9565 22.3156 26.1282 22.0024 25.9005L17.4534 22.5979C17.1772 22.3973 16.8006 22.4081 16.5362 22.6235L14.0141 24.6795C13.7214 24.9189 13.2803 24.7856 13.1682 24.4248L11.4169 18.7927ZM21.7287 12.4474L12.886 17.8937C12.547 18.1029 12.3875 18.5122 12.497 18.8954L13.4531 22.2548C13.5209 22.4929 13.8665 22.4685 13.8994 22.2225L14.148 20.3802C14.1949 20.0334 14.3603 19.7138 14.6168 19.475L21.9147 12.6913C22.0512 12.5647 21.8877 12.3498 21.7287 12.4474Z" fill="url(#paint0_linear_4681_6738)"/>
<defs>
<linearGradient id="paint0_linear_4681_6738" x1="29.1646" y1="-24.3243" x2="2.46932" y2="-16.4144" gradientUnits="userSpaceOnUse">
<stop stop-color="#0B96B4"/>
<stop offset="1" stop-color="#551DB0"/>
</linearGradient>
</defs>
</svg>
