<svg width="36" height="36" viewBox="0 0 36 36" fill="none" xmlns="http://www.w3.org/2000/svg">
<path fill-rule="evenodd" clip-rule="evenodd" d="M5.45455 2.18182H30.5455C32.3529 2.18182 33.8182 3.64707 33.8182 5.45455V30.5455C33.8182 32.3529 32.3529 33.8182 30.5455 33.8182H5.45454C3.64707 33.8182 2.18182 32.3529 2.18182 30.5455V5.45454C2.18182 3.64707 3.64707 2.18182 5.45455 2.18182ZM0 5.45454C0 2.44208 2.44208 0 5.45455 0H30.5455C33.5579 0 36 2.44208 36 5.45455V30.5455C36 33.5579 33.5579 36 30.5455 36H5.45454C2.44208 36 0 33.5579 0 30.5455V5.45454ZM28.4308 22.6831C28.439 22.6982 28.4452 22.7095 28.4497 22.717C29.2183 23.9917 27.5969 24.0918 27.5969 24.0918L24.4978 24.1353C24.4978 24.1353 23.8321 24.2672 22.9562 23.6654C22.4982 23.3507 22.0503 22.8372 21.6236 22.348C20.9708 21.5996 20.3675 20.9078 19.8527 21.0709C18.9884 21.345 19.0159 23.2057 19.0159 23.2057C19.0159 23.2057 19.0232 23.603 18.826 23.8148C18.6128 24.0454 18.1937 24.0918 18.1937 24.0918H16.8072C16.8072 24.0918 13.7473 24.2759 11.0513 21.4698C8.11313 18.4083 5.51723 12.3362 5.51723 12.3362C5.51723 12.3362 5.36786 11.9389 5.53028 11.746C5.71301 11.5299 6.21044 11.5154 6.21044 11.5154L9.52565 11.4951C9.52565 11.4951 9.8389 11.5473 10.0622 11.7112C10.2464 11.8461 10.3494 12.0984 10.3494 12.0984C10.3494 12.0984 10.886 13.4544 11.5951 14.6798C12.9801 17.0741 13.6254 17.5977 14.0968 17.341C14.7827 16.9668 14.5768 13.9576 14.5768 13.9576C14.5768 13.9576 14.5898 12.8641 14.2316 12.3783C13.9546 12.0012 13.4326 11.891 13.202 11.8606C13.0149 11.8359 13.3209 11.4023 13.7183 11.208C14.3143 10.9165 15.3686 10.8991 16.6129 10.9121C17.5831 10.9223 17.8616 10.9832 18.2415 11.0745C19.1216 11.2867 19.0942 11.9678 19.0352 13.4375C19.0175 13.8762 18.9971 14.3851 18.9971 14.9727C18.9971 15.1053 18.9932 15.2467 18.9892 15.3922C18.9685 16.1442 18.9448 17.0054 19.4394 17.325C19.6932 17.4889 20.3153 17.3497 21.8685 14.7117C22.6052 13.4616 23.1578 11.9911 23.1578 11.9911C23.1578 11.9911 23.2781 11.73 23.4652 11.6169C23.6581 11.5024 23.9162 11.5372 23.9162 11.5372L27.4026 11.5169C27.4026 11.5169 28.4511 11.3921 28.6208 11.8649C28.7992 12.3609 28.2292 13.5211 26.8036 15.4209C25.4499 17.225 24.7918 17.8877 24.8534 18.4749C24.8984 18.9029 25.3259 19.2908 26.1452 20.0514C27.8684 21.6508 28.3244 22.4878 28.4308 22.6831Z" fill="url(#paint0_linear_4681_6740)"/>
<defs>
<linearGradient id="paint0_linear_4681_6740" x1="29.1646" y1="-24.3243" x2="2.46932" y2="-16.4144" gradientUnits="userSpaceOnUse">
<stop stop-color="#0B96B4"/>
<stop offset="1" stop-color="#551DB0"/>
</linearGradient>
</defs>
</svg>
