<svg width="48" height="48" viewBox="0 0 48 48" fill="none" xmlns="http://www.w3.org/2000/svg">
<g id="information" clip-path="url(#clip0_260_2033)">
<g id="Group">
<g id="Group_2">
<path id="Vector" d="M44 0H4C1.7944 0 0 1.7944 0 4V28.8V32C0 34.2056 1.7944 36 4 36H17.4416L16.1328 43.2H12.9896C12.0744 43.2 11.252 43.7088 10.8424 44.5264C10.468 45.276 10.5072 46.1488 10.9472 46.8616C11.3872 47.5744 12.1512 48 12.9888 48H35.0104C35.8488 48 36.612 47.5744 37.0528 46.8616C37.4928 46.1488 37.5328 45.276 37.1576 44.5264C36.7488 43.7088 35.9256 43.2 35.0112 43.2H31.868L30.5584 36H44C46.2056 36 48 34.2056 48 32V28.8V4C48 1.7944 46.2056 0 44 0ZM1.6 4C1.6 2.6768 2.6768 1.6 4 1.6H24V8H12C11.5584 8 11.2 8.3576 11.2 8.8V28H1.6V4ZM31.2 9.6V17.6V28H12.8V9.6H31.2ZM31.2 44.8H35.0112C35.3168 44.8 35.5912 44.9696 35.7272 45.2424C35.908 45.6024 35.7632 45.9064 35.692 46.0208C35.6208 46.1344 35.4144 46.4 35.0112 46.4H12.9888C12.5864 46.4 12.3784 46.1344 12.308 46.02C12.2376 45.9056 12.0928 45.6024 12.2736 45.2416C12.4096 44.9696 12.684 44.8 12.9888 44.8H16.8H23.2C23.6416 44.8 24 44.4424 24 44C24 43.5576 23.6416 43.2 23.2 43.2H17.7584L19.0672 36H28.932L30.2416 43.2H28C27.5576 43.2 27.2 43.5576 27.2 44C27.2 44.4424 27.5576 44.8 28 44.8H31.2ZM46.4 32C46.4 33.3232 45.3232 34.4 44 34.4H29.6H18.4H4C2.6768 34.4 1.6 33.3232 1.6 32V29.6H12H32H33.6H46.4V32ZM32.8 28V18.4H36V25.6C36 26.9232 34.9232 28 33.6 28H32.8ZM46.4 28H36.7792C37.2872 27.3296 37.6 26.504 37.6 25.6V17.6C37.6 17.1576 37.2424 16.8 36.8 16.8H32.8V8.8C32.8 8.3576 32.4424 8 32 8H25.6V1.6H44C45.3232 1.6 46.4 2.6768 46.4 4V28Z" fill="url(#paint0_linear_260_2033)"/>
</g>
</g>
<g id="Group_3">
<g id="Group_4">
<path id="Vector_2" d="M25.6 31.2H22.4C21.9584 31.2 21.6 31.5576 21.6 32C21.6 32.4424 21.9584 32.8 22.4 32.8H25.6C26.0424 32.8 26.4 32.4424 26.4 32C26.4 31.5576 26.0424 31.2 25.6 31.2Z" fill="url(#paint1_linear_260_2033)"/>
</g>
</g>
<g id="Group_5">
<g id="Group_6">
<path id="Vector_3" d="M28 24.8H14.4C13.9584 24.8 13.6 25.1576 13.6 25.6C13.6 26.0424 13.9584 26.4 14.4 26.4H28C28.4424 26.4 28.8 26.0424 28.8 25.6C28.8 25.1576 28.4424 24.8 28 24.8Z" fill="url(#paint2_linear_260_2033)"/>
</g>
</g>
<g id="Group_7">
<g id="Group_8">
<path id="Vector_4" d="M24.8 11.2C24.3584 11.2 24 11.5576 24 12V17.2C24 18.3032 23.1024 19.2 22 19.2C20.8976 19.2 20 18.3032 20 17.2V15.5312L20.2344 15.7656C20.5472 16.0784 21.0528 16.0784 21.3656 15.7656C21.6784 15.4528 21.6784 14.9472 21.3656 14.6344L19.7656 13.0344C19.5368 12.8056 19.1928 12.7352 18.8936 12.8608C18.5952 12.984 18.4 13.2768 18.4 13.6V17.2C18.4 19.1848 20.0152 20.8 22 20.8C23.9848 20.8 25.6 19.1848 25.6 17.2V12C25.6 11.5576 25.2424 11.2 24.8 11.2Z" fill="url(#paint3_linear_260_2033)"/>
</g>
</g>
<g id="Group_9">
<g id="Group_10">
<path id="Vector_5" d="M28.8 11.2H27.2C26.7576 11.2 26.4 11.5576 26.4 12C26.4 12.4424 26.7576 12.8 27.2 12.8H28.8C29.2424 12.8 29.6 12.4424 29.6 12C29.6 11.5576 29.2424 11.2 28.8 11.2Z" fill="url(#paint4_linear_260_2033)"/>
</g>
</g>
<g id="Group_11">
<g id="Group_12">
<path id="Vector_6" d="M28.8 14.4H27.2C26.7576 14.4 26.4 14.7576 26.4 15.2C26.4 15.6424 26.7576 16 27.2 16H28.8C29.2424 16 29.6 15.6424 29.6 15.2C29.6 14.7576 29.2424 14.4 28.8 14.4Z" fill="url(#paint5_linear_260_2033)"/>
</g>
</g>
<g id="Group_13">
<g id="Group_14">
<path id="Vector_7" d="M28.8 17.6H27.2C26.7576 17.6 26.4 17.9576 26.4 18.4C26.4 18.8424 26.7576 19.2 27.2 19.2H28.8C29.2424 19.2 29.6 18.8424 29.6 18.4C29.6 17.9576 29.2424 17.6 28.8 17.6Z" fill="url(#paint6_linear_260_2033)"/>
</g>
</g>
<g id="Group_15">
<g id="Group_16">
<path id="Vector_8" d="M28.8 21.6H26.4C25.9576 21.6 25.6 21.9576 25.6 22.4C25.6 22.8424 25.9576 23.2 26.4 23.2H28.8C29.2424 23.2 29.6 22.8424 29.6 22.4C29.6 21.9576 29.2424 21.6 28.8 21.6Z" fill="url(#paint7_linear_260_2033)"/>
</g>
</g>
<g id="Group_17">
<g id="Group_18">
<path id="Vector_9" d="M16.8 11.2H15.2C14.7584 11.2 14.4 11.5576 14.4 12C14.4 12.4424 14.7584 12.8 15.2 12.8H16.8C17.2416 12.8 17.6 12.4424 17.6 12C17.6 11.5576 17.2416 11.2 16.8 11.2Z" fill="url(#paint8_linear_260_2033)"/>
</g>
</g>
<g id="Group_19">
<g id="Group_20">
<path id="Vector_10" d="M23.2 21.6H15.2C14.7584 21.6 14.4 21.9576 14.4 22.4C14.4 22.8424 14.7584 23.2 15.2 23.2H23.2C23.6416 23.2 24 22.8424 24 22.4C24 21.9576 23.6416 21.6 23.2 21.6Z" fill="url(#paint9_linear_260_2033)"/>
</g>
</g>
<g id="Group_21">
<g id="Group_22">
<path id="Vector_11" d="M16.8 17.6H15.2C14.7584 17.6 14.4 17.9576 14.4 18.4C14.4 18.8424 14.7584 19.2 15.2 19.2H16.8C17.2416 19.2 17.6 18.8424 17.6 18.4C17.6 17.9576 17.2416 17.6 16.8 17.6Z" fill="url(#paint10_linear_260_2033)"/>
</g>
</g>
<g id="Group_23">
<g id="Group_24">
<path id="Vector_12" d="M16.8 14.4H15.2C14.7584 14.4 14.4 14.7576 14.4 15.2C14.4 15.6424 14.7584 16 15.2 16H16.8C17.2416 16 17.6 15.6424 17.6 15.2C17.6 14.7576 17.2416 14.4 16.8 14.4Z" fill="url(#paint11_linear_260_2033)"/>
</g>
</g>
</g>
<defs>
<linearGradient id="paint0_linear_260_2033" x1="38.8861" y1="-32.4324" x2="3.29242" y2="-21.8858" gradientUnits="userSpaceOnUse">
<stop stop-color="#0B96B4"/>
<stop offset="1" stop-color="#551DB0"/>
</linearGradient>
<linearGradient id="paint1_linear_260_2033" x1="25.4886" y1="30.1189" x2="23.3257" y2="32.0415" gradientUnits="userSpaceOnUse">
<stop stop-color="#0B96B4"/>
<stop offset="1" stop-color="#551DB0"/>
</linearGradient>
<linearGradient id="paint2_linear_260_2033" x1="25.9139" y1="23.7189" x2="24.5399" y2="27.5865" gradientUnits="userSpaceOnUse">
<stop stop-color="#0B96B4"/>
<stop offset="1" stop-color="#551DB0"/>
</linearGradient>
<linearGradient id="paint3_linear_260_2033" x1="24.2329" y1="4.71353" x2="18.6985" y2="5.94345" gradientUnits="userSpaceOnUse">
<stop stop-color="#0B96B4"/>
<stop offset="1" stop-color="#551DB0"/>
</linearGradient>
<linearGradient id="paint4_linear_260_2033" x1="28.9924" y1="10.1189" x2="27.0821" y2="11.251" gradientUnits="userSpaceOnUse">
<stop stop-color="#0B96B4"/>
<stop offset="1" stop-color="#551DB0"/>
</linearGradient>
<linearGradient id="paint5_linear_260_2033" x1="28.9924" y1="13.3189" x2="27.0821" y2="14.451" gradientUnits="userSpaceOnUse">
<stop stop-color="#0B96B4"/>
<stop offset="1" stop-color="#551DB0"/>
</linearGradient>
<linearGradient id="paint6_linear_260_2033" x1="28.9924" y1="16.5189" x2="27.0821" y2="17.651" gradientUnits="userSpaceOnUse">
<stop stop-color="#0B96B4"/>
<stop offset="1" stop-color="#551DB0"/>
</linearGradient>
<linearGradient id="paint7_linear_260_2033" x1="28.8405" y1="20.5189" x2="26.7571" y2="22.0622" gradientUnits="userSpaceOnUse">
<stop stop-color="#0B96B4"/>
<stop offset="1" stop-color="#551DB0"/>
</linearGradient>
<linearGradient id="paint8_linear_260_2033" x1="16.9924" y1="10.1189" x2="15.0821" y2="11.251" gradientUnits="userSpaceOnUse">
<stop stop-color="#0B96B4"/>
<stop offset="1" stop-color="#551DB0"/>
</linearGradient>
<linearGradient id="paint9_linear_260_2033" x1="22.1772" y1="20.5189" x2="20.3161" y2="23.8277" gradientUnits="userSpaceOnUse">
<stop stop-color="#0B96B4"/>
<stop offset="1" stop-color="#551DB0"/>
</linearGradient>
<linearGradient id="paint10_linear_260_2033" x1="16.9924" y1="16.5189" x2="15.0821" y2="17.651" gradientUnits="userSpaceOnUse">
<stop stop-color="#0B96B4"/>
<stop offset="1" stop-color="#551DB0"/>
</linearGradient>
<linearGradient id="paint11_linear_260_2033" x1="16.9924" y1="13.3189" x2="15.0821" y2="14.451" gradientUnits="userSpaceOnUse">
<stop stop-color="#0B96B4"/>
<stop offset="1" stop-color="#551DB0"/>
</linearGradient>
<clipPath id="clip0_260_2033">
<rect width="48" height="48" fill="white"/>
</clipPath>
</defs>
</svg>
